<svg width="36" height="36" viewBox="0 0 36 36" fill="none" xmlns="http://www.w3.org/2000/svg">
<circle cx="18" cy="18" r="18" fill="#CBDFAB"/>
<path d="M18.8833 14.7582L20.0625 15.9374C20.6042 16.4791 21.0339 17.1221 21.3271 17.8299C21.6203 18.5377 21.7712 19.2963 21.7712 20.0624C21.7712 20.8285 21.6203 21.5871 21.3271 22.2948C21.0339 23.0026 20.6042 23.6457 20.0625 24.1874L19.7675 24.4815C18.6735 25.5756 17.1896 26.1902 15.6425 26.1902C14.0953 26.1902 12.6115 25.5756 11.5175 24.4815C10.4235 23.3875 9.80884 21.9037 9.80884 20.3565C9.80884 18.8094 10.4235 17.3256 11.5175 16.2315L12.6966 17.4107C12.3069 17.797 11.9974 18.2565 11.7857 18.7627C11.5741 19.269 11.4645 19.812 11.4633 20.3607C11.4621 20.9094 11.5693 21.453 11.7787 21.9602C11.9882 22.4673 12.2957 22.9281 12.6837 23.3161C13.0717 23.7041 13.5325 24.0117 14.0397 24.2211C14.5469 24.4305 15.0904 24.5377 15.6391 24.5365C16.1878 24.5353 16.7309 24.4257 17.2371 24.2141C17.7434 24.0024 18.2028 23.6929 18.5891 23.3032L18.8841 23.0082C19.6653 22.2268 20.1041 21.1672 20.1041 20.0624C20.1041 18.9575 19.6653 17.8979 18.8841 17.1165L17.705 15.9374L18.8841 14.759L18.8833 14.7582ZM24.4816 19.7674L23.3033 18.589C23.693 18.2027 24.0025 17.7433 24.2142 17.237C24.4258 16.7308 24.5354 16.1877 24.5366 15.639C24.5378 15.0903 24.4306 14.5468 24.2212 14.0396C24.0118 13.5324 23.7042 13.0716 23.3162 12.6836C22.9282 12.2956 22.4674 11.9881 21.9603 11.7786C21.4531 11.5692 20.9095 11.462 20.3608 11.4632C19.8121 11.4644 19.2691 11.574 18.7628 11.7856C18.2566 11.9973 17.7971 12.3068 17.4108 12.6965L17.1158 12.9915C16.3347 13.7729 15.8959 14.8325 15.8959 15.9374C15.8959 17.0422 16.3347 18.1018 17.1158 18.8832L18.295 20.0624L17.1158 21.2407L15.9375 20.0624C15.3957 19.5207 14.966 18.8776 14.6728 18.1698C14.3796 17.4621 14.2287 16.7035 14.2287 15.9374C14.2287 15.1713 14.3796 14.4127 14.6728 13.7049C14.966 12.9971 15.3957 12.3541 15.9375 11.8124L16.2325 11.5182C17.3265 10.4242 18.8103 9.80957 20.3575 9.80957C21.9046 9.80957 23.3884 10.4242 24.4825 11.5182C25.5765 12.6122 26.1911 14.096 26.1911 15.6432C26.1911 17.1904 25.5765 18.6742 24.4825 19.7682L24.4816 19.7674Z" fill="#255E13"/>
</svg>
