<svg width="30" height="30" viewBox="0 0 30 30" fill="none" xmlns="http://www.w3.org/2000/svg">
<path d="M21.0254 2.3877H8.97539C6.32539 2.3877 4.15039 4.5627 4.15039 7.2127V24.8252C4.15039 27.0752 5.76289 28.0252 7.73789 26.9377L13.8379 23.5502C14.4879 23.1877 15.5379 23.1877 16.1754 23.5502L22.2754 26.9377C24.2504 28.0377 25.8629 27.0877 25.8629 24.8252V7.2127C25.8504 4.5627 23.6879 2.3877 21.0254 2.3877ZM19.5254 11.2877L14.5254 16.2877C14.3379 16.4752 14.1004 16.5627 13.8629 16.5627C13.6254 16.5627 13.3879 16.4752 13.2004 16.2877L11.3254 14.4127C10.9629 14.0502 10.9629 13.4502 11.3254 13.0877C11.6879 12.7252 12.2879 12.7252 12.6504 13.0877L13.8629 14.3002L18.2004 9.9627C18.5629 9.6002 19.1629 9.6002 19.5254 9.9627C19.8879 10.3252 19.8879 10.9252 19.5254 11.2877Z" fill="#FFCC00"/>
</svg>
