<svg width="36" height="36" viewBox="0 0 36 36" fill="none" xmlns="http://www.w3.org/2000/svg">
<circle cx="18" cy="18" r="18" fill="#CBDFAB"/>
<path d="M15.5 11.3334V10.5001C15.5 10.2791 15.5878 10.0671 15.744 9.91083C15.9003 9.75455 16.1123 9.66675 16.3333 9.66675H19.6666C19.8876 9.66675 20.0996 9.75455 20.2559 9.91083C20.4122 10.0671 20.5 10.2791 20.5 10.5001V11.3334H23C23.221 11.3334 23.4329 11.4212 23.5892 11.5775C23.7455 11.7338 23.8333 11.9457 23.8333 12.1667V25.5001C23.8333 25.7211 23.7455 25.9331 23.5892 26.0893C23.4329 26.2456 23.221 26.3334 23 26.3334H13C12.7789 26.3334 12.567 26.2456 12.4107 26.0893C12.2544 25.9331 12.1666 25.7211 12.1666 25.5001V12.1667C12.1666 11.9457 12.2544 11.7338 12.4107 11.5775C12.567 11.4212 12.7789 11.3334 13 11.3334H15.5ZM18.8333 18.0001V13.8334L14.6666 19.6667H17.1666V23.8334L21.3333 18.0001H18.8333Z" fill="#255E13"/>
</svg>
