<svg width="428" height="468" viewBox="0 0 428 468" fill="none" xmlns="http://www.w3.org/2000/svg">
<g clip-path="url(#clip0)">
<path d="M43.8185 330.856L30.4641 331.141L23.6852 331.253C21.4154 331.304 19.1455 331.294 16.8757 331.304H16.4278V330.846L16.377 319.463V318.955H16.8859L30.3624 319.016C34.8511 319.026 39.3501 319.128 43.8388 319.178H44.1238V319.453C44.1035 321.386 44.0322 323.308 43.9915 325.2L43.8185 330.856ZM43.8185 330.856L43.676 325.109C43.6251 323.217 43.564 321.345 43.5436 319.473L43.8185 319.748C39.3297 319.799 34.8308 319.911 30.342 319.911L16.8655 319.972L17.3745 319.463L17.3236 330.846L16.8655 330.388C19.0845 330.409 21.3034 330.398 23.5325 330.449L30.23 330.561L43.8185 330.856Z" fill="#EBEBEB"/>
<path d="M28.7849 345.209L15.4305 345.494L8.65159 345.606C6.38176 345.657 4.11193 345.647 1.84211 345.657H1.39425V345.199L1.323 333.826V333.318H1.83193L15.3084 333.379C19.7972 333.389 24.2961 333.491 28.7849 333.542H29.0699V333.816C29.0495 335.749 28.9783 337.672 28.9375 339.564L28.7849 345.209ZM28.7849 345.209L28.6424 339.462C28.5915 337.57 28.5304 335.698 28.51 333.826L28.7849 334.101C24.2961 334.152 19.7972 334.264 15.3084 334.264L1.83193 334.335L2.34086 333.826L2.28997 345.209L1.83193 344.752C4.05086 344.772 6.2698 344.762 8.49891 344.813L15.1964 344.924L28.7849 345.209Z" fill="#EBEBEB"/>
<path d="M222.474 371.403L209.119 371.688L202.34 371.8C200.07 371.851 197.801 371.841 195.531 371.861H195.083V371.403L195.032 360.02V359.512H195.541L209.017 359.573C213.506 359.583 218.005 359.685 222.494 359.736H222.779V360.01C222.759 361.943 222.687 363.865 222.647 365.758L222.474 371.403ZM222.474 371.403L222.331 365.656C222.28 363.764 222.219 361.892 222.199 360.02L222.474 360.295C217.985 360.346 213.486 360.458 208.997 360.458L195.521 360.519L196.029 360.01L195.979 371.393L195.521 370.935C197.739 370.956 199.958 370.945 202.188 370.996L208.885 371.108L222.474 371.403Z" fill="#EBEBEB"/>
<path d="M207.44 385.756L194.085 386.041L187.306 386.153C185.036 386.204 182.767 386.194 180.497 386.214H180.049V385.756L179.998 374.373V373.865H180.507L193.983 373.926C198.472 373.936 202.971 374.038 207.46 374.089H207.745V374.363C207.725 376.296 207.653 378.219 207.613 380.111L207.44 385.756ZM207.44 385.756L207.297 380.009C207.246 378.117 207.185 376.245 207.165 374.373L207.44 374.648C202.951 374.699 198.452 374.811 193.963 374.811L180.487 374.872L180.996 374.363L180.945 385.746L180.487 385.288C182.706 385.309 184.924 385.299 187.154 385.349L193.851 385.461L207.44 385.756Z" fill="#EBEBEB"/>
<path d="M192.457 371.403L179.103 371.688L172.324 371.8C170.054 371.851 167.784 371.841 165.514 371.861H165.066V371.403L165.015 360.02V359.512H165.524L179.001 359.573C183.49 359.583 187.988 359.685 192.477 359.736H192.762V360.01C192.742 361.943 192.671 363.865 192.63 365.758L192.457 371.403ZM192.457 371.403L192.314 365.656C192.263 363.764 192.202 361.892 192.182 360.02L192.457 360.295C187.968 360.346 183.469 360.458 178.98 360.458L165.504 360.519L166.013 360.01L165.962 371.393L165.504 370.935C167.723 370.956 169.942 370.945 172.171 370.996L178.868 371.108L192.457 371.403Z" fill="#EBEBEB"/>
<path d="M426.605 345.21L413.251 345.495L406.472 345.606C404.202 345.657 401.932 345.647 399.663 345.657H399.215V345.2L399.164 333.817V333.308H399.673L413.149 333.369C417.638 333.379 422.137 333.481 426.626 333.532H426.911V333.807C426.89 335.739 426.819 337.662 426.778 339.554L426.605 345.21ZM426.605 345.21L426.463 339.462C426.412 337.57 426.351 335.699 426.331 333.827L426.605 334.102C422.117 334.152 417.618 334.264 413.129 334.264L399.652 334.325L400.161 333.817L400.11 345.2L399.652 344.742C401.871 344.762 404.09 344.752 406.319 344.803L413.017 344.915L426.605 345.21Z" fill="#EBEBEB"/>
<path d="M411.561 57.9013L398.207 58.1861L391.428 58.298C389.158 58.3488 386.888 58.3387 384.618 58.359H384.171V57.9013L384.12 46.5184V46.0098H384.629L398.105 46.0708C402.594 46.081 407.093 46.1827 411.581 46.2336H411.867V46.5082C411.846 48.441 411.775 50.3635 411.734 52.2556L411.561 57.9013ZM411.561 57.9013L411.419 52.1539C411.368 50.2618 411.307 48.3901 411.286 46.5184L411.561 46.793C407.072 46.8439 402.573 46.9558 398.085 46.9558L384.608 47.0168L385.117 46.5082L385.066 57.8911L384.608 57.4333C386.827 57.4537 389.046 57.4435 391.275 57.4944L397.973 57.6063L411.561 57.9013Z" fill="#EBEBEB"/>
<path d="M426.605 72.2543L413.251 72.5391L406.472 72.651C404.202 72.7019 401.932 72.6917 399.663 72.712H399.215V72.2543L399.164 60.8714V60.3628H399.673L413.149 60.4238C417.638 60.434 422.137 60.5357 426.626 60.5866H426.911V60.8612C426.89 62.794 426.819 64.7166 426.778 66.6086L426.605 72.2543ZM426.605 72.2543L426.463 66.5069C426.412 64.6148 426.351 62.7431 426.331 60.8714L426.605 61.1461C422.117 61.1969 417.618 61.3088 413.129 61.3088L399.652 61.3699L400.161 60.8612L400.11 72.2441L399.652 71.7864C401.871 71.8067 404.09 71.7965 406.319 71.8474L413.017 71.9593L426.605 72.2543Z" fill="#EBEBEB"/>
<path d="M28.7854 57.9013L15.431 58.1861L8.65208 58.298C6.38225 58.3488 4.11242 58.3387 1.84259 58.359H1.39474V57.9013L1.32349 46.5184V46.0098H1.83242L15.3089 46.0708C19.7976 46.081 24.2966 46.1827 28.7854 46.2336H29.0704V46.5082C29.05 48.441 28.9787 50.3635 28.938 52.2556L28.7854 57.9013ZM28.7854 57.9013L28.6429 52.1539C28.592 50.2618 28.5309 48.3901 28.5105 46.5184L28.7854 46.793C24.2966 46.8439 19.7976 46.9558 15.3089 46.9558L1.83242 47.027L2.34135 46.5184L2.28027 57.9013L1.83242 57.4435C4.05135 57.4639 6.27029 57.4537 8.4994 57.5045L15.1969 57.6164L28.7854 57.9013Z" fill="#EBEBEB"/>
<path d="M85.0929 269.721C83.9529 270.85 82.5483 271.47 81.0317 271.847C80.0647 272.091 79.0774 272.223 78.1003 272.406H74.7515C73.3774 272.193 72.0033 272.03 70.6393 271.755C65.55 270.748 60.9595 268.551 56.6845 265.692C45.5287 258.246 36.368 248.867 29.3753 237.423C27.0749 233.66 25.4362 229.601 24.6626 225.237C24.459 224.098 24.3063 222.958 24.1333 221.809V218.462C24.4081 217.18 24.6321 215.878 24.9781 214.617C25.3038 213.447 25.9044 212.399 26.8103 211.484C26.9731 211.626 27.1258 211.748 27.2683 211.891C32.5917 217.211 37.9151 222.531 43.2487 227.831C43.6253 228.207 43.6966 228.523 43.5643 229.041C42.811 231.879 43.32 234.463 45.2844 236.701C49.8343 241.869 54.6793 246.731 59.85 251.278C62.1097 253.262 64.7154 253.74 67.5858 252.987C67.9624 252.885 68.2474 252.824 68.5731 253.16C74.0186 258.623 79.4744 264.065 84.9301 269.527C84.981 269.558 85.0115 269.619 85.0929 269.721Z" fill="#A8D29F"/>
<path d="M95.5364 257.769V258.888C95.0173 259.559 94.5593 260.281 93.9689 260.881C92.32 262.58 90.6303 264.238 88.9509 265.917C88.7677 266.1 88.5844 266.263 88.4419 266.405C82.9455 260.912 77.4694 255.449 72.0137 249.997C74.1614 247.881 76.309 245.704 78.528 243.598C79.5458 242.632 80.981 242.754 82.0396 243.782C83.2712 244.982 84.4723 246.203 85.6937 247.423C88.5539 250.282 91.4243 253.12 94.2539 256.009C94.7629 256.507 95.1191 257.179 95.5364 257.769Z" fill="#A8D29F"/>
<path d="M52.491 218.544C50.4553 220.507 48.3789 222.43 46.3635 224.332C41.1012 219.073 35.6352 213.62 30.0574 208.046C30.4238 207.72 30.8309 207.385 31.2076 207.008C32.7038 205.523 34.1797 203.997 35.6963 202.543C36.2867 201.983 36.989 201.536 37.6506 201.037H38.7703C39.3606 201.464 40.0324 201.81 40.5413 202.319C44.5313 206.266 48.501 210.253 52.4707 214.22C53.9873 215.736 54.0076 217.079 52.491 218.544Z" fill="#A8D29F"/>
<path d="M241.691 468C337.891 468 415.877 459.488 415.877 448.988C415.877 438.488 337.891 429.976 241.691 429.976C145.49 429.976 67.5044 438.488 67.5044 448.988C67.5044 459.488 145.49 468 241.691 468Z" fill="#EBEBEB"/>
<path d="M269.458 76.6182H104.921C95.7295 76.6182 88.2788 84.1966 88.2788 93.5653V432.061C88.2788 441.409 95.7295 449.008 104.921 449.008H269.458C278.649 449.008 286.12 441.409 286.12 432.061V93.5653C286.12 84.1966 278.649 76.6182 269.458 76.6182ZM275.708 421.594C275.708 430.505 269.03 437.707 260.796 437.707H113.603C105.348 437.707 98.6712 430.494 98.6712 421.594V106.393C98.6712 88.2452 105.348 87.3602 113.603 87.3602H143.091C144.801 87.3602 146.205 89.3031 146.205 91.714V92.7515C146.205 98.4074 149.3 98.4175 153.096 98.4175H221.283C225.12 98.4175 228.194 98.3972 228.194 92.7515V91.714C228.194 89.3031 229.578 87.3602 231.319 87.3602H260.796C269.03 87.3602 275.708 89.771 275.708 106.393V421.594Z" fill="#263238"/>
<path d="M275.707 106.393V421.594C275.707 430.505 269.03 437.707 260.796 437.707H113.603C105.348 437.707 98.6709 430.495 98.6709 421.594V106.393C98.6709 88.2453 105.348 87.3604 113.603 87.3604H143.09C144.8 87.3604 146.205 89.3033 146.205 91.7141V92.7517C146.205 98.4075 149.299 98.4177 153.096 98.4177H221.282C225.12 98.4177 228.194 98.3974 228.194 92.7517V91.7141C228.194 89.3033 229.578 87.3604 231.318 87.3604H260.796C269.03 87.3604 275.707 89.7712 275.707 106.393Z" fill="white"/>
<path d="M138.001 94.4406C137.909 94.5321 137.808 94.6338 137.716 94.7254C137.665 94.7763 137.604 94.8373 137.553 94.8881C136.79 94.1456 135.874 93.7489 134.805 93.7489C133.736 93.7489 132.83 94.1456 132.057 94.8881C132.006 94.8373 131.955 94.7763 131.904 94.7254C131.812 94.6338 131.721 94.5321 131.619 94.4406H131.609C131.609 94.4406 131.609 94.4406 131.609 94.4304C131.619 94.4202 131.619 94.4202 131.629 94.41C131.751 94.3083 131.863 94.1964 131.985 94.0947C132.24 93.8811 132.525 93.7082 132.82 93.5657C133.176 93.3928 133.543 93.2606 133.93 93.1995C134.113 93.169 134.296 93.1487 134.479 93.1283C134.54 93.1182 134.947 93.1182 134.958 93.1182C135.08 93.1283 135.212 93.1283 135.334 93.1487C135.68 93.1894 136.016 93.2707 136.352 93.3928C136.586 93.4844 136.82 93.5861 137.034 93.7082C137.268 93.8404 137.482 93.993 137.686 94.1659C137.797 94.2473 137.899 94.3388 138.001 94.4406C138.001 94.4304 138.001 94.4406 138.001 94.4406Z" fill="white"/>
<path d="M132.963 95.7733C132.81 95.6207 132.668 95.4783 132.515 95.3257C133.024 94.8272 133.635 94.5017 134.347 94.4102C135.416 94.2678 136.322 94.5933 137.105 95.3257C136.953 95.4783 136.8 95.6207 136.658 95.7733C136.149 95.2748 135.538 95.0103 134.815 95.0103C134.093 95.0103 133.482 95.285 132.963 95.7733Z" fill="white"/>
<path d="M136.2 96.2302C136.047 96.3828 135.905 96.5252 135.752 96.6778C135.497 96.4235 135.182 96.2913 134.805 96.2913C134.439 96.2913 134.123 96.4337 133.859 96.688C133.706 96.5354 133.564 96.393 133.411 96.2404C134.134 95.4876 135.406 95.4266 136.2 96.2302Z" fill="white"/>
<path d="M135.212 97.0851C135.212 97.3089 135.029 97.492 134.805 97.492C134.581 97.492 134.398 97.3089 134.398 97.0851C134.398 96.8613 134.581 96.6782 134.805 96.6782C135.029 96.6782 135.212 96.8613 135.212 97.0851Z" fill="white"/>
<path d="M110.224 95.2958C110.224 94.6448 110.753 94.126 111.394 94.126C112.046 94.126 112.565 94.6549 112.565 95.2958C112.565 95.9468 112.035 96.4656 111.394 96.4656C110.743 96.4758 110.224 95.9468 110.224 95.2958Z" fill="white"/>
<path d="M113.918 95.2958C113.918 94.6448 114.447 94.126 115.089 94.126C115.74 94.126 116.259 94.6549 116.259 95.2958C116.259 95.9468 115.73 96.4656 115.089 96.4656C114.437 96.4758 113.918 95.9468 113.918 95.2958Z" fill="white"/>
<path d="M117.613 95.2958C117.613 94.6448 118.142 94.126 118.784 94.126C119.435 94.126 119.954 94.6549 119.954 95.2958C119.954 95.9468 119.425 96.4656 118.784 96.4656C118.132 96.4758 117.613 95.9468 117.613 95.2958Z" fill="white"/>
<path d="M121.308 95.2958C121.308 94.6448 121.837 94.126 122.478 94.126C123.13 94.126 123.649 94.6549 123.649 95.2958C123.649 95.9468 123.12 96.4656 122.478 96.4656C121.827 96.4758 121.308 95.9468 121.308 95.2958Z" fill="white"/>
<path d="M125.003 95.2958C125.003 94.6448 125.532 94.126 126.173 94.126C126.825 94.126 127.344 94.6549 127.344 95.2958C127.344 95.9468 126.814 96.4656 126.173 96.4656C125.522 96.4758 125.003 95.9468 125.003 95.2958Z" fill="white"/>
<path d="M262.424 97.8591H252.877V93.4341H262.424V97.8591ZM253.366 97.3708H261.946V93.9224H253.366V97.3708Z" fill="white"/>
<path d="M259.829 94.1875H253.671V97.107H259.829V94.1875Z" fill="white"/>
<path d="M263.279 94.4614H262.435V96.8316H263.279V94.4614Z" fill="white"/>
<path d="M196.497 91.3683H177.901C177.27 91.3683 176.751 90.8495 176.751 90.2188C176.751 89.5881 177.27 89.0693 177.901 89.0693H196.497C197.129 89.0693 197.648 89.5881 197.648 90.2188C197.648 90.8597 197.129 91.3683 196.497 91.3683Z" fill="white"/>
<path d="M128.596 195.564C128.596 191.586 131.884 188.413 135.904 188.413C137.584 188.413 139.192 188.982 140.423 189.959C140.943 190.335 141.014 191.068 140.637 191.566C140.261 192.044 139.528 192.146 139.029 191.749C138.174 191.098 137.085 190.681 135.894 190.681C134.469 190.681 133.217 191.22 132.331 192.126C131.405 193.021 130.845 194.221 130.845 195.574C130.845 196.876 131.405 198.087 132.331 198.982C133.227 199.897 134.469 200.426 135.894 200.426C136.881 200.426 137.818 200.131 138.612 199.673V196.957H135.782C135.171 196.957 134.652 196.439 134.652 195.828C134.652 195.198 135.171 194.719 135.782 194.719H139.691C139.711 194.719 139.711 194.719 139.711 194.719C139.731 194.719 139.731 194.719 139.731 194.719C140.362 194.719 140.882 195.198 140.882 195.828V200.202C140.882 200.345 140.841 200.416 140.82 200.538C140.8 200.579 140.8 200.599 140.78 200.64V200.66C140.719 200.843 140.597 200.996 140.403 201.138C139.151 202.105 137.594 202.684 135.904 202.684C131.884 202.674 128.596 199.521 128.596 195.564Z" fill="#A6A6A6"/>
<path d="M144.434 197.72C144.454 195.024 146.551 192.766 149.269 192.766C151.844 192.766 153.89 194.689 154.042 197.364C154.042 197.384 154.042 197.425 154.042 197.466C154.042 197.506 154.042 197.608 154.022 197.649C153.961 198.127 153.544 198.442 152.994 198.442H146.693C146.795 198.9 147.009 199.409 147.365 199.744C147.783 200.222 148.577 200.578 149.269 200.64C149.981 200.701 150.836 200.517 151.325 200.141C151.742 199.704 152.556 199.765 152.811 200.08C153.065 200.355 153.269 200.955 152.811 201.372C151.844 202.267 150.673 202.674 149.258 202.674C146.561 202.654 144.454 200.416 144.434 197.72ZM146.592 196.754H152.2C152.007 195.96 150.989 194.79 149.269 194.658C147.589 194.729 146.755 195.94 146.592 196.754Z" fill="#A6A6A6"/>
<path d="M160.872 193.855C160.872 194.445 160.353 194.943 159.763 194.943H159.264V200.467C159.875 200.467 160.353 200.965 160.353 201.575C160.353 202.186 159.875 202.664 159.264 202.664C158.053 202.664 157.066 201.677 157.066 200.467V194.943H156.496C155.885 194.943 155.406 194.445 155.406 193.855C155.406 193.244 155.885 192.766 156.496 192.766H157.066V189.898C157.066 189.287 157.564 188.809 158.175 188.809C158.786 188.809 159.264 189.287 159.264 189.898V192.766H159.763C160.353 192.766 160.872 193.244 160.872 193.855Z" fill="#A6A6A6"/>
<path d="M172.445 190.294C172.445 190.884 171.987 191.383 171.377 191.383C170.786 191.383 170.308 190.884 170.308 190.294V189.877C170.308 189.287 170.786 188.809 171.377 188.809C171.987 188.809 172.445 189.287 172.445 189.877V190.294ZM172.445 193.875V201.596C172.445 202.186 171.987 202.664 171.377 202.664C170.786 202.664 170.308 202.186 170.308 201.596V193.875C170.308 193.244 170.786 192.786 171.377 192.786C171.998 192.786 172.445 193.244 172.445 193.875Z" fill="#A6A6A6"/>
<path d="M184.12 196.887V201.617C184.12 202.186 183.662 202.664 183.092 202.664C182.532 202.664 182.044 202.186 182.044 201.617V196.887C182.044 195.778 181.107 194.883 179.988 194.883C178.878 194.883 178.003 195.778 178.003 196.887V201.617C178.003 201.678 178.003 201.739 177.962 201.82C177.86 202.298 177.423 202.675 176.914 202.675C176.323 202.675 175.865 202.197 175.865 201.627V196.897V193.825C175.865 193.245 176.323 192.777 176.914 192.777C177.331 192.777 177.708 193.011 177.881 193.387C178.471 193.011 179.204 192.777 179.977 192.777C182.278 192.767 184.12 194.649 184.12 196.887Z" fill="#A6A6A6"/>
<path d="M198.421 193.855C198.421 194.445 197.902 194.943 197.312 194.943H196.813V200.467C197.424 200.467 197.902 200.965 197.902 201.575C197.902 202.186 197.424 202.664 196.813 202.664C195.602 202.664 194.614 201.677 194.614 200.467V194.943H194.044C193.434 194.943 192.955 194.445 192.955 193.855C192.955 193.244 193.434 192.766 194.044 192.766H194.614V189.898C194.614 189.287 195.113 188.809 195.724 188.809C196.335 188.809 196.813 189.287 196.813 189.898V192.766H197.312C197.902 192.766 198.421 193.244 198.421 193.855Z" fill="#A6A6A6"/>
<path d="M202.503 201.23C201.648 200.355 201.139 199.134 201.139 197.74C201.139 196.398 201.658 195.228 202.503 194.272C203.398 193.336 204.549 192.766 205.912 192.766C207.215 192.766 208.406 193.336 209.22 194.272C210.116 195.218 210.605 196.387 210.605 197.74C210.605 199.124 210.106 200.355 209.22 201.23C208.406 202.155 207.215 202.735 205.912 202.735C204.549 202.735 203.398 202.155 202.503 201.23ZM203.297 197.74C203.297 198.595 203.551 199.287 204.009 199.836C204.508 200.314 205.159 200.568 205.912 200.568C206.605 200.568 207.236 200.314 207.734 199.836C208.233 199.276 208.508 198.585 208.508 197.74C208.508 196.927 208.233 196.215 207.734 195.675C207.236 195.238 206.605 194.923 205.912 194.923C205.159 194.923 204.508 195.238 204.009 195.675C203.551 196.215 203.297 196.927 203.297 197.74Z" fill="#A6A6A6"/>
<path d="M217.587 202.675C215.328 202.675 213.465 200.813 213.465 198.555V193.825C213.465 193.265 213.943 192.777 214.513 192.777C215.104 192.777 215.562 193.275 215.562 193.825V198.555C215.562 199.684 216.457 200.579 217.587 200.579C218.737 200.579 219.643 199.684 219.664 198.555V193.825C219.664 193.265 220.101 192.777 220.692 192.777C221.251 192.777 221.76 193.275 221.76 193.825V198.555C221.771 200.813 219.867 202.675 217.587 202.675Z" fill="#A6A6A6"/>
<path d="M225.129 197.74C225.129 194.984 227.43 192.786 230.168 192.766C231.359 192.766 232.468 193.204 233.323 193.855C233.781 194.211 233.863 194.882 233.537 195.319C233.14 195.797 232.509 195.879 232.051 195.523C231.532 195.146 230.901 194.892 230.168 194.892C228.56 194.892 227.236 196.215 227.236 197.74C227.236 199.266 228.56 200.568 230.168 200.568C230.88 200.568 231.532 200.314 232.051 199.938C232.489 199.602 233.14 199.683 233.537 200.151C233.852 200.589 233.771 201.219 233.323 201.616C232.468 202.226 231.359 202.664 230.168 202.664C227.43 202.674 225.129 200.456 225.129 197.74Z" fill="#A6A6A6"/>
<path d="M239.339 201.586C239.339 202.196 238.84 202.674 238.229 202.674C237.731 202.674 237.313 202.318 237.181 201.86C237.161 201.779 237.14 201.677 237.14 201.586V189.898C237.14 189.287 237.639 188.809 238.229 188.809C238.84 188.809 239.339 189.287 239.339 189.898V193.346C239.97 193.01 240.683 192.776 241.456 192.776C243.858 192.776 245.772 194.74 245.772 197.11V201.586C245.772 202.196 245.293 202.674 244.683 202.674C244.072 202.674 243.594 202.196 243.594 201.586V197.11C243.594 195.94 242.647 194.994 241.456 194.974C240.286 194.994 239.359 195.94 239.339 197.11V201.586Z" fill="#A6A6A6"/>
<path d="M257.712 213.915H116.667V354.141H257.712V213.915Z" fill="white"/>
<path d="M257.712 354.141L116.667 354.202H116.606V354.141L116.545 213.915V213.792H116.667L257.712 213.854H257.773V213.915L257.712 354.141ZM257.712 354.141L257.651 213.915L257.712 213.976L116.667 214.037L116.789 213.915L116.728 354.141L116.667 354.08L257.712 354.141Z" fill="#DBDBDB"/>
<path d="M129.909 231.431C129.909 231.615 129.757 231.767 129.584 231.767C129.39 231.767 129.248 231.615 129.248 231.431V227.881C129.248 227.881 129.248 227.881 129.248 227.871C129.237 227.769 129.288 227.657 129.38 227.586C129.533 227.485 129.736 227.515 129.848 227.657L131.823 230.394V227.871C131.823 227.698 131.965 227.546 132.149 227.546C132.332 227.546 132.484 227.698 132.484 227.871V231.421C132.484 231.604 132.332 231.757 132.149 231.757C132.047 231.757 131.955 231.706 131.894 231.635C131.884 231.625 131.874 231.615 131.864 231.594L129.909 228.878V231.431Z" fill="#A6A6A6"/>
<path d="M136.464 230.252V231.452C136.464 231.625 136.322 231.778 136.138 231.778C135.975 231.778 135.853 231.666 135.823 231.513C135.589 231.676 135.314 231.778 135.009 231.778C134.591 231.778 134.235 231.605 133.97 231.33C133.706 231.045 133.553 230.669 133.553 230.252C133.553 229.835 133.706 229.448 133.97 229.174C134.235 228.889 134.591 228.716 135.009 228.716C135.314 228.716 135.589 228.818 135.823 228.98C135.864 228.828 135.986 228.716 136.138 228.716C136.311 228.716 136.464 228.858 136.464 229.041V230.252ZM135.823 230.252C135.823 229.998 135.731 229.774 135.589 229.621C135.446 229.458 135.232 229.367 135.019 229.367C134.795 229.367 134.591 229.448 134.449 229.621C134.306 229.774 134.215 229.998 134.215 230.252C134.215 230.506 134.296 230.72 134.449 230.883C134.591 231.035 134.795 231.116 135.019 231.116C135.232 231.116 135.436 231.035 135.589 230.883C135.731 230.72 135.823 230.496 135.823 230.252Z" fill="#A6A6A6"/>
<path d="M140.22 229.977C140.22 229.987 140.22 229.987 140.22 229.998V231.442C140.22 231.615 140.078 231.768 139.894 231.768C139.721 231.768 139.569 231.625 139.569 231.442V229.998C139.569 229.987 139.569 229.987 139.569 229.977C139.558 229.642 139.284 229.367 138.938 229.367C138.602 229.367 138.317 229.652 138.317 229.998V231.442C138.317 231.452 138.306 231.473 138.306 231.483C138.306 231.493 138.306 231.503 138.306 231.503C138.296 231.513 138.296 231.523 138.286 231.544C138.286 231.554 138.286 231.564 138.286 231.574C138.235 231.686 138.113 231.768 137.981 231.768C137.96 231.768 137.94 231.757 137.92 231.757C137.777 231.717 137.655 231.595 137.655 231.442V229.998C137.655 229.987 137.655 229.987 137.655 229.987V229.041C137.655 228.848 137.798 228.716 137.981 228.716C138.113 228.716 138.225 228.787 138.276 228.899C138.469 228.787 138.693 228.716 138.927 228.716C139.314 228.716 139.66 228.879 139.884 229.133C140.108 228.868 140.464 228.716 140.841 228.716C141.543 228.716 142.113 229.296 142.113 229.998V231.442C142.113 231.615 141.971 231.768 141.788 231.768C141.615 231.768 141.462 231.625 141.462 231.442V229.998C141.462 229.652 141.177 229.367 140.841 229.367C140.515 229.367 140.23 229.642 140.22 229.977Z" fill="#A6A6A6"/>
<path d="M143.263 230.242C143.274 229.408 143.915 228.716 144.76 228.716C145.554 228.716 146.185 229.306 146.236 230.13C146.236 230.14 146.236 230.15 146.236 230.16C146.236 230.17 146.236 230.201 146.225 230.211C146.205 230.354 146.083 230.455 145.91 230.455H143.966C143.996 230.598 144.068 230.75 144.169 230.862C144.302 231.005 144.546 231.116 144.76 231.137C144.984 231.157 145.248 231.096 145.401 230.984C145.533 230.852 145.778 230.872 145.859 230.964C145.94 231.045 146.001 231.228 145.859 231.361C145.564 231.635 145.197 231.768 144.76 231.768C143.925 231.768 143.274 231.076 143.263 230.242ZM143.935 229.947H145.666C145.604 229.703 145.289 229.336 144.76 229.296C144.241 229.316 143.986 229.692 143.935 229.947Z" fill="#A6A6A6"/>
<path opacity="0.2" d="M245.782 235.48H128.596V245.337H245.782V235.48Z" fill="#FFCC00"/>
<path d="M129.227 258.124V254.512C129.227 254.319 129.37 254.177 129.563 254.177H129.573C129.573 254.177 129.573 254.177 129.584 254.177H131.568C131.741 254.177 131.904 254.319 131.904 254.512C131.904 254.706 131.741 254.858 131.568 254.858H129.909V255.977H131.334C131.517 255.977 131.67 256.14 131.67 256.313C131.67 256.506 131.517 256.659 131.334 256.659H129.909V257.788H131.568C131.741 257.788 131.904 257.941 131.904 258.134C131.904 258.317 131.741 258.469 131.568 258.469H129.584C129.573 258.469 129.573 258.459 129.573 258.459L129.563 258.469C129.38 258.459 129.227 258.307 129.227 258.124Z" fill="#A6A6A6"/>
<path d="M135.345 256.669C135.345 256.679 135.345 256.679 135.345 256.689V258.134C135.345 258.307 135.202 258.459 135.019 258.459C134.846 258.459 134.693 258.317 134.693 258.134V256.689C134.693 256.679 134.693 256.679 134.693 256.669C134.683 256.333 134.408 256.059 134.062 256.059C133.726 256.059 133.441 256.344 133.441 256.689V258.134C133.441 258.144 133.431 258.164 133.431 258.175C133.431 258.185 133.431 258.195 133.431 258.195C133.421 258.205 133.421 258.215 133.411 258.236C133.411 258.246 133.411 258.256 133.411 258.266C133.36 258.378 133.238 258.459 133.105 258.459C133.085 258.459 133.065 258.449 133.044 258.449C132.902 258.409 132.78 258.286 132.78 258.134V256.689C132.78 256.679 132.78 256.679 132.78 256.679V255.733C132.78 255.54 132.922 255.408 133.105 255.408C133.238 255.408 133.35 255.479 133.4 255.591C133.594 255.479 133.818 255.408 134.052 255.408C134.439 255.408 134.785 255.57 135.009 255.825C135.233 255.56 135.579 255.408 135.965 255.408C136.668 255.408 137.238 255.977 137.238 256.689V258.134C137.238 258.307 137.095 258.459 136.912 258.459C136.739 258.459 136.586 258.317 136.586 258.134V256.689C136.586 256.344 136.301 256.059 135.965 256.059C135.64 256.049 135.365 256.323 135.345 256.669Z" fill="#A6A6A6"/>
<path d="M141.197 256.933V258.134C141.197 258.307 141.055 258.459 140.871 258.459C140.709 258.459 140.586 258.347 140.556 258.195C140.322 258.358 140.047 258.459 139.742 258.459C139.324 258.459 138.968 258.286 138.703 258.012C138.439 257.727 138.286 257.351 138.286 256.933C138.286 256.516 138.439 256.13 138.703 255.855C138.968 255.57 139.324 255.397 139.742 255.397C140.047 255.397 140.322 255.499 140.556 255.662C140.597 255.509 140.719 255.397 140.871 255.397C141.045 255.397 141.197 255.54 141.197 255.723V256.933ZM140.546 256.933C140.546 256.679 140.454 256.455 140.312 256.303C140.169 256.14 139.955 256.048 139.742 256.048C139.518 256.048 139.314 256.13 139.172 256.303C139.029 256.455 138.938 256.679 138.938 256.933C138.938 257.188 139.019 257.401 139.172 257.564C139.314 257.717 139.518 257.798 139.742 257.798C139.955 257.798 140.159 257.717 140.312 257.564C140.454 257.401 140.546 257.188 140.546 256.933Z" fill="#A6A6A6"/>
<path d="M143.06 254.635C143.06 254.818 142.917 254.97 142.734 254.97C142.551 254.97 142.408 254.818 142.408 254.635V254.502C142.408 254.319 142.551 254.177 142.734 254.177C142.927 254.177 143.06 254.319 143.06 254.502V254.635ZM143.06 255.743V258.124C143.06 258.307 142.917 258.459 142.734 258.459C142.551 258.459 142.408 258.317 142.408 258.124V255.743C142.408 255.55 142.551 255.408 142.734 255.408C142.917 255.408 143.06 255.55 143.06 255.743Z" fill="#A6A6A6"/>
<path d="M144.363 254.177C144.556 254.177 144.709 254.329 144.709 254.512V258.124C144.709 258.307 144.556 258.459 144.363 258.459C144.18 258.459 144.027 258.307 144.027 258.124V254.512C144.027 254.329 144.18 254.177 144.363 254.177Z" fill="#A6A6A6"/>
<path d="M149.93 256.933V258.134C149.93 258.307 149.788 258.459 149.605 258.459C149.442 258.459 149.32 258.347 149.289 258.195C149.055 258.358 148.78 258.459 148.475 258.459C148.057 258.459 147.701 258.286 147.437 258.012C147.172 257.727 147.019 257.351 147.019 256.933C147.019 256.516 147.172 256.13 147.437 255.855C147.701 255.57 148.057 255.397 148.475 255.397C148.78 255.397 149.055 255.499 149.289 255.662C149.33 255.509 149.452 255.397 149.605 255.397C149.778 255.397 149.93 255.54 149.93 255.723V256.933ZM149.279 256.933C149.279 256.679 149.187 256.455 149.045 256.303C148.902 256.14 148.689 256.048 148.475 256.048C148.251 256.048 148.047 256.13 147.905 256.303C147.762 256.455 147.671 256.679 147.671 256.933C147.671 257.188 147.752 257.401 147.905 257.564C148.047 257.717 148.251 257.798 148.475 257.798C148.689 257.798 148.892 257.717 149.045 257.564C149.187 257.401 149.279 257.188 149.279 256.933Z" fill="#A6A6A6"/>
<path d="M153.9 258.124C153.9 258.297 153.758 258.459 153.574 258.459C153.412 258.459 153.279 258.347 153.249 258.195C153.015 258.358 152.719 258.459 152.414 258.459C151.59 258.459 150.928 257.757 150.928 256.933C150.928 256.099 151.59 255.397 152.414 255.397C152.709 255.397 153.004 255.499 153.239 255.652V254.502C153.239 254.329 153.381 254.177 153.574 254.177C153.758 254.177 153.9 254.329 153.9 254.502V256.923C153.9 256.923 153.9 256.923 153.9 256.933V258.124ZM152.414 256.069C152.19 256.069 151.987 256.16 151.834 256.323C151.681 256.476 151.59 256.699 151.59 256.944C151.59 257.178 151.681 257.391 151.834 257.554C151.987 257.717 152.19 257.808 152.414 257.808C152.638 257.808 152.831 257.717 152.984 257.554C153.137 257.401 153.228 257.178 153.228 256.944C153.228 256.699 153.137 256.476 152.984 256.323C152.831 256.16 152.638 256.069 152.414 256.069Z" fill="#A6A6A6"/>
<path d="M157.045 255.723C157.045 255.896 156.903 256.048 156.72 256.048C156.577 256.048 156.455 256.089 156.353 256.16C156.241 256.231 156.15 256.333 156.068 256.455C155.926 256.648 155.844 256.882 155.814 256.964V258.123C155.814 258.296 155.661 258.449 155.478 258.449C155.305 258.449 155.152 258.306 155.152 258.123V255.712C155.152 255.54 155.295 255.397 155.478 255.397C155.661 255.397 155.814 255.54 155.814 255.712V255.753C155.854 255.712 155.895 255.662 155.946 255.631C156.15 255.499 156.414 255.387 156.72 255.397C156.903 255.407 157.045 255.55 157.045 255.723Z" fill="#A6A6A6"/>
<path d="M157.33 256.923C157.341 256.089 157.982 255.397 158.827 255.397C159.621 255.397 160.252 255.987 160.302 256.811C160.302 256.822 160.302 256.832 160.302 256.842C160.302 256.852 160.302 256.883 160.292 256.893C160.272 257.035 160.15 257.137 159.977 257.137H158.033C158.063 257.279 158.134 257.432 158.236 257.544C158.369 257.686 158.613 257.798 158.827 257.818C159.051 257.839 159.305 257.778 159.468 257.666C159.6 257.534 159.844 257.554 159.926 257.646C160.007 257.727 160.068 257.91 159.926 258.042C159.631 258.317 159.264 258.449 158.827 258.449C157.982 258.449 157.33 257.757 157.33 256.923ZM157.992 256.628H159.722C159.661 256.384 159.346 256.018 158.816 255.977C158.297 256.008 158.043 256.374 157.992 256.628Z" fill="#A6A6A6"/>
<path d="M161.117 257.585C161.229 257.442 161.443 257.422 161.575 257.534C161.738 257.666 162.013 257.808 162.247 257.798C162.41 257.798 162.562 257.747 162.664 257.686C162.746 257.615 162.776 257.554 162.776 257.503C162.776 257.473 162.766 257.462 162.756 257.442C162.746 257.422 162.725 257.401 162.674 257.371C162.593 257.31 162.41 257.239 162.186 257.198H162.176C161.982 257.157 161.799 257.117 161.646 257.035C161.483 256.954 161.331 256.842 161.229 256.679C161.158 256.567 161.127 256.435 161.127 256.293C161.127 256.008 161.29 255.774 161.483 255.621C161.697 255.479 161.952 255.397 162.237 255.397C162.664 255.397 162.959 255.601 163.153 255.733C163.295 255.835 163.346 256.028 163.254 256.181C163.153 256.323 162.959 256.374 162.807 256.262C162.613 256.13 162.44 256.038 162.247 256.038C162.094 256.038 161.962 256.089 161.88 256.15C161.799 256.201 161.779 256.262 161.779 256.293C161.779 256.313 161.779 256.323 161.789 256.343C161.799 256.354 161.809 256.384 161.86 256.405C161.941 256.455 162.094 256.516 162.308 256.547L162.318 256.557H162.328C162.532 256.598 162.715 256.649 162.898 256.73C163.061 256.801 163.224 256.923 163.336 257.086C163.407 257.208 163.448 257.351 163.448 257.493C163.448 257.788 163.285 258.042 163.061 258.205C162.837 258.358 162.562 258.449 162.267 258.449C161.789 258.439 161.422 258.225 161.178 258.022C161.025 257.92 161.005 257.717 161.117 257.585Z" fill="#A6A6A6"/>
<path d="M164.068 257.585C164.18 257.442 164.394 257.422 164.526 257.534C164.689 257.666 164.964 257.808 165.198 257.798C165.361 257.798 165.514 257.747 165.616 257.686C165.697 257.615 165.727 257.554 165.727 257.503C165.727 257.473 165.717 257.462 165.707 257.442C165.697 257.422 165.677 257.401 165.626 257.371C165.544 257.31 165.361 257.239 165.137 257.198H165.127C164.934 257.157 164.75 257.117 164.598 257.035C164.435 256.954 164.282 256.842 164.18 256.679C164.109 256.567 164.079 256.435 164.079 256.293C164.079 256.008 164.241 255.774 164.435 255.621C164.649 255.479 164.903 255.397 165.188 255.397C165.616 255.397 165.911 255.601 166.104 255.733C166.247 255.835 166.297 256.028 166.206 256.181C166.104 256.323 165.911 256.374 165.758 256.262C165.565 256.13 165.392 256.038 165.198 256.038C165.046 256.038 164.913 256.089 164.832 256.15C164.75 256.201 164.73 256.262 164.73 256.293C164.73 256.313 164.73 256.323 164.74 256.343C164.75 256.354 164.761 256.384 164.811 256.405C164.893 256.455 165.046 256.516 165.259 256.547L165.269 256.557H165.28C165.483 256.598 165.666 256.649 165.85 256.73C166.012 256.801 166.175 256.923 166.287 257.086C166.359 257.208 166.399 257.351 166.399 257.493C166.399 257.788 166.236 258.042 166.012 258.205C165.789 258.358 165.514 258.449 165.219 258.449C164.74 258.439 164.374 258.225 164.129 258.022C163.977 257.92 163.956 257.717 164.068 257.585Z" fill="#A6A6A6"/>
<path opacity="0.2" d="M245.782 262.162H128.596V272.019H245.782V262.162Z" fill="#FFCC00"/>
<path d="M132.21 281.439L130.958 283.158V284.806C130.958 284.999 130.815 285.142 130.622 285.142C130.449 285.142 130.286 284.999 130.286 284.806V283.158L129.044 281.439C128.932 281.297 128.963 281.083 129.115 280.971C129.268 280.859 129.472 280.89 129.584 281.042L130.632 282.477L131.68 281.042C131.792 280.89 132.006 280.859 132.149 280.971C132.281 281.083 132.311 281.286 132.21 281.439Z" fill="#A6A6A6"/>
<path d="M132.464 284.694C132.199 284.43 132.047 284.043 132.047 283.616C132.047 283.199 132.209 282.843 132.464 282.548C132.739 282.263 133.095 282.08 133.512 282.08C133.919 282.08 134.286 282.253 134.53 282.548C134.805 282.843 134.958 283.199 134.958 283.616C134.958 284.043 134.805 284.42 134.53 284.694C134.276 284.979 133.909 285.162 133.512 285.162C133.095 285.162 132.739 284.979 132.464 284.694ZM132.708 283.616C132.708 283.881 132.79 284.094 132.932 284.267C133.085 284.41 133.288 284.491 133.523 284.491C133.736 284.491 133.93 284.41 134.082 284.267C134.235 284.094 134.316 283.881 134.316 283.616C134.316 283.362 134.235 283.148 134.082 282.975C133.93 282.843 133.736 282.741 133.523 282.741C133.288 282.741 133.085 282.843 132.932 282.975C132.79 283.148 132.708 283.372 132.708 283.616Z" fill="#A6A6A6"/>
<path d="M137.126 285.142C136.424 285.142 135.854 284.572 135.854 283.87V282.406C135.854 282.233 135.996 282.08 136.179 282.08C136.362 282.08 136.505 282.233 136.505 282.406V283.87C136.505 284.216 136.78 284.491 137.126 284.491C137.482 284.491 137.767 284.216 137.767 283.87V282.406C137.767 282.233 137.899 282.08 138.083 282.08C138.256 282.08 138.408 282.233 138.408 282.406V283.87C138.408 284.572 137.828 285.142 137.126 285.142Z" fill="#A6A6A6"/>
<path d="M141.543 282.405C141.543 282.578 141.401 282.731 141.218 282.731C141.075 282.731 140.953 282.771 140.851 282.843C140.739 282.914 140.648 283.016 140.566 283.138C140.424 283.331 140.342 283.565 140.312 283.646V284.806C140.312 284.979 140.159 285.132 139.976 285.132C139.803 285.132 139.65 284.989 139.65 284.806V282.395C139.65 282.222 139.793 282.08 139.976 282.08C140.159 282.08 140.312 282.222 140.312 282.395V282.436C140.352 282.395 140.393 282.344 140.444 282.314C140.648 282.181 140.912 282.07 141.218 282.08C141.401 282.09 141.543 282.232 141.543 282.405Z" fill="#A6A6A6"/>
<path d="M146.734 283.352C146.734 283.362 146.734 283.362 146.734 283.372V284.816C146.734 284.989 146.592 285.142 146.409 285.142C146.236 285.142 146.083 285 146.083 284.816V283.372C146.083 283.362 146.083 283.362 146.083 283.352C146.073 283.016 145.798 282.741 145.452 282.741C145.116 282.741 144.831 283.026 144.831 283.372V284.816C144.831 284.827 144.821 284.847 144.821 284.857C144.821 284.867 144.821 284.877 144.821 284.877C144.811 284.888 144.811 284.898 144.801 284.918C144.801 284.928 144.801 284.938 144.801 284.949C144.75 285.061 144.627 285.142 144.495 285.142C144.475 285.142 144.454 285.132 144.434 285.132C144.292 285.091 144.169 284.969 144.169 284.816V283.372C144.169 283.362 144.169 283.362 144.169 283.362V282.416C144.169 282.223 144.312 282.08 144.495 282.08C144.627 282.08 144.739 282.151 144.79 282.263C144.984 282.151 145.208 282.08 145.442 282.08C145.829 282.08 146.175 282.243 146.399 282.507C146.622 282.243 146.969 282.08 147.355 282.08C148.058 282.08 148.628 282.66 148.628 283.362V284.806C148.628 284.979 148.485 285.132 148.302 285.132C148.119 285.132 147.976 284.989 147.976 284.806V283.362C147.976 283.016 147.691 282.731 147.355 282.731C147.019 282.741 146.745 283.016 146.734 283.352Z" fill="#A6A6A6"/>
<path d="M149.778 283.616C149.788 282.782 150.429 282.09 151.274 282.09C152.068 282.09 152.699 282.68 152.75 283.504C152.75 283.514 152.75 283.525 152.75 283.535C152.75 283.545 152.75 283.575 152.74 283.586C152.719 283.728 152.597 283.83 152.424 283.83H150.48C150.511 283.972 150.582 284.125 150.684 284.237C150.816 284.379 151.06 284.491 151.274 284.511C151.498 284.532 151.763 284.471 151.915 284.359C152.048 284.227 152.292 284.247 152.373 284.338C152.455 284.42 152.516 284.603 152.373 284.735C152.078 285.01 151.712 285.142 151.274 285.142C150.439 285.132 149.788 284.45 149.778 283.616ZM150.45 283.311H152.18C152.119 283.067 151.803 282.701 151.274 282.66C150.755 282.69 150.501 283.067 150.45 283.311Z" fill="#A6A6A6"/>
<path d="M153.574 284.267C153.686 284.125 153.9 284.104 154.032 284.216C154.195 284.348 154.47 284.491 154.704 284.481C154.867 284.481 155.02 284.43 155.122 284.369C155.203 284.298 155.234 284.237 155.234 284.186C155.234 284.155 155.223 284.145 155.213 284.125C155.203 284.104 155.183 284.084 155.132 284.053C155.05 283.992 154.867 283.921 154.643 283.881H154.633C154.44 283.84 154.256 283.799 154.104 283.718C153.941 283.636 153.788 283.525 153.676 283.362C153.605 283.25 153.574 283.118 153.574 282.975C153.574 282.69 153.737 282.456 153.931 282.304C154.144 282.161 154.399 282.08 154.684 282.08C155.101 282.08 155.407 282.284 155.6 282.416C155.742 282.518 155.793 282.711 155.702 282.863C155.6 283.006 155.407 283.057 155.244 282.945C155.05 282.812 154.877 282.721 154.684 282.721C154.531 282.721 154.399 282.772 154.317 282.833C154.236 282.884 154.216 282.945 154.216 282.975C154.216 282.996 154.216 283.006 154.226 283.026C154.236 283.036 154.246 283.067 154.297 283.087C154.378 283.138 154.531 283.199 154.745 283.23L154.755 283.24H154.765C154.969 283.28 155.152 283.331 155.335 283.413C155.498 283.484 155.661 283.606 155.773 283.779C155.844 283.901 155.885 284.043 155.885 284.186C155.885 284.481 155.722 284.735 155.498 284.898C155.274 285.05 154.999 285.142 154.704 285.142C154.226 285.132 153.859 284.918 153.615 284.715C153.483 284.613 153.462 284.399 153.574 284.267Z" fill="#A6A6A6"/>
<path d="M156.516 284.267C156.628 284.125 156.842 284.104 156.974 284.216C157.137 284.348 157.412 284.491 157.646 284.481C157.809 284.481 157.961 284.43 158.063 284.369C158.145 284.298 158.175 284.237 158.175 284.186C158.175 284.155 158.165 284.145 158.155 284.125C158.145 284.104 158.124 284.084 158.073 284.053C157.992 283.992 157.809 283.921 157.585 283.881H157.575C157.381 283.84 157.198 283.799 157.045 283.718C156.883 283.636 156.73 283.525 156.628 283.362C156.557 283.25 156.526 283.118 156.526 282.975C156.526 282.69 156.689 282.456 156.883 282.304C157.096 282.161 157.351 282.08 157.636 282.08C158.053 282.08 158.358 282.284 158.552 282.416C158.694 282.518 158.745 282.711 158.654 282.863C158.552 283.006 158.358 283.057 158.206 282.945C158.012 282.812 157.839 282.721 157.646 282.721C157.493 282.721 157.361 282.772 157.28 282.833C157.198 282.884 157.178 282.945 157.178 282.975C157.178 282.996 157.178 283.006 157.188 283.026C157.198 283.036 157.208 283.067 157.259 283.087C157.341 283.138 157.493 283.199 157.707 283.23L157.717 283.24H157.727C157.931 283.28 158.114 283.331 158.297 283.413C158.46 283.484 158.623 283.606 158.735 283.779C158.806 283.901 158.847 284.043 158.847 284.186C158.847 284.481 158.684 284.735 158.46 284.898C158.236 285.05 157.961 285.142 157.666 285.142C157.188 285.132 156.821 284.918 156.577 284.715C156.425 284.613 156.404 284.399 156.516 284.267Z" fill="#A6A6A6"/>
<path d="M162.267 283.616V284.816C162.267 284.989 162.125 285.142 161.941 285.142C161.778 285.142 161.656 285.03 161.626 284.877C161.392 285.04 161.117 285.142 160.811 285.142C160.394 285.142 160.038 284.969 159.773 284.694C159.509 284.41 159.356 284.033 159.356 283.616C159.356 283.199 159.509 282.812 159.773 282.538C160.038 282.253 160.394 282.08 160.811 282.08C161.117 282.08 161.392 282.182 161.626 282.345C161.666 282.192 161.789 282.08 161.941 282.08C162.114 282.08 162.267 282.223 162.267 282.416V283.616ZM161.616 283.616C161.616 283.362 161.524 283.138 161.381 282.985C161.239 282.823 161.025 282.731 160.811 282.731C160.588 282.731 160.384 282.812 160.241 282.985C160.099 283.138 160.007 283.362 160.007 283.616C160.007 283.87 160.089 284.084 160.241 284.247C160.384 284.399 160.588 284.491 160.811 284.491C161.025 284.491 161.239 284.41 161.381 284.247C161.524 284.094 161.616 283.87 161.616 283.616Z" fill="#A6A6A6"/>
<path d="M166.409 283.636V284.776C166.409 285.579 165.758 286.241 164.944 286.241C164.72 286.241 164.486 286.19 164.302 286.088C164.14 286.017 164.068 285.813 164.16 285.651C164.241 285.488 164.425 285.427 164.598 285.498C164.699 285.549 164.822 285.579 164.944 285.579C165.341 285.579 165.666 285.295 165.748 284.928C165.524 285.081 165.249 285.172 164.944 285.172C164.537 285.172 164.17 285 163.906 284.705C163.641 284.44 163.478 284.054 163.478 283.626C163.478 283.209 163.641 282.823 163.906 282.538C164.17 282.263 164.547 282.08 164.944 282.08C165.259 282.08 165.544 282.182 165.768 282.334C165.799 282.192 165.931 282.08 166.094 282.08C166.277 282.08 166.42 282.222 166.42 282.406V283.636H166.409ZM165.758 283.626C165.758 283.382 165.656 283.148 165.524 283.006C165.361 282.833 165.178 282.741 164.944 282.741C164.73 282.741 164.526 282.833 164.384 283.006C164.241 283.148 164.14 283.382 164.14 283.626C164.14 283.881 164.241 284.115 164.384 284.257C164.526 284.42 164.73 284.511 164.944 284.511C165.178 284.511 165.371 284.43 165.524 284.257C165.656 284.115 165.758 283.881 165.758 283.626Z" fill="#A6A6A6"/>
<path d="M167.499 283.616C167.509 282.782 168.15 282.09 168.995 282.09C169.789 282.09 170.42 282.68 170.471 283.504C170.471 283.514 170.471 283.525 170.471 283.535C170.471 283.545 170.471 283.575 170.461 283.586C170.44 283.728 170.318 283.83 170.145 283.83H168.201C168.232 283.972 168.303 284.125 168.405 284.237C168.537 284.379 168.781 284.491 168.995 284.511C169.219 284.532 169.484 284.471 169.636 284.359C169.769 284.227 170.013 284.247 170.094 284.338C170.176 284.42 170.237 284.603 170.094 284.735C169.799 285.01 169.433 285.142 168.995 285.142C168.15 285.132 167.499 284.45 167.499 283.616ZM168.16 283.311H169.891C169.83 283.067 169.514 282.701 168.985 282.66C168.466 282.69 168.211 283.067 168.16 283.311Z" fill="#A6A6A6"/>
<path opacity="0.2" d="M245.782 288.854H128.596V339.157H245.782V288.854Z" fill="#FFCC00"/>
<path d="M188.772 167.427C187.663 165.739 187.042 163.847 187.042 161.843C187.042 154.763 194.818 149.025 204.406 149.025C213.995 149.025 221.771 154.763 221.771 161.843C221.771 168.923 213.995 174.66 204.406 174.66C199.755 174.66 195.541 173.317 192.426 171.11L186.441 172.625L188.772 167.427Z" fill="#FFCC00"/>
<path d="M193.749 147.978C195.134 145.872 195.907 143.512 195.907 141.01C195.907 132.18 186.207 125.029 174.257 125.029C162.297 125.029 152.607 132.19 152.607 141.01C152.607 149.839 162.297 156.99 174.257 156.99C180.059 156.99 185.311 155.312 189.189 152.565L196.65 154.457L193.749 147.978Z" fill="white"/>
<path d="M193.749 147.978C195.012 146.014 195.775 143.715 195.816 141.386C195.836 139.056 195.215 136.737 193.994 134.774C191.561 130.807 187.439 128.101 183.042 126.707C178.624 125.283 173.871 125.019 169.311 125.812C164.761 126.575 160.353 128.579 157.086 131.814C155.468 133.431 154.185 135.394 153.513 137.561C152.842 139.718 152.77 142.088 153.422 144.265C154.053 146.452 155.315 148.435 156.903 150.073C158.501 151.721 160.425 153.043 162.491 154.061C164.557 155.098 166.796 155.77 169.066 156.197C171.336 156.614 173.667 156.807 175.988 156.665C180.609 156.431 185.23 155.058 189.067 152.433L189.139 152.382L189.21 152.403L196.65 154.386L196.549 154.498L193.749 147.978ZM193.749 147.978L196.722 154.437L196.793 154.59L196.62 154.549L189.139 152.738L189.281 152.708C185.423 155.464 180.731 156.899 176.028 157.204C171.326 157.489 166.491 156.736 162.206 154.661C160.079 153.623 158.073 152.26 156.404 150.551C154.735 148.852 153.401 146.767 152.719 144.458C152.017 142.149 152.068 139.626 152.791 137.327C153.513 135.018 154.877 132.963 156.567 131.285C158.257 129.596 160.272 128.264 162.42 127.246C164.567 126.219 166.858 125.527 169.188 125.141C171.519 124.754 173.901 124.612 176.263 124.785C178.624 124.978 180.955 125.436 183.204 126.188C185.444 126.941 187.591 127.999 189.495 129.403C191.398 130.796 193.088 132.536 194.258 134.601C195.459 136.646 196.029 139.036 195.958 141.386C195.887 143.756 195.052 146.045 193.749 147.978Z" fill="#DBDBDB"/>
<path d="M217.354 368.85H157.015V387.13H217.354V368.85Z" fill="#FFCC00"/>
<path d="M173.006 379.826C173.23 379.561 173.627 379.521 173.901 379.744C174.441 380.182 175.367 380.701 176.232 380.68C176.843 380.68 177.393 380.497 177.759 380.233C178.126 379.968 178.288 379.663 178.288 379.358C178.288 379.195 178.248 379.093 178.176 378.971C178.105 378.849 177.993 378.727 177.81 378.605C177.454 378.371 176.853 378.168 176.141 378.035H176.12C175.55 377.923 175.011 377.781 174.543 377.557C174.075 377.333 173.678 377.028 173.403 376.611C173.22 376.316 173.118 375.981 173.118 375.614C173.118 374.882 173.535 374.251 174.095 373.834C174.665 373.417 175.418 373.183 176.212 373.183C177.383 373.183 178.248 373.753 178.869 374.16C179.154 374.353 179.235 374.75 179.042 375.024C178.858 375.319 178.472 375.401 178.176 375.207C177.556 374.79 176.955 374.424 176.212 374.424C175.662 374.424 175.174 374.597 174.848 374.841C174.522 375.085 174.38 375.35 174.38 375.604C174.38 375.747 174.4 375.848 174.461 375.95C174.522 376.052 174.634 376.153 174.787 376.265C175.103 376.489 175.652 376.682 176.314 376.805H176.334C176.955 376.927 177.535 377.089 178.014 377.313C178.512 377.557 178.95 377.873 179.235 378.33C179.418 378.625 179.53 378.992 179.53 379.368C179.53 380.151 179.093 380.823 178.482 381.26C177.881 381.697 177.087 381.952 176.222 381.952C174.899 381.942 173.79 381.28 173.097 380.731C172.843 380.497 172.802 380.1 173.006 379.826Z" fill="white"/>
<path d="M180.863 378.9C180.873 377.242 182.166 375.849 183.846 375.849C185.433 375.849 186.685 377.029 186.787 378.677C186.787 378.687 186.787 378.717 186.787 378.738C186.787 378.758 186.787 378.819 186.777 378.849C186.736 379.144 186.482 379.338 186.146 379.338H182.268C182.329 379.623 182.461 379.938 182.685 380.141C182.94 380.436 183.428 380.65 183.856 380.691C184.293 380.731 184.823 380.619 185.128 380.385C185.383 380.121 185.881 380.152 186.044 380.345C186.207 380.518 186.329 380.884 186.044 381.138C185.444 381.688 184.731 381.942 183.856 381.942C182.166 381.942 180.873 380.558 180.863 378.9ZM182.197 378.31H185.647C185.525 377.822 184.904 377.1 183.835 377.018C182.807 377.059 182.288 377.802 182.197 378.31Z" fill="white"/>
<path d="M193.821 378.392V381.311C193.821 381.667 193.536 381.962 193.19 381.962C192.844 381.962 192.538 381.667 192.538 381.311V378.392C192.538 377.71 191.968 377.161 191.266 377.161C190.584 377.161 190.045 377.71 190.045 378.392V381.311C190.045 381.352 190.045 381.382 190.024 381.433C189.963 381.728 189.699 381.962 189.373 381.962C189.006 381.962 188.721 381.667 188.721 381.311V378.392V376.5C188.721 376.144 189.006 375.849 189.373 375.849C189.627 375.849 189.861 375.991 189.973 376.225C190.34 375.991 190.788 375.849 191.266 375.849C192.681 375.849 193.821 377.008 193.821 378.392Z" fill="white"/>
<path d="M201.506 381.291C201.506 381.647 201.211 381.952 200.844 381.952C200.518 381.952 200.254 381.718 200.193 381.423C199.724 381.738 199.144 381.952 198.534 381.952C196.885 381.952 195.572 380.558 195.572 378.91C195.572 377.242 196.885 375.849 198.534 375.849C199.134 375.849 199.714 376.042 200.172 376.357V374.068C200.172 373.712 200.467 373.407 200.844 373.407C201.211 373.407 201.506 373.712 201.506 374.068V378.9C201.506 378.9 201.506 378.9 201.506 378.91V381.291ZM198.534 377.181C198.096 377.181 197.689 377.364 197.383 377.68C197.078 377.985 196.895 378.422 196.895 378.91C196.895 379.378 197.078 379.816 197.383 380.121C197.689 380.436 198.096 380.619 198.534 380.619C198.981 380.619 199.378 380.436 199.684 380.121C199.989 379.816 200.172 379.378 200.172 378.91C200.172 378.422 199.989 377.985 199.684 377.68C199.378 377.364 198.992 377.181 198.534 377.181Z" fill="white"/>
<path d="M299.281 438.705C297.336 437.311 259.319 384.771 259.136 381.851C259.055 380.753 266.394 374.771 275.463 367.803C277.417 366.288 304.258 335.526 304.258 335.526L329.124 369.685L300.075 401.596C300.075 401.596 305.622 428.217 305.479 431.442C305.337 434.646 301.225 440.088 299.281 438.705Z" fill="#AD6359"/>
<path d="M299.27 438.705C297.336 437.311 259.319 384.771 259.136 381.851C259.055 380.743 266.394 374.771 275.463 367.803C276.145 367.274 279.88 363.144 284.461 358.007L309.062 391.729L300.075 401.596C300.075 401.596 305.612 428.217 305.469 431.431C305.337 434.646 301.225 440.088 299.27 438.705Z" fill="#EBEBEB"/>
<path d="M299.321 438.918C297.367 437.514 259.136 384.689 258.953 381.749C258.882 380.661 266.078 375.056 274.496 367.62C276.532 365.83 278.333 363.52 280.613 361.812L305.581 396.113L300.115 401.606C300.115 401.606 305.703 428.38 305.551 431.614C305.408 434.839 301.276 440.312 299.321 438.918Z" fill="#A8D29F"/>
<path d="M300.889 436.629C294.7 427.616 268.877 391.84 262.068 383.407C262.017 383.336 261.966 383.377 262.017 383.448C267.961 392.512 294.069 428.074 300.746 436.741C300.889 436.914 301.021 436.822 300.889 436.629Z" fill="#263238"/>
<path d="M302.995 401.423C301.122 397.466 297.509 393.59 293.091 392.725C292.918 392.695 292.878 392.939 292.99 393.02C296.562 395.675 299.585 398.381 302.537 401.728C302.751 401.962 303.127 401.707 302.995 401.423Z" fill="#263238"/>
<path d="M303.291 405.034C301.418 401.077 297.804 397.201 293.387 396.337C293.214 396.306 293.173 396.55 293.285 396.632C296.858 399.287 299.881 401.992 302.833 405.339C303.057 405.573 303.433 405.319 303.291 405.034Z" fill="#263238"/>
<path d="M303.596 408.645C301.723 404.688 298.11 400.813 293.692 399.948C293.519 399.917 293.478 400.162 293.59 400.243C297.163 402.898 300.186 405.604 303.138 408.95C303.352 409.195 303.728 408.93 303.596 408.645Z" fill="#263238"/>
<path d="M303.901 412.266C302.029 408.309 298.415 404.434 293.998 403.569C293.825 403.539 293.784 403.783 293.896 403.864C297.469 406.519 300.492 409.225 303.443 412.572C303.657 412.806 304.034 412.541 303.901 412.266Z" fill="#263238"/>
<path d="M315.719 402.034C316.615 399.297 313.917 397.364 311.647 396.795C307.963 395.869 303.372 396.042 299.779 397.202C299.688 397.232 299.677 397.314 299.708 397.375C299.453 397.578 299.341 398.015 299.667 398.239C302.812 400.345 305.917 402.99 309.622 404.068C311.78 404.689 314.864 404.617 315.719 402.034ZM305.092 400.457C303.515 399.46 302.008 398.392 300.39 397.446C302.711 397.375 305.011 397.202 307.332 397.364C308.441 397.446 309.581 397.537 310.66 397.771C312.35 398.127 317.337 400.782 313.062 402.929C310.711 404.109 306.965 401.647 305.092 400.457Z" fill="#263238"/>
<path d="M294.273 387.68C295.128 391.434 297.581 394.699 299.494 397.964C299.698 398.3 300.135 398.219 300.359 397.974C300.42 398.005 300.502 398.005 300.532 397.924C301.907 394.404 302.354 389.836 301.652 386.103C301.214 383.794 299.443 380.997 296.665 381.719C294.028 382.411 293.774 385.493 294.273 387.68ZM295.616 384.313C298.018 380.183 300.37 385.31 300.624 387.019C300.787 388.117 300.817 389.257 300.828 390.365C300.848 392.695 300.532 394.974 300.319 397.283C299.474 395.614 298.497 394.048 297.601 392.41C296.522 390.477 294.293 386.591 295.616 384.313Z" fill="#263238"/>
<path d="M324.168 305.111C321.817 316.738 283.23 353.277 283.23 353.277L316.88 392.095C316.88 392.095 375.723 333.583 372.15 307.898C369.035 285.56 335.568 195.707 335.568 195.707H296.95C296.95 195.707 326.489 293.677 324.168 305.111Z" fill="#263238"/>
<path d="M324.168 305.111C321.817 316.738 283.23 353.277 283.23 353.277L316.88 392.095C316.88 392.095 375.723 333.583 372.15 307.898C369.035 285.56 335.568 195.707 335.568 195.707H296.95C296.95 195.707 326.489 293.677 324.168 305.111Z" fill="#37474F"/>
<path d="M320.707 382.858C316.238 377.294 317.602 378.83 313.062 373.317C310.843 370.621 296.247 352.911 293.743 350.754C293.693 350.703 293.591 350.785 293.631 350.846C295.311 353.694 310.212 371.15 312.482 373.805C317.124 379.227 315.851 377.619 320.544 382.99C320.635 383.102 320.788 382.97 320.707 382.858Z" fill="#263238"/>
<path d="M328.962 299.445C328.412 296.546 327.781 293.657 327.17 290.758C325.918 284.858 324.585 278.968 323.18 273.099C320.401 261.462 317.389 249.886 314.111 238.37C310.823 226.825 307.342 215.289 303.332 203.968C302.833 202.564 302.324 201.17 301.815 199.777C301.775 199.675 301.612 199.716 301.642 199.827C305.113 211.17 308.686 222.481 311.943 233.895C315.18 245.257 318.182 256.681 321.012 268.155C322.427 273.913 323.75 279.701 325.043 285.489C325.674 288.337 326.295 291.185 326.906 294.034C327.516 296.923 328.341 299.883 328.524 302.843C328.697 305.752 327.75 308.326 326.254 310.777C324.809 313.148 323.099 315.375 321.46 317.603C318.162 322.079 296.41 347.225 295.393 348.181C295.311 348.252 295.433 348.364 295.515 348.293C299.729 344.509 316.727 325.507 320.106 321.041C321.786 318.834 323.414 316.596 325.012 314.328C326.509 312.212 328.015 310.055 328.85 307.573C329.745 304.908 329.481 302.161 328.962 299.445Z" fill="#263238"/>
<path d="M328.88 195.707L321.867 287.655C315.18 256.182 296.95 195.707 296.95 195.707H328.88Z" fill="#263238"/>
<path d="M396.894 448.398C394.624 449.151 329.746 448.886 327.272 447.309C326.336 446.719 325.827 437.269 325.532 425.846C325.461 423.374 316.402 383.58 316.402 383.58L358.673 383.63L367.356 425.886C367.356 425.886 392.151 437.096 394.665 439.111C397.179 441.114 399.154 447.645 396.894 448.398Z" fill="#AD6359"/>
<path d="M396.884 448.398C394.614 449.141 329.736 448.887 327.273 447.3C326.326 446.71 325.817 437.27 325.532 425.836C325.502 424.971 324.372 419.519 322.916 412.805H364.679L367.366 425.877C367.366 425.877 392.151 437.087 394.675 439.101C397.169 441.115 399.154 447.646 396.884 448.398Z" fill="#EBEBEB"/>
<path d="M397.088 448.489C394.808 449.242 329.563 448.987 327.079 447.4C326.153 446.81 325.868 437.696 324.82 426.527C324.565 423.831 323.771 421.013 323.72 418.165L366.165 418.206L367.387 425.855C367.387 425.855 392.324 437.116 394.859 439.151C397.383 441.175 399.368 447.736 397.088 448.489Z" fill="#A8D29F"/>
<path d="M397.088 448.489C394.808 449.242 329.563 448.987 327.079 447.4C326.153 446.81 325.868 437.696 324.82 426.527C324.565 423.831 323.771 421.013 323.72 418.165L366.165 418.206L367.387 425.855C367.387 425.855 392.324 437.116 394.859 439.151C397.383 441.175 399.368 447.736 397.088 448.489Z" fill="#A8D29F"/>
<path d="M396.161 445.874C385.229 445.559 341.095 445.335 330.254 445.864C330.163 445.864 330.163 445.925 330.254 445.935C341.085 446.485 385.219 446.353 396.161 446.058C396.395 446.047 396.395 445.885 396.161 445.874Z" fill="#263238"/>
<path d="M368.933 423.434C364.627 422.61 359.365 423.251 356.067 426.303C355.935 426.425 356.108 426.598 356.25 426.557C360.505 425.234 364.475 424.39 368.913 423.973C369.228 423.953 369.248 423.495 368.933 423.434Z" fill="#263238"/>
<path d="M372.038 425.316C367.742 424.492 362.47 425.133 359.172 428.185C359.04 428.307 359.213 428.48 359.355 428.439C363.61 427.117 367.58 426.273 372.017 425.855C372.333 425.835 372.343 425.377 372.038 425.316Z" fill="#263238"/>
<path d="M375.132 427.198C370.837 426.374 365.564 427.015 362.266 430.066C362.134 430.188 362.307 430.361 362.449 430.321C366.704 428.998 370.674 428.154 375.112 427.737C375.427 427.716 375.437 427.259 375.132 427.198Z" fill="#263238"/>
<path d="M378.236 429.09C373.941 428.266 368.668 428.907 365.37 431.959C365.238 432.081 365.411 432.254 365.554 432.213C369.808 430.891 373.778 430.046 378.216 429.629C378.531 429.599 378.542 429.141 378.236 429.09Z" fill="#263238"/>
<path d="M376.924 413.516C375.244 411.186 372.089 412.214 370.287 413.719C367.366 416.15 364.811 419.955 363.62 423.546C363.59 423.637 363.651 423.688 363.722 423.698C363.732 424.024 364.028 424.369 364.394 424.237C367.956 422.935 371.916 421.989 374.97 419.629C376.751 418.266 378.512 415.733 376.924 413.516ZM369.381 421.165C367.651 421.847 365.89 422.437 364.18 423.19C365.483 421.277 366.704 419.314 368.201 417.534C368.913 416.679 369.666 415.825 370.491 415.082C371.773 413.922 376.853 411.461 376.079 416.181C375.651 418.785 371.458 420.351 369.381 421.165Z" fill="#263238"/>
<path d="M352.689 422.386C356.231 423.912 360.312 423.851 364.079 424.227C364.465 424.268 364.669 423.861 364.598 423.535C364.659 423.505 364.71 423.434 364.659 423.362C362.623 420.178 359.193 417.127 355.763 415.489C353.645 414.482 350.337 414.258 349.279 416.933C348.281 419.466 350.622 421.491 352.689 422.386ZM350.755 419.304C348.831 414.929 354.368 416.048 355.895 416.862C356.882 417.381 357.819 418.022 358.725 418.673C360.618 420.026 362.277 421.623 364.017 423.159C362.175 422.854 360.323 422.721 358.48 422.487C356.272 422.203 351.813 421.725 350.755 419.304Z" fill="#263238"/>
<path d="M335.14 195.706C335.099 196.52 332.941 203.905 331.822 214.963C331.018 223.04 330.01 230.181 328.931 231.076C327.71 232.083 321.613 235.999 319.557 237.25C319.557 237.25 338.58 294.897 343.497 314.103C350.612 341.955 365.208 409.764 365.208 409.764L319.781 409.753C319.781 409.753 308.421 345.962 302.385 319.443C297.204 296.708 277.376 228.502 277.376 228.502C270.16 210.772 278.985 195.706 278.985 195.706C278.985 195.706 335.14 195.676 335.14 195.706Z" fill="#37474F"/>
<path d="M360.699 400.965C354.042 400.924 355.956 400.833 349.299 400.863C346.042 400.883 324.647 401.016 321.613 401.595C321.542 401.606 321.552 401.728 321.613 401.738C324.667 402.226 346.052 401.697 349.309 401.616C355.956 401.443 354.053 401.412 360.699 401.168C360.832 401.168 360.832 400.965 360.699 400.965Z" fill="#263238"/>
<path d="M332.148 228.797C327.721 231.127 323.558 234.117 319.619 237.179C319.466 237.301 319.619 237.545 319.792 237.433C324.036 234.778 328.393 232.185 332.484 229.296C332.8 229.072 332.484 228.614 332.148 228.797Z" fill="#263238"/>
<path d="M328.678 197.436C328.637 197.283 328.362 197.294 328.382 197.456C329.258 202.848 329.655 207.649 329.98 212.766C330.133 215.136 330.255 228.38 326.051 228.065C325.349 228.014 324.891 227.394 324.626 226.387C324.311 225.176 324.535 223.589 324.545 222.328C324.576 219.551 324.514 216.774 324.321 213.997C323.965 208.819 323.191 203.702 321.776 198.708C321.726 198.545 321.491 198.596 321.512 198.758C322.621 205.828 323.527 212.918 323.558 220.09C323.568 223.538 322.662 228.869 326.265 228.838C329.94 228.808 330.937 219.958 331.019 217.567C331.253 210.914 330.215 203.916 328.678 197.436Z" fill="#263238"/>
<path d="M326.215 228.4C325.98 229.326 325.828 230.282 325.716 231.228C325.634 231.961 325.482 232.764 325.675 233.497C325.716 233.639 325.909 233.619 325.97 233.517C326.357 232.836 326.428 231.981 326.581 231.228C326.764 230.353 326.958 229.479 327.12 228.594C327.222 227.994 326.357 227.831 326.215 228.4Z" fill="#263238"/>
<path d="M315.71 385.187C315.578 383.905 315.415 382.634 315.242 381.362C314.916 378.911 311.211 359.064 309.257 349.39C308.147 343.928 306.865 338.516 305.511 333.115C305.419 332.738 304.921 332.921 304.982 333.288C305.806 338.231 306.6 343.175 307.537 348.099C308.473 353.002 313.735 378.3 314.234 381.047C314.478 382.42 314.743 383.783 315.008 385.146C315.283 386.509 315.669 387.842 315.883 389.215C315.903 389.347 316.087 389.286 316.066 389.154C315.873 387.852 315.853 386.509 315.71 385.187Z" fill="#263238"/>
<path d="M348.272 331.365C346.755 323.827 344.719 316.402 342.673 308.996C338.541 294.104 333.686 279.415 328.841 264.746C327.446 260.515 326.052 256.293 324.647 252.061C323.945 249.946 320.525 238.552 320.097 237.464C320.057 237.352 319.894 237.403 319.924 237.515C320.901 241.401 322.255 247.057 323.385 250.902C324.505 254.706 325.726 258.47 326.907 262.254C329.227 269.69 331.589 277.106 333.838 284.562C338.286 299.292 342.714 314.021 346.328 328.985C347.335 333.176 348.353 337.357 349.269 341.568C350.195 345.769 350.979 350.001 351.865 354.212C351.885 354.324 352.078 354.294 352.068 354.182C351.315 346.512 349.788 338.923 348.272 331.365Z" fill="#263238"/>
<path d="M320.036 370.763C317.532 356.389 314.539 342.097 311.221 327.896C307.883 313.624 304.178 299.444 300.086 285.366C295.994 271.297 291.465 257.341 286.589 243.517C284.278 236.966 281.937 230.404 280.421 223.609C278.924 216.895 278.161 209.632 279.729 202.868C280.126 201.149 280.624 199.47 281.286 197.822C281.327 197.71 281.164 197.609 281.113 197.731C275.647 210.456 279.199 224.362 283.352 236.904C285.632 243.771 288.065 250.597 290.314 257.473C292.625 264.533 294.834 271.633 296.951 278.754C301.144 292.873 305.033 307.073 308.524 321.386C312.005 335.688 315.12 350.092 317.847 364.557C320.586 379.073 320.443 377.883 322.774 392.47C323.079 394.373 323.313 396.275 323.568 398.177C323.578 398.279 323.751 398.279 323.731 398.177C321.98 383.743 322.53 385.116 320.036 370.763Z" fill="#263238"/>
<path d="M363.468 88.5819L359.213 116.546C358.999 117.37 359.467 117.99 360.251 117.909L374.348 116.556C375.132 116.485 375.946 115.742 376.16 114.918L380.415 86.9544C380.629 86.1202 380.16 85.5099 379.377 85.5913L365.279 86.9442C364.496 87.0154 363.681 87.7478 363.468 88.5819Z" fill="#455A64"/>
<path d="M365.137 88.4086L360.882 116.372C360.669 117.207 361.137 117.817 361.921 117.736L376.018 116.383C376.802 116.311 377.616 115.569 377.83 114.745L382.084 86.781C382.298 85.9469 381.83 85.3365 381.046 85.4179L366.949 86.7708C366.165 86.8421 365.351 87.5745 365.137 88.4086Z" fill="#37474F"/>
<path d="M369.127 89.2837C369.178 89.9449 368.679 90.5248 368.017 90.5756C367.356 90.6265 366.776 90.128 366.725 89.4668C366.674 88.8056 367.173 88.2258 367.834 88.175C368.496 88.1241 369.076 88.6225 369.127 89.2837Z" fill="#263238"/>
<path d="M323.964 133.717C333.431 150.013 355.895 171.965 363.315 171.415C366.847 171.151 373.219 171.446 377.504 166.99C386.838 157.266 393.81 139.617 394.685 129.78C395.001 126.281 377.585 120.279 375.356 123.3C370.135 130.37 364.516 143.848 363.488 143.858C359.671 143.899 342.052 132.862 330.794 126.077C316.666 117.583 320.198 127.227 323.964 133.717Z" fill="#AD6359"/>
<path d="M393.556 111.958C391.174 105.122 389.505 103.728 390.563 96.8926C391.256 92.4066 388.68 90.0364 385.871 93.8307C381.281 100.046 382.502 109.506 383.866 112.67L393.556 111.958Z" fill="#AD6359"/>
<path d="M394.136 132.862C394.136 132.862 396.405 122.842 394.594 115.304C393.332 110.096 389.331 99.0591 374.013 94.3798C370.379 93.271 364.414 94.2679 369.697 98.2351C373.443 101.053 376.669 101.704 378.552 103.738C378.552 103.738 371.122 105.905 370.145 109.588C369.707 111.235 368.638 115.752 368.302 119.383C368.302 119.383 369.076 119.668 370.104 119.892C370.104 119.892 369.524 123.412 372.445 127.989L394.136 132.862Z" fill="#AD6359"/>
<path d="M392.588 110.523C390.298 108.896 385.372 105.539 380.394 104.186C374.857 102.68 363.793 101.287 362.724 105.376C361.941 108.377 366.124 109.282 366.124 109.282C366.124 109.282 361.432 109.669 361.32 112.537C361.218 115.152 364.495 115.66 364.495 115.66C364.495 115.66 361.686 116.382 362.073 118.915C362.541 121.967 368.343 119.953 371.488 122.628C372.18 123.239 392.588 110.523 392.588 110.523Z" fill="#AD6359"/>
<path d="M379.784 110.3C377.372 109.13 371.224 107.858 366.206 109.211C366.094 109.242 366.053 109.344 366.165 109.333C371.997 109.018 377.473 109.862 379.774 110.351C379.794 110.351 379.804 110.31 379.784 110.3Z" fill="#263238"/>
<path d="M378.104 115.833C375.926 115.03 369.524 114.012 364.485 115.548C364.373 115.579 364.343 115.691 364.455 115.681C370.542 115.101 375.773 115.528 378.094 115.884C378.125 115.894 378.135 115.843 378.104 115.833Z" fill="#263238"/>
<path d="M349.493 135.649L339.07 158.211C339.07 158.211 322.397 136.544 319.293 128.793C315.802 120.065 321.033 120.187 329.278 123.636C337.523 127.094 349.493 135.649 349.493 135.649Z" fill="#A8D29F"/>
<path opacity="0.1" d="M349.493 135.649L339.07 158.211C339.07 158.211 322.397 136.544 319.293 128.793C315.802 120.065 321.033 120.187 329.278 123.636C337.523 127.094 349.493 135.649 349.493 135.649Z" fill="black"/>
<path d="M345.045 134.561C343.325 137.256 339.315 146.056 338.643 147.5C338.287 148.263 336.994 151.376 336.627 152.128C336.577 152.23 336.739 152.281 336.79 152.179C337.482 150.735 338.327 149.351 339.03 147.907C339.752 146.432 344.139 137.653 345.157 134.612C345.178 134.551 345.086 134.5 345.045 134.561Z" fill="#263238"/>
<path d="M274.507 206.449C274.507 206.439 342.062 208.758 342.062 208.758C342.011 210.08 340.098 155.75 323.649 123.269C322.529 121.052 311.994 118.356 307.16 122.506C286.008 140.705 274.476 207.303 274.507 206.449Z" fill="#A8D29F"/>
<path opacity="0.1" d="M305.999 123.564L324.158 124.337C324.219 124.429 324.27 124.53 324.311 124.632L305.704 123.839C305.796 123.747 305.898 123.656 305.999 123.564ZM300.971 129.505L326.967 130.593C326.937 130.491 326.896 130.4 326.845 130.308L301.164 129.21C301.103 129.311 301.032 129.413 300.971 129.505ZM297.347 135.201L329.227 136.544C329.196 136.442 329.166 136.351 329.125 136.259L297.5 134.916C297.439 135.018 297.388 135.11 297.347 135.201ZM294.314 140.928L331.181 142.495C331.151 142.393 331.12 142.291 331.09 142.19L294.447 140.643C294.406 140.735 294.355 140.837 294.314 140.928ZM291.688 146.665L332.891 148.415C332.871 148.313 332.84 148.222 332.81 148.12L291.8 146.381C291.77 146.482 291.729 146.574 291.688 146.665ZM289.337 152.433L334.398 154.335C334.377 154.234 334.347 154.142 334.326 154.04L289.439 152.138C289.408 152.23 289.367 152.342 289.337 152.433ZM287.21 158.191L335.731 160.246C335.711 160.144 335.69 160.052 335.67 159.951L287.311 157.896C287.281 157.987 287.25 158.089 287.21 158.191ZM285.245 163.958L336.912 166.145C336.891 166.044 336.871 165.952 336.851 165.85L285.347 163.663C285.316 163.775 285.286 163.867 285.245 163.958ZM283.464 169.736L337.96 172.045C337.95 171.944 337.93 171.852 337.909 171.75L283.545 169.452C283.515 169.553 283.484 169.645 283.464 169.736ZM281.774 175.504L338.897 177.925C338.876 177.823 338.866 177.742 338.846 177.64L281.856 175.229C281.835 175.321 281.805 175.413 281.774 175.504ZM280.217 181.292L339.701 183.815C339.701 183.713 339.68 183.632 339.67 183.53L280.288 181.017C280.268 181.109 280.237 181.201 280.217 181.292ZM278.751 187.09L340.413 189.705C340.413 189.613 340.403 189.511 340.383 189.42L278.822 186.816C278.802 186.897 278.782 186.989 278.751 187.09ZM277.387 192.889L341.034 195.574L341.004 195.299L277.448 192.604C277.428 192.695 277.408 192.797 277.387 192.889ZM276.095 198.687L341.543 201.454C341.533 201.352 341.523 201.26 341.523 201.159L276.156 198.392C276.135 198.494 276.115 198.595 276.095 198.687ZM274.914 204.485L341.96 207.313C341.95 207.221 341.95 207.12 341.94 207.028L274.965 204.2C274.944 204.292 274.924 204.394 274.914 204.485Z" fill="black"/>
<path d="M322.132 131.315C318.936 132.18 312.106 128.62 309.663 124.103C309.5 123.788 309.989 120.543 310.396 116.555C310.63 114.134 310.844 111.439 310.854 108.967C310.854 108.458 326.376 112.812 326.376 112.812C326.376 112.812 324.829 117.989 324.829 122.313C324.829 122.669 324.87 123.004 324.931 123.33C324.941 123.381 324.951 123.432 324.951 123.503C325.247 125.415 325.542 130.379 322.132 131.315Z" fill="#AD6359"/>
<path d="M324.921 123.321C324.921 123.371 324.932 123.432 324.932 123.494C324.443 123.555 323.924 123.585 323.344 123.565C314.203 123.321 311.842 111.877 311.384 108.978C314.142 109.384 326.357 112.813 326.357 112.813C326.357 112.813 324.809 118 324.809 122.314C324.83 122.659 324.85 123.005 324.921 123.321Z" fill="#263238"/>
<path d="M308.045 89.6799C306.518 95.2238 309.857 111.042 313.867 114.48C319.689 119.465 328.992 119.699 333.176 112.761C337.227 106.037 332.514 85.499 328.046 82.3965C321.481 77.8291 310.305 81.481 308.045 89.6799Z" fill="#AD6359"/>
<path d="M323.822 98.7744C323.801 98.7337 323.751 98.8456 323.761 98.8863C324.015 99.9442 324.127 101.206 323.231 101.755C323.201 101.775 323.221 101.826 323.252 101.816C324.402 101.399 324.229 99.7306 323.822 98.7744Z" fill="#263238"/>
<path d="M322.641 97.8488C320.9 98.0726 321.47 101.541 323.089 101.338C324.677 101.134 324.096 97.6657 322.641 97.8488Z" fill="#263238"/>
<path d="M330.071 97.9198C330.071 97.8791 330.163 97.9605 330.173 98.0012C330.316 99.0794 330.662 100.29 331.7 100.493C331.73 100.504 331.741 100.554 331.7 100.554C330.478 100.575 330.041 98.9574 330.071 97.9198Z" fill="#263238"/>
<path d="M330.844 96.638C332.554 96.221 333.256 99.6593 331.678 100.046C330.121 100.432 329.419 96.9839 330.844 96.638Z" fill="#263238"/>
<path d="M321.013 96.4952C321.46 96.3019 321.847 96.0374 322.275 95.8035C322.753 95.5288 323.17 95.3661 323.425 94.8473C323.567 94.5726 323.415 94.1352 323.16 93.9826C322.56 93.6062 321.888 93.7995 321.298 94.0945C320.656 94.42 320.239 94.8473 319.954 95.5085C319.669 96.1392 320.412 96.7495 321.013 96.4952Z" fill="#263238"/>
<path d="M331.904 94.6645C331.405 94.6645 330.957 94.5832 330.469 94.5323C329.919 94.4814 329.471 94.4916 329.023 94.1254C328.779 93.9321 328.749 93.4744 328.922 93.2201C329.319 92.6402 330.011 92.5385 330.672 92.5792C331.395 92.6199 331.945 92.8437 332.474 93.332C332.983 93.8101 332.555 94.6645 331.904 94.6645Z" fill="#263238"/>
<path d="M324.484 108.906C324.779 109.12 325.094 109.415 325.491 109.384C325.868 109.353 326.285 109.109 326.601 108.926C326.631 108.906 326.672 108.936 326.652 108.977C326.438 109.435 325.898 109.791 325.379 109.791C324.881 109.791 324.565 109.404 324.372 108.977C324.361 108.916 324.433 108.875 324.484 108.906Z" fill="#263238"/>
<path d="M325.074 105.498C325.827 106.332 326.804 106.698 327.791 106.719C328.229 106.729 328.687 106.678 329.115 106.556C329.196 106.536 329.288 106.515 329.359 106.485C329.44 106.464 329.501 106.444 329.593 106.414C329.715 106.373 329.766 106.261 329.766 106.139V106.129C329.756 106.088 329.756 106.057 329.736 106.017C329.736 106.017 329.736 106.017 329.736 106.007L329.715 105.915C329.603 105.081 329.308 103.84 329.308 103.84C329.634 103.942 331.293 104.379 331.191 103.952C330.387 100.412 329.491 96.4751 327.934 93.1182C327.893 93.0063 327.71 93.0572 327.74 93.1793C328.382 96.6175 329.624 99.9134 330.316 103.352C329.797 103.25 328.931 103.036 328.504 103.118C328.392 103.169 329.104 105.508 329.125 105.895C329.125 105.895 329.125 105.915 329.125 105.935C327.761 106.342 326.641 106.098 325.145 105.386C325.074 105.345 325.002 105.427 325.074 105.498Z" fill="#263238"/>
<path d="M328.555 106.231C328.555 106.231 327.985 107.34 327.039 107.869C326.692 108.062 326.295 108.184 325.868 108.143C324.972 108.062 324.82 107.279 324.871 106.577C324.911 105.997 325.084 105.478 325.084 105.478C325.084 105.478 326.53 106.434 328.555 106.231Z" fill="#263238"/>
<path d="M327.049 107.869C326.703 108.062 326.306 108.184 325.878 108.143C324.983 108.062 324.83 107.279 324.881 106.577C325.807 106.506 326.815 106.984 327.049 107.869Z" fill="#FF99BA"/>
<path d="M331.212 87.2895C330.398 86.0179 329.492 84.7565 328.626 84.6243C327.761 84.4921 327.547 86.5774 325.705 87.0148C323.211 87.5946 321.613 85.4788 318.041 85.8145C312.921 86.2926 311.384 90.8905 312.442 98.0925C313.389 104.521 309.603 105.762 309.603 105.762C309.603 105.762 304.931 91.9993 308.147 86.6588C311.374 81.3183 320.188 77.7478 327.069 81.2064C329.583 82.4678 331.212 87.2895 331.212 87.2895Z" fill="#263238"/>
<path d="M312.432 102.701C312.432 102.701 308.594 97.7364 306.325 99.1301C304.055 100.524 307.108 107.838 309.897 108.733C312.686 109.618 313.562 107.064 313.562 107.064L312.432 102.701Z" fill="#AD6359"/>
<path d="M307.24 101.205C307.2 101.205 307.19 101.266 307.23 101.276C309.185 101.958 310.284 103.697 311.078 105.508C310.477 104.826 309.673 104.47 308.757 105.193C308.706 105.233 308.757 105.305 308.818 105.294C309.592 105.091 310.172 105.203 310.732 105.803C311.129 106.23 311.414 106.78 311.709 107.288C311.811 107.451 312.116 107.349 312.035 107.156C312.024 107.146 312.024 107.125 312.014 107.115C311.953 104.664 309.887 101.327 307.24 101.205Z" fill="#263238"/>
<path d="M297.571 131.152C287.759 144.132 266.974 169.604 268.929 181.495C271.097 194.73 279.647 215.583 285.174 221.605C286.497 223.049 293.988 222.398 299.739 219.53C304.432 217.18 307.709 212.836 307.689 211.127C307.648 207.323 295.088 183.591 294.192 180.895C293.296 178.189 305.093 150.927 309.185 137.744C314.356 121.102 305.867 120.166 297.571 131.152Z" fill="#AD6359"/>
<path d="M303.851 155.922L279.372 151.558C279.372 151.558 296.116 129.952 302.844 124.988C310.406 119.403 311.607 124.49 310.355 133.329C309.114 142.179 303.851 155.922 303.851 155.922Z" fill="#A8D29F"/>
<path opacity="0.1" d="M303.851 155.922L279.372 151.558C279.372 151.558 296.116 129.952 302.844 124.988C310.406 119.403 311.607 124.49 310.355 133.329C309.114 142.179 303.851 155.922 303.851 155.922Z" fill="black"/>
<path d="M303.78 151.344C300.736 150.367 291.199 148.719 289.632 148.435C288.797 148.282 285.468 147.824 284.644 147.661C284.542 147.641 284.522 147.804 284.634 147.824C286.212 148.129 287.759 148.587 289.336 148.902C290.955 149.228 300.553 151.242 303.759 151.456C303.831 151.476 303.851 151.364 303.78 151.344Z" fill="#263238"/>
<path d="M307.689 145.973C308.238 144.783 308.778 143.592 309.287 142.372C309.297 142.351 309.256 142.331 309.246 142.351C308.808 143.216 308.391 144.081 307.984 144.956C308.513 143.104 309.012 141.243 309.429 139.371C309.439 139.34 309.388 139.33 309.378 139.361C308.34 142.087 307.455 144.864 306.488 147.611C305.531 150.306 304.635 153.012 303.729 155.728C303.159 155.718 302.589 155.687 302.009 155.657C301.897 155.647 301.887 155.799 301.989 155.82C302.599 155.962 303.21 156.094 303.811 156.267C303.953 156.308 304.116 156.267 304.167 156.115C305.48 152.809 306.661 149.411 307.689 145.973Z" fill="#263238"/>
<path d="M284.014 221.93C286.528 222.144 288.981 221.91 291.363 221.493C293.744 221.045 296.075 220.354 298.315 219.448C302.773 217.831 306.183 214.169 308.269 209.591C308.035 212.124 306.977 214.596 305.379 216.671C303.791 218.767 301.521 220.405 299.068 221.34C296.666 222.276 294.131 222.927 291.546 223.07C289.001 223.212 286.355 222.968 284.014 221.93Z" fill="#263238"/>
</g>
<defs>
<clipPath id="clip0">
<rect width="428" height="468" fill="white"/>
</clipPath>
</defs>
</svg>
