<svg width="50" height="50" viewBox="0 0 50 50" fill="none" xmlns="http://www.w3.org/2000/svg">
<path d="M24.9994 4.16797C36.4994 4.16797 45.8327 13.5013 45.8327 25.0013C45.8327 36.5221 36.4994 45.8346 24.9994 45.8346C13.4785 45.8346 4.16602 36.5221 4.16602 25.0013C4.16602 13.5013 13.4785 4.16797 24.9994 4.16797ZM33.0202 18.1471C33.2494 17.418 32.5827 16.7305 31.8535 16.9596L21.1868 20.293C20.7493 20.4388 20.3952 20.7721 20.2702 21.2096L16.9369 31.8971C16.7077 32.6055 17.3952 33.293 18.1035 33.0638L28.7285 29.7305C29.166 29.6055 29.5202 29.2513 29.6452 28.8138L33.0202 18.1471Z" fill="#FFCC00"/>
</svg>
