<svg width="50" height="50" viewBox="0 0 50 50" fill="none" xmlns="http://www.w3.org/2000/svg">
<path d="M19.0305 43.2791V36.9088C19.0305 35.2827 20.3584 33.9644 21.9964 33.9644H27.9843C28.7709 33.9644 29.5253 34.2747 30.0815 34.8268C30.6377 35.379 30.9502 36.1279 30.9502 36.9088V43.2791C30.9453 43.9552 31.2123 44.6052 31.6921 45.085C32.1719 45.5648 32.8248 45.8346 33.5058 45.8346H37.591C39.4989 45.8395 41.3304 45.0906 42.6813 43.753C44.0321 42.4154 44.7913 40.5992 44.7913 38.7051V20.5573C44.7913 19.0273 44.1082 17.576 42.926 16.5944L29.0289 5.57603C26.6115 3.64414 23.1478 3.70651 20.8026 5.72417L7.22262 16.5944C5.98455 17.547 5.24458 19.0026 5.20801 20.5573V38.6866C5.20801 42.6343 8.43172 45.8346 12.4084 45.8346H16.4003C17.8147 45.8346 18.9643 44.7017 18.9745 43.2976L19.0305 43.2791Z" fill="#FFCC00"/>
</svg>
