<svg width="94" height="94" viewBox="0 0 94 94" fill="none" xmlns="http://www.w3.org/2000/svg">
<circle cx="46.7744" cy="46.7744" r="46.7744" fill="#255E13"/>
<path d="M45.5548 44.7387L46.1735 44.7361C48.7449 44.7361 51.0892 44.8867 52.6174 45.1135L53.5678 45.3122C54.0711 45.4228 54.6441 45.5681 54.9367 45.7196C56.0068 46.2743 56.6689 47.3589 56.6689 48.5198L56.6689 48.6208C56.6439 49.3775 55.9799 50.9672 55.9568 50.9672C54.8835 53.5253 51.6442 58.4604 49.3348 60.7397L48.6414 61.4021C48.4535 61.5755 48.2311 61.7704 48.0578 61.8913C47.5227 62.2954 46.8606 62.4975 46.1985 62.4975C45.4594 62.4975 44.7723 62.2707 44.2103 61.8418L43.4759 61.1613L43.3191 61.0088C41.0769 58.9406 37.4103 53.5405 36.2882 50.7156L36.1247 50.2891C35.9408 49.7759 35.7213 49.0568 35.7011 48.6208C35.7011 48.0661 35.8301 47.5362 36.0842 47.0311C36.4402 46.4001 37.0022 45.8969 37.6643 45.6186C38.1224 45.4413 39.4986 45.163 39.5236 45.163C40.9112 44.9079 43.1007 44.76 45.5548 44.7387ZM46.1858 31.0458C47.6505 31.0458 48.8381 32.2219 48.8381 33.6724L48.2664 40.1362C48.2664 41.2741 47.3349 42.1967 46.1858 42.1967C45.0348 42.1967 44.1052 41.2741 44.1052 40.1362L43.5336 33.6724C43.5336 32.2219 44.7211 31.0458 46.1858 31.0458Z" fill="#FDD826"/>
</svg>
