<svg width="57" height="57" viewBox="0 0 57 57" fill="none" xmlns="http://www.w3.org/2000/svg">
<path d="M46.1869 12.0705L32.5154 5.98132C30.509 5.09477 27.4761 5.09477 25.4697 5.98132L11.7982 12.0705C8.3453 13.6103 7.83203 15.71 7.83203 16.8299C7.83203 17.9497 8.3453 20.0495 11.7982 21.5893L25.4697 27.6784C26.4729 28.1217 27.7327 28.355 28.9926 28.355C30.2524 28.355 31.5122 28.1217 32.5154 27.6784L46.1869 21.5893C49.6398 20.0495 50.1531 17.9497 50.1531 16.8299C50.1531 15.71 49.6632 13.6103 46.1869 12.0705Z" fill="#FFCC00"/>
<path d="M28.9924 40.4169C28.1058 40.4169 27.2193 40.2303 26.4027 39.8803L10.6781 32.8813C8.27511 31.8081 6.40869 28.9384 6.40869 26.3021C6.40869 25.3456 7.17859 24.5757 8.13513 24.5757C9.09167 24.5757 9.86157 25.3456 9.86157 26.3021C9.86157 27.562 10.9114 29.1951 12.0779 29.7083L27.8025 36.7074C28.5491 37.034 29.4123 37.034 30.1589 36.7074L45.8835 29.7083C47.05 29.1951 48.0998 27.5853 48.0998 26.3021C48.0998 25.3456 48.8697 24.5757 49.8263 24.5757C50.7828 24.5757 51.5527 25.3456 51.5527 26.3021C51.5527 28.9151 49.6863 31.8081 47.2833 32.8813L31.5587 39.8803C30.7655 40.2303 29.8789 40.4169 28.9924 40.4169Z" fill="#FFCC00"/>
<path d="M28.9924 51.9872C28.1058 51.9872 27.2193 51.8006 26.4027 51.4506L10.6781 44.4516C8.08847 43.3084 6.40869 40.7187 6.40869 37.8724C6.40869 36.9159 7.17859 36.146 8.13513 36.146C9.09167 36.146 9.86157 36.9159 9.86157 37.8724C9.86157 39.3422 10.7248 40.6721 12.0779 41.2786L27.8025 48.2777C28.5491 48.6043 29.4123 48.6043 30.1589 48.2777L45.8835 41.2786C47.2133 40.6954 48.0998 39.3422 48.0998 37.8724C48.0998 36.9159 48.8697 36.146 49.8263 36.146C50.7828 36.146 51.5527 36.9159 51.5527 37.8724C51.5527 40.7187 49.8729 43.2851 47.2833 44.4516L31.5587 51.4506C30.7655 51.8006 29.8789 51.9872 28.9924 51.9872Z" fill="#FFCC00"/>
</svg>
