<svg width="46" height="46" viewBox="0 0 46 46" fill="none" xmlns="http://www.w3.org/2000/svg">
<path d="M20.466 30.5H25.5335C25.6985 28.9975 26.4648 27.7575 27.7085 26.4037C27.8498 26.2512 28.7485 25.32 28.8548 25.1875C29.7376 24.0845 30.291 22.7546 30.4512 21.3509C30.6113 19.9473 30.3718 18.5269 29.7601 17.2534C29.1484 15.9799 28.1894 14.9051 26.9937 14.1527C25.7979 13.4003 24.4139 13.001 23.0011 13.0007C21.5883 13.0004 20.2042 13.3991 19.0081 14.151C17.812 14.9029 16.8526 15.9773 16.2403 17.2505C15.6281 18.5237 15.3879 19.944 15.5475 21.3478C15.7071 22.7515 16.2599 24.0816 17.1423 25.185C17.2498 25.3187 18.151 26.2512 18.2898 26.4025C19.5348 27.7575 20.301 28.9975 20.466 30.5ZM25.4998 33H20.4998V34.25H25.4998V33ZM15.1923 26.75C14.015 25.2791 13.2772 23.5056 13.0638 21.6337C12.8505 19.7618 13.1703 17.8677 13.9863 16.1696C14.8024 14.4716 16.0816 13.0386 17.6765 12.0357C19.2714 11.0328 21.1171 10.5009 23.0011 10.5012C24.8851 10.5015 26.7307 11.034 28.3253 12.0374C29.9199 13.0408 31.1986 14.4742 32.0141 16.1725C32.8296 17.8709 33.1488 19.7651 32.9348 21.6369C32.7209 23.5087 31.9825 25.282 30.8048 26.7525C30.0298 27.7175 27.9998 29.25 27.9998 31.125V34.25C27.9998 34.913 27.7364 35.5489 27.2675 36.0177C26.7987 36.4866 26.1628 36.75 25.4998 36.75H20.4998C19.8367 36.75 19.2008 36.4866 18.732 36.0177C18.2632 35.5489 17.9998 34.913 17.9998 34.25V31.125C17.9998 29.25 15.9685 27.7175 15.1923 26.75ZM24.2498 20.505H27.3748L21.7498 28.005V23.005H18.6248L24.2498 15.5V20.5062V20.505Z" fill="white"/>
<circle cx="23" cy="23" r="22" stroke="#FDAE01" stroke-width="2"/>
</svg>
