<svg width="454" height="454" viewBox="0 0 454 454" fill="none" xmlns="http://www.w3.org/2000/svg">
<path d="M210.493 154.627L139.247 153.676L117.652 153.495H110.258H109.732C109.906 153.516 110.083 153.516 110.258 153.495L111.78 153.54L117.652 153.64L139.247 153.83L210.493 154.147C238.305 154.247 263.488 154.374 281.712 154.582C290.828 154.682 298.205 154.791 303.307 154.908C305.853 154.972 307.838 155.026 309.17 155.08C309.856 155.077 310.541 155.131 311.218 155.244C310.542 155.358 309.855 155.4 309.17 155.37C307.829 155.37 305.844 155.434 303.298 155.443C298.196 155.443 290.819 155.443 281.703 155.389C263.479 155.334 238.296 155.017 210.493 154.627Z" fill="#EBEBEB"/>
<path d="M209.913 160.908L139.682 148.891L118.377 145.348L112.587 144.442L111.073 144.224L110.557 144.17C110.723 144.221 110.892 144.261 111.064 144.288L112.559 144.569L118.35 145.575L139.646 149.127L209.986 160.5C237.435 164.913 262.292 168.955 280.271 171.99C289.261 173.504 296.528 174.763 301.549 175.67C304.05 176.123 305.998 176.494 307.312 176.757C307.992 176.859 308.663 177.02 309.315 177.237C308.628 177.241 307.942 177.178 307.267 177.047C305.935 176.875 303.977 176.594 301.458 176.204C296.42 175.443 289.134 174.283 280.135 172.806C262.147 169.843 237.317 165.62 209.913 160.908Z" fill="#EBEBEB"/>
<path d="M208.355 167.015L140.897 144.079L120.417 137.237L114.834 135.425L113.384 134.972C113.219 134.915 113.049 134.869 112.877 134.836L113.357 135.035L114.798 135.543L120.353 137.455L140.824 144.315L208.491 166.635C234.907 175.325 258.822 183.227 276.094 189.054C284.73 191.963 291.717 194.356 296.529 196.041C298.93 196.884 300.797 197.554 302.057 198.026C302.71 198.233 303.343 198.497 303.951 198.814C303.271 198.709 302.604 198.539 301.957 198.307C300.67 197.926 298.776 197.337 296.348 196.558C291.49 195.017 284.485 192.715 275.831 189.843C258.532 184.07 234.68 175.987 208.355 167.015Z" fill="#EBEBEB"/>
<path d="M205.862 172.797L142.845 139.539L123.706 129.571L118.477 126.852L117.108 126.173C116.957 126.089 116.799 126.016 116.637 125.955C116.772 126.066 116.921 126.158 117.081 126.227L118.422 126.961L123.606 129.68L142.745 139.648L206.053 172.335C230.774 185.067 253.175 196.639 269.288 205.112C277.362 209.344 283.878 212.797 288.363 215.226C290.611 216.431 292.342 217.391 293.511 218.053C294.126 218.353 294.712 218.711 295.26 219.122C294.606 218.913 293.975 218.64 293.375 218.307C292.169 217.727 290.393 216.848 288.119 215.697C283.588 213.404 277 210.033 268.907 205.837C252.731 197.527 230.448 185.792 205.862 172.797Z" fill="#EBEBEB"/>
<path d="M202.491 178.116L145.455 135.416L128.101 122.566L123.361 119.104L122.111 118.198C121.976 118.089 121.83 117.995 121.676 117.917C121.802 118.036 121.935 118.148 122.075 118.252L123.289 119.158L127.974 122.693L145.319 135.552L202.745 177.727C225.174 194.174 245.455 209.1 260.072 219.983C267.385 225.42 273.284 229.861 277.335 232.96C279.365 234.51 280.96 235.724 281.975 236.585C282.533 236.981 283.055 237.427 283.533 237.917C282.921 237.61 282.341 237.243 281.803 236.82C280.697 236.059 279.084 234.908 277.009 233.422C272.876 230.441 266.923 226.091 259.582 220.672C244.92 209.87 224.739 194.791 202.491 178.116Z" fill="#EBEBEB"/>
<path d="M198.332 182.838L148.627 131.791C142.283 125.302 137.073 120.01 133.493 116.385L129.343 112.262L128.292 111.175L127.902 110.821C128.004 110.965 128.119 111.098 128.246 111.22L129.288 112.326L133.375 116.549L148.5 131.954L198.668 182.548C218.269 202.276 235.985 220.173 248.735 233.205C255.079 239.72 260.244 244.985 263.76 248.71C265.527 250.522 266.887 251.99 267.793 252.978C268.287 253.456 268.733 253.981 269.125 254.546C268.568 254.144 268.052 253.689 267.585 253.186C266.606 252.28 265.192 250.876 263.38 249.081C259.755 245.456 254.544 240.273 248.146 233.785C235.306 220.808 217.716 202.783 198.332 182.838Z" fill="#EBEBEB"/>
<path d="M193.538 186.861L152.378 128.71L139.818 111.147L136.366 106.39L135.46 105.166C135.363 105.024 135.254 104.89 135.133 104.768C135.218 104.918 135.312 105.063 135.414 105.203L136.275 106.462L139.655 111.265C142.628 115.434 146.905 121.433 152.197 128.836C162.881 143.635 177.571 164.061 193.883 186.616C210.194 209.172 224.884 229.598 235.45 244.45C240.734 251.881 244.984 257.907 247.893 262.103C249.343 264.197 250.457 265.828 251.2 266.951C251.611 267.501 251.972 268.087 252.279 268.7C251.788 268.218 251.348 267.686 250.965 267.115C250.149 266.054 248.962 264.468 247.449 262.411C244.431 258.306 240.099 252.334 234.762 244.931C224.105 230.123 209.542 209.579 193.538 186.861Z" fill="#EBEBEB"/>
<path d="M188.101 190.087L156.538 126.209C152.469 118.053 149.17 111.474 146.878 106.898L144.213 101.66C143.905 101.08 143.67 100.636 143.506 100.31C143.428 100.153 143.341 100.002 143.244 99.8564C143.3 100.022 143.369 100.183 143.452 100.337L144.105 101.723L146.687 106.988C148.971 111.574 152.269 118.162 156.329 126.309C164.567 142.62 175.921 165.067 188.472 189.897C201.023 214.727 212.387 237.192 220.498 253.513C224.558 261.669 227.811 268.302 230.022 272.888C231.128 275.189 231.979 276.975 232.541 278.198C232.858 278.804 233.119 279.438 233.321 280.092C232.913 279.544 232.564 278.954 232.278 278.334C231.635 277.147 230.711 275.398 229.56 273.132C227.213 268.601 223.869 262.031 219.773 253.884C211.554 237.591 200.38 215.026 188.101 190.087Z" fill="#EBEBEB"/>
<path d="M182.238 192.416L161.114 124.369L154.617 103.771C153.837 101.361 153.23 99.4849 152.804 98.189C152.596 97.5637 152.433 97.0925 152.315 96.7481C152.267 96.5807 152.206 96.4172 152.134 96.2588C152.16 96.4315 152.203 96.6014 152.261 96.7663L152.687 98.2253L154.408 103.844C155.949 108.719 158.16 115.751 160.897 124.433C166.461 141.814 174.146 165.792 182.646 192.29C191.146 218.787 198.803 242.756 204.25 260.155C206.968 268.855 209.143 275.905 210.593 280.79C211.318 283.227 211.88 285.13 212.233 286.426C212.456 287.074 212.617 287.742 212.714 288.42C212.396 287.81 212.141 287.169 211.953 286.508C211.508 285.248 210.874 283.372 210.068 280.953C208.464 276.114 206.198 269.091 203.443 260.4C197.933 243.028 190.457 218.986 182.238 192.416Z" fill="#EBEBEB"/>
<path d="M176.094 193.821C172.125 166.281 168.545 141.36 165.944 123.3C164.603 114.292 163.516 106.988 162.764 101.94C162.365 99.4393 162.066 97.4909 161.857 96.1407C161.749 95.4973 161.658 94.9989 161.604 94.6364C161.578 94.4651 161.542 94.2955 161.495 94.1289C161.488 94.3023 161.503 94.4759 161.54 94.6454L161.73 96.1588C161.921 97.5091 162.193 99.4665 162.546 101.977C163.298 107.033 164.358 114.328 165.709 123.336C168.482 141.369 172.288 166.263 176.502 193.766C180.715 221.27 184.531 246.145 187.168 264.179C188.491 273.241 189.524 280.49 190.203 285.556C190.539 288.084 190.793 290.087 190.947 291.383C191.057 292.06 191.108 292.745 191.101 293.431C190.882 292.781 190.733 292.11 190.657 291.428C190.412 290.105 190.077 288.157 189.669 285.638C188.844 280.608 187.711 273.313 186.352 264.306C183.633 246.245 180.027 221.324 176.094 193.821Z" fill="#EBEBEB"/>
<path d="M169.804 194.201C170.158 166.381 170.475 141.206 170.711 122.955C170.783 113.848 170.838 106.48 170.883 101.36V95.4972C170.883 94.8357 170.883 94.3282 170.883 93.9658C170.895 93.7938 170.895 93.6212 170.883 93.4492C170.867 93.621 170.867 93.7939 170.883 93.9658C170.883 94.3282 170.883 94.872 170.883 95.4882C170.883 96.8566 170.829 98.823 170.792 101.36C170.747 106.48 170.684 113.848 170.611 122.955C170.539 141.206 170.448 166.381 170.339 194.201C170.23 222.022 170.14 247.196 169.949 265.429C169.859 274.537 169.75 281.913 169.632 287.015C169.578 289.561 169.515 291.546 169.46 292.887C169.476 293.571 169.421 294.254 169.297 294.926C169.194 294.249 169.151 293.563 169.17 292.878C169.17 291.537 169.116 289.561 169.098 287.006C169.098 281.913 169.098 274.537 169.098 265.42C169.125 247.187 169.424 222.004 169.804 194.201Z" fill="#EBEBEB"/>
<path d="M163.525 193.631C168.201 166.2 172.433 141.379 175.496 123.39L179.039 102.085C179.438 99.5844 179.746 97.636 179.945 96.2858C180.045 95.6333 180.117 95.1349 180.163 94.7724C180.193 94.6017 180.211 94.4291 180.217 94.2559C180.169 94.4228 180.129 94.5922 180.099 94.7633C180.036 95.1258 179.945 95.6695 179.827 96.2676C179.592 97.6088 179.256 99.5572 178.821 102.049C177.979 107.097 176.773 114.374 175.278 123.354L163.951 193.694C159.546 221.152 155.523 246.009 152.505 263.988C150.992 272.978 149.741 280.255 148.835 285.266C148.382 287.776 148.019 289.725 147.748 291.039C147.652 291.716 147.494 292.384 147.276 293.032C147.267 292.348 147.33 291.664 147.467 290.993C147.639 289.661 147.92 287.704 148.3 285.185C149.062 280.137 150.222 272.851 151.69 263.852C154.626 245.864 158.83 221.007 163.525 193.631Z" fill="#EBEBEB"/>
<path d="M157.417 192.081C166.352 165.728 174.445 141.886 180.308 124.604L187.141 104.106C187.92 101.696 188.536 99.8197 188.953 98.5238C189.152 97.8985 189.297 97.4182 189.406 97.0739C189.463 96.9081 189.509 96.7385 189.542 96.5664C189.469 96.7226 189.405 96.8829 189.352 97.0467C189.225 97.3911 189.053 97.8713 188.835 98.4876C188.391 99.7744 187.757 101.641 186.932 104.043C185.31 108.891 182.972 115.887 180.081 124.514C174.381 141.85 166.488 165.773 157.816 192.198C149.143 218.623 141.259 242.538 135.45 259.82C132.542 268.456 130.158 275.443 128.473 280.255C127.63 282.656 126.959 284.523 126.488 285.782C126.295 286.441 126.031 287.076 125.7 287.676C125.806 286.997 125.976 286.33 126.207 285.683C126.597 284.396 127.177 282.511 127.956 280.082C129.497 275.216 131.789 268.202 134.653 259.557C140.398 242.257 148.464 218.406 157.417 192.081Z" fill="#EBEBEB"/>
<path d="M151.635 189.589C164.603 164.967 176.339 142.693 184.848 126.553L194.816 107.396L197.535 102.167C197.825 101.563 198.051 101.11 198.214 100.808C198.295 100.653 198.365 100.492 198.423 100.328C198.32 100.468 198.229 100.616 198.151 100.772C197.979 101.089 197.734 101.533 197.426 102.113L194.707 107.296C192.342 111.827 188.926 118.37 184.739 126.445L152.116 189.779C139.429 214.51 127.838 236.902 119.374 253.033C115.152 261.107 111.699 267.622 109.279 272.117C108.065 274.356 107.113 276.095 106.452 277.264C106.148 277.88 105.787 278.466 105.374 279.013C105.59 278.361 105.866 277.73 106.198 277.129C106.778 275.914 107.648 274.138 108.799 271.863C111.092 267.332 114.454 260.744 118.649 252.652C126.932 236.467 138.649 214.174 151.635 189.589Z" fill="#EBEBEB"/>
<path d="M146.316 186.218L188.971 129.127L201.821 111.764L205.274 107.024L206.18 105.774C206.284 105.636 206.378 105.491 206.461 105.339C206.338 105.462 206.226 105.596 206.125 105.738C205.908 106.028 205.591 106.426 205.219 106.943C204.404 108.039 203.217 109.661 201.694 111.637L188.835 128.991L146.696 186.444C130.267 208.882 115.36 229.172 104.476 243.798C99.039 251.111 94.6077 257.011 91.5175 261.071C89.9679 263.091 88.7536 264.695 87.8927 265.71C87.4967 266.269 87.0508 266.791 86.5605 267.269C86.8672 266.657 87.2345 266.077 87.6571 265.538C88.4183 264.433 89.5692 262.82 91.0553 260.744C94.0277 256.603 98.3775 250.649 103.742 243.309C114.59 228.665 129.651 208.483 146.316 186.218Z" fill="#EBEBEB"/>
<path d="M141.585 182.04L192.632 132.326L208.038 117.174L212.197 113.024L213.257 111.936C213.387 111.817 213.505 111.687 213.611 111.546C213.469 111.647 213.339 111.763 213.221 111.891C212.949 112.135 212.587 112.489 212.106 112.942L207.893 117.02L192.487 132.163L141.884 182.366C122.165 201.968 104.286 219.702 91.2547 232.453C84.7481 238.796 79.474 243.97 75.7676 247.496C73.9552 249.263 72.4871 250.622 71.4994 251.528C71.0188 252.019 70.494 252.465 69.9316 252.86C70.3332 252.303 70.7885 251.788 71.291 251.32C72.1972 250.341 73.6018 248.927 75.387 247.115C79.0118 243.49 84.1953 238.279 90.6838 231.873C103.643 219.059 121.658 201.46 141.585 182.04Z" fill="#EBEBEB"/>
<path d="M137.553 177.219L195.686 136.023L213.248 123.454L217.988 120.001L219.22 119.095C219.363 118.998 219.496 118.889 219.619 118.769C219.462 118.848 219.314 118.942 219.175 119.049L217.924 119.956L213.122 123.336L195.559 135.823L137.798 177.509C115.269 193.821 94.8434 208.546 79.9997 219.122C72.5688 224.405 66.5425 228.664 62.3559 231.573C60.2625 233.023 58.6313 234.138 57.5077 234.881C56.9713 235.308 56.3981 235.687 55.7949 236.014C56.2755 235.524 56.8037 235.084 57.3717 234.7C58.441 233.884 60.0269 232.697 62.0749 231.184C66.1801 228.157 72.152 223.825 79.5557 218.497C94.3178 207.867 114.852 193.286 137.553 177.219Z" fill="#EBEBEB"/>
<path d="M134.335 171.818L198.196 140.219L217.498 130.54L222.727 127.876L224.077 127.16C224.237 127.089 224.389 127.001 224.53 126.897C224.365 126.954 224.204 127.023 224.05 127.106L222.672 127.758L217.398 130.386L198.069 140.01L134.499 172.19C109.723 184.759 87.2399 196.132 70.9191 204.251C62.7632 208.32 56.1479 211.573 51.5535 213.794C49.2608 214.899 47.4665 215.751 46.2431 216.304C45.6396 216.629 45.0051 216.893 44.3491 217.092C44.9186 216.685 45.5255 216.333 46.1615 216.041C47.3396 215.407 49.0886 214.482 51.3541 213.322C55.8851 210.975 62.4551 207.631 70.6019 203.535C86.8411 195.316 109.397 184.134 134.335 171.818Z" fill="#EBEBEB"/>
<path d="M131.998 165.964L200.036 144.813L220.625 138.297L226.207 136.485L227.648 135.995C227.815 135.942 227.978 135.879 228.137 135.805C227.964 135.832 227.794 135.874 227.63 135.932L226.171 136.358L220.552 138.089L199.963 144.586L132.125 166.335C105.654 174.854 81.6669 182.538 64.2768 187.994C55.5772 190.712 48.5269 192.896 43.6425 194.337C41.2048 195.071 39.3017 195.624 38.0059 195.986C37.3588 196.21 36.6909 196.368 36.0122 196.458C36.624 196.146 37.2643 195.894 37.9243 195.705C39.1839 195.252 41.0598 194.618 43.4794 193.811C48.3185 192.208 55.3416 189.933 64.0231 187.169C81.3951 181.705 105.437 174.201 131.998 165.964Z" fill="#EBEBEB"/>
<path d="M130.611 159.82L201.132 149.634L222.482 146.435L228.282 145.529L229.786 145.275C229.961 145.25 230.133 145.214 230.303 145.166C230.127 145.159 229.95 145.174 229.777 145.212L228.264 145.402L222.455 146.227L201.096 149.416L130.675 160.246C103.189 164.496 78.2959 168.311 60.2623 170.957C51.2003 172.289 43.9506 173.322 38.8849 174.002C36.3566 174.346 34.3539 174.6 33.058 174.745C32.3846 174.86 31.7022 174.915 31.019 174.908C31.6691 174.688 32.3403 174.536 33.0218 174.455C34.3358 174.21 36.2932 173.884 38.8034 173.467C43.8419 172.642 51.1278 171.51 60.1445 170.141C78.169 167.405 103.09 163.78 130.611 159.82Z" fill="#EBEBEB"/>
<path d="M130.203 153.54L201.449 154.401L223.044 154.564H228.88H230.403H230.928C230.753 154.548 230.578 154.548 230.403 154.564L228.88 154.518L223.008 154.437L201.413 154.265L130.203 153.948C102.392 153.884 77.2084 153.784 58.9846 153.603C49.8682 153.513 42.4916 153.413 37.3897 153.304C34.8433 153.241 32.8587 153.186 31.5175 153.132C30.834 153.148 30.1508 153.093 29.4785 152.969C30.1561 152.866 30.8415 152.824 31.5265 152.842C32.8677 152.842 34.8433 152.779 37.3988 152.77C42.4916 152.77 49.8682 152.77 58.9846 152.77C77.2175 152.896 102.401 153.177 130.203 153.54Z" fill="#EBEBEB"/>
<path d="M130.774 147.26L201.024 159.186L222.329 162.702L228.128 163.608L229.633 163.825C229.806 163.856 229.982 163.875 230.158 163.88C229.991 163.832 229.822 163.792 229.651 163.762L228.146 163.49L222.365 162.484L201.06 158.959L130.711 147.677C103.244 143.291 78.3866 139.285 60.4075 136.277C51.4088 134.772 44.0958 133.558 39.1207 132.652C36.6105 132.208 34.6712 131.836 33.3481 131.574C32.6709 131.476 32.0037 131.318 31.3545 131.102C32.0416 131.091 32.728 131.152 33.4025 131.284C34.7346 131.456 36.6921 131.737 39.2113 132.117C44.2498 132.879 51.5448 134.029 60.5344 135.497C78.5316 138.388 103.362 142.584 130.774 147.26Z" fill="#EBEBEB"/>
<path d="M132.324 141.152L199.809 163.997L220.299 170.812L225.881 172.624L227.34 173.087C227.506 173.141 227.675 173.184 227.847 173.213L227.358 173.023L225.926 172.507L220.371 170.613L199.882 163.771L132.188 141.551C105.763 132.905 81.8391 125.03 64.5578 119.222C55.9125 116.322 48.9348 113.948 44.1137 112.262C41.7123 111.419 39.8455 110.758 38.5859 110.286C37.9311 110.084 37.297 109.82 36.6919 109.498C37.3708 109.605 38.0383 109.775 38.6856 110.006C39.9724 110.386 41.8573 110.975 44.295 111.745C49.1522 113.286 56.1663 115.57 64.8206 118.433C82.1291 124.16 105.99 132.199 132.324 141.152Z" fill="#EBEBEB"/>
<path d="M134.807 135.37L197.87 168.547L217.027 178.515L222.256 181.179L223.624 181.859C223.775 181.943 223.932 182.013 224.096 182.067C223.956 181.966 223.808 181.878 223.652 181.804L222.31 181.07L217.127 178.352L197.97 168.383L134.617 135.76C109.877 123.073 87.4941 111.51 71.3455 103.064C63.2621 98.8412 56.7465 95.3885 52.2517 92.969C50.0134 91.7637 48.2735 90.8122 47.1044 90.1506C46.4873 89.8498 45.9014 89.4886 45.3555 89.0723C46.0062 89.289 46.6369 89.5618 47.2404 89.8878C48.4456 90.4678 50.2218 91.3468 52.5054 92.4887C57.0365 94.7814 63.6246 98.1434 71.717 102.33C87.9109 110.694 110.167 122.403 134.807 135.37Z" fill="#EBEBEB"/>
<path d="M138.169 130.042L195.26 172.634L212.623 185.465L217.371 188.918C217.906 189.299 218.323 189.589 218.613 189.824C218.754 189.928 218.903 190.022 219.057 190.105C218.931 189.985 218.798 189.873 218.658 189.77L217.444 188.864L212.75 185.339L195.396 172.498L137.924 130.386C115.477 113.966 95.1693 99.0677 80.534 88.1933C73.2209 82.756 67.3215 78.3337 63.2617 75.2436C61.2318 73.703 59.6369 72.525 58.6129 71.6187C58.0541 71.2228 57.5324 70.7769 57.0542 70.2866C57.6679 70.5907 58.248 70.9582 58.7851 71.3831C59.8906 72.1443 61.5037 73.2862 63.5789 74.7723C67.7293 77.7447 73.6831 82.0945 81.0234 87.4592C95.713 98.3428 115.903 113.395 138.169 130.042Z" fill="#EBEBEB"/>
<path d="M142.328 125.311L192.097 176.295L207.258 191.7L211.408 195.851L212.496 196.92C212.616 197.045 212.746 197.16 212.885 197.264C212.781 197.125 212.666 196.995 212.541 196.875L211.49 195.769C210.584 194.79 209.17 193.368 207.403 191.555L192.26 176.15L142.029 125.61C122.401 105.919 104.666 88.021 91.8978 75.0078C85.5543 68.5013 80.3709 63.2271 76.8457 59.5298C75.0877 57.7174 73.7284 56.2494 72.8131 55.2616C72.3191 54.7835 71.873 54.2585 71.481 53.6938C72.0378 54.0954 72.5538 54.5507 73.0215 55.0532C74.0002 55.9594 75.4139 57.3549 77.2354 59.1492C80.8602 62.774 86.0799 67.9485 92.4868 74.4279C105.31 87.3866 122.917 105.393 142.328 125.311Z" fill="#EBEBEB"/>
<path d="M147.158 121.324L188.4 179.43L200.978 196.983L204.431 201.723L205.337 202.946C205.433 203.094 205.545 203.231 205.672 203.354C205.589 203.2 205.495 203.051 205.391 202.91L204.485 201.65L201.105 196.856L188.536 179.303L146.778 121.569C130.466 99.0495 115.713 78.6327 105.092 63.789C99.8816 56.3309 95.6677 50.3046 92.7135 46.1089C91.2545 44.0156 90.1398 42.3753 89.3967 41.2607C88.9863 40.7107 88.6255 40.1254 88.3184 39.5117C88.8077 39.9923 89.2479 40.5205 89.6324 41.0885C90.4479 42.1578 91.6351 43.7437 93.1575 45.7917C96.1842 49.8969 100.516 55.8597 105.844 63.2634C116.51 78.0618 131.082 98.5873 147.158 121.324Z" fill="#EBEBEB"/>
<path d="M153.639 120.479C165.571 144.627 176.4 166.476 184.209 182.32L193.558 201.008L196.184 206.073L196.876 207.381C196.946 207.534 197.028 207.68 197.121 207.82C197.075 207.658 197.01 207.502 196.929 207.355L196.29 206.021L193.751 200.894C191.536 196.461 188.341 190.08 184.401 182.188C176.435 166.388 165.431 144.671 153.271 120.637C141.112 96.6032 130.125 74.8865 122.308 59.0773C118.377 51.1772 115.226 44.7693 113.081 40.3188C112.013 38.098 111.19 36.3687 110.647 35.1837C110.337 34.5974 110.082 33.9832 109.886 33.3491C110.281 33.8809 110.621 34.4514 110.901 35.052C111.523 36.202 112.416 37.8961 113.527 40.0818C115.795 44.4708 119.034 50.8348 123 58.7174C130.905 74.4915 141.725 96.3398 153.639 120.479Z" fill="#EBEBEB"/>
<path d="M160.21 122.466C167.83 147.131 174.717 169.456 179.72 185.631C182.221 193.692 184.297 200.214 185.723 204.75C186.448 206.988 187.007 208.73 187.39 209.934L187.841 211.272C187.885 211.427 187.941 211.579 188.007 211.726C187.988 211.565 187.949 211.406 187.891 211.255L187.499 209.9C187.132 208.688 186.59 206.938 185.906 204.683C184.489 200.155 182.438 193.633 179.912 185.572C174.767 169.44 167.672 147.181 159.835 122.584C151.997 97.9862 144.894 75.7449 139.824 59.5877C137.323 51.5175 135.306 44.9705 133.988 40.4347C133.313 38.171 132.796 36.4038 132.462 35.2089C132.258 34.6043 132.11 33.9817 132.021 33.3491C132.315 33.9145 132.55 34.5097 132.721 35.1247C133.138 36.2944 133.721 38.0364 134.463 40.2832C135.948 44.777 138.04 51.2987 140.583 59.3605C145.702 75.5008 152.614 97.8095 160.21 122.466Z" fill="#EBEBEB"/>
<path d="M164.131 124.454C168.14 149.278 171.767 171.75 174.403 188.035C175.757 196.149 176.857 202.743 177.612 207.287C178.012 209.542 178.321 211.299 178.521 212.516C178.639 213.105 178.721 213.554 178.784 213.873C178.802 214.028 178.839 214.182 178.893 214.33C178.888 214.174 178.873 214.019 178.848 213.865C178.802 213.538 178.73 213.088 178.648 212.5C178.457 211.282 178.175 209.526 177.821 207.262C177.066 202.694 176.003 196.125 174.621 188.002C171.821 171.741 167.967 149.303 163.713 124.511C159.459 99.7195 155.596 77.2893 152.923 61.0202C151.587 52.8897 150.542 46.3118 149.86 41.7522C149.514 39.4724 149.26 37.6666 149.105 36.4981C148.983 35.889 148.931 35.2701 148.951 34.6514C149.158 35.2404 149.307 35.8447 149.396 36.4572C149.642 37.6502 149.978 39.4071 150.396 41.6787C151.223 46.2138 152.369 52.7835 153.741 60.914C156.514 77.1667 160.159 99.6378 164.131 124.454Z" fill="#EBEBEB"/>
<path d="M170.573 123.823C170.316 148.813 170.08 171.433 169.911 187.819C169.859 195.999 169.823 202.617 169.793 207.216C169.793 209.495 169.793 211.286 169.793 212.49C169.793 213.077 169.793 213.532 169.793 213.858C169.774 214.015 169.774 214.173 169.793 214.33C169.803 214.173 169.803 214.015 169.793 213.858C169.793 213.532 169.793 213.044 169.83 212.49C169.83 211.269 169.867 209.495 169.896 207.216C169.896 202.617 169.97 195.999 170.021 187.827C170.058 171.433 170.11 148.813 170.168 123.823C170.227 98.834 170.279 76.2216 170.411 59.8524C170.477 51.6637 170.558 45.0379 170.647 40.4552C170.691 38.1679 170.735 36.3853 170.779 35.1887C170.767 34.5721 170.811 33.9557 170.912 33.3491C170.995 33.9578 171.029 34.5734 171.015 35.1887C171.015 36.3934 171.066 38.1679 171.081 40.4633C171.081 45.0379 171.081 51.6719 171.081 59.8524C171.037 76.2297 170.816 98.8503 170.573 123.823Z" fill="#EBEBEB"/>
<path d="M177.134 124.507C172.519 149.297 168.345 171.736 165.316 187.993C163.847 196.117 162.666 202.685 161.837 207.255C161.449 209.515 161.143 211.276 160.935 212.496C160.845 213.077 160.773 213.536 160.719 213.855C160.688 214.012 160.67 214.171 160.665 214.33C160.719 214.181 160.758 214.027 160.782 213.872C160.845 213.544 160.935 213.094 161.062 212.512C161.287 211.3 161.621 209.539 162.053 207.279C162.874 202.717 164.072 196.149 165.542 188.025C168.408 171.745 172.357 149.272 176.719 124.442C181.082 99.6109 185.04 77.1552 188.059 60.8989C189.556 52.7749 190.764 46.2068 191.665 41.6698C192.116 39.4013 192.476 37.6406 192.738 36.4531C192.828 35.8392 192.989 35.2354 193.216 34.6514C193.214 35.2695 193.15 35.8862 193.026 36.494C192.855 37.6979 192.576 39.4668 192.206 41.7517C191.449 46.3051 190.313 52.8895 188.853 61.0217C185.923 77.2862 181.749 99.7256 177.134 124.507Z" fill="#EBEBEB"/>
<path d="M183.659 125.842C174.732 149.539 166.651 170.979 160.787 186.522C157.914 194.294 155.578 200.574 153.96 204.94L152.142 209.967C151.942 210.529 151.796 210.96 151.687 211.278C151.629 211.424 151.584 211.574 151.551 211.726C151.63 211.587 151.697 211.443 151.751 211.294C151.869 210.985 152.042 210.553 152.26 209.999C152.696 208.842 153.342 207.164 154.16 205.006C155.787 200.639 158.123 194.359 161.005 186.587C166.705 170.996 174.569 149.49 183.25 125.719C191.932 101.949 199.796 80.4515 205.605 64.9168C208.514 57.1454 210.895 50.8648 212.577 46.5392C213.423 44.3723 214.086 42.6942 214.559 41.5619C214.752 40.9702 215.017 40.3992 215.35 39.8594C215.244 40.4699 215.074 41.07 214.841 41.6515C214.459 42.8083 213.868 44.5108 213.104 46.694C211.559 51.0603 209.268 57.3654 206.395 65.1531C200.677 80.7122 192.614 102.161 183.659 125.842Z" fill="#EBEBEB"/>
<path d="M188.879 128.474L155.899 185.433C151.721 192.724 148.338 198.632 145.974 202.74L143.321 207.461C143.023 207.993 142.806 208.402 142.644 208.697C142.56 208.832 142.491 208.975 142.437 209.122C142.538 208.996 142.625 208.862 142.698 208.721L143.429 207.51L146.136 202.821C148.482 198.73 151.875 192.822 156.062 185.523L188.482 128.303C201.115 105.956 212.593 85.7532 220.966 71.1472C225.171 63.8565 228.6 57.9651 231.009 53.9065C232.209 51.8772 233.157 50.3144 233.806 49.2506C234.109 48.6948 234.468 48.1661 234.88 47.6714C234.673 48.2621 234.401 48.8324 234.068 49.3734C233.49 50.4698 232.624 52.0736 231.478 54.1356C229.204 58.2269 225.866 64.1757 221.697 71.4909C213.423 86.1132 201.783 106.251 188.879 128.474Z" fill="#EBEBEB"/>
<path d="M194.345 121.868L151.753 178.959C146.316 186.29 141.975 192.217 138.93 196.34L135.478 201.089L134.571 202.33C134.465 202.467 134.371 202.612 134.291 202.765C134.413 202.642 134.525 202.508 134.626 202.366L135.532 201.161C136.357 200.074 137.535 198.488 139.057 196.467L151.889 179.095L193.955 121.587C210.403 99.1584 225.256 78.8504 236.13 64.2332C241.567 56.9111 245.99 51.0026 249.071 46.9519C250.62 44.922 251.789 43.3271 252.696 42.303C253.081 41.7193 253.521 41.1731 254.01 40.6719C253.712 41.3145 253.344 41.9223 252.913 42.4843C252.152 43.5899 251.01 45.2029 249.524 47.2781C246.561 51.4195 242.211 57.3914 236.837 64.7317C226.017 79.385 210.983 99.5753 194.345 121.868Z" fill="#EBEBEB"/>
<path d="M199.075 126.018L148.128 175.86L132.723 191.02L128.572 195.18L127.503 196.276C127.377 196.393 127.262 196.52 127.159 196.657C127.297 196.555 127.427 196.443 127.548 196.322L128.663 195.27L132.868 191.174L148.273 176.023L198.776 125.755C218.468 106.118 236.329 88.3653 249.343 75.5968C255.84 69.2534 261.123 64.0608 264.811 60.5356C266.624 58.7685 268.092 57.4092 269.08 56.503C269.556 56.007 270.081 55.5607 270.647 55.1709C270.24 55.723 269.785 56.2385 269.288 56.7115C268.382 57.6811 266.986 59.1038 265.201 60.9162C261.622 64.5411 256.402 69.7699 249.922 76.1768C236.973 88.9724 218.976 106.589 199.075 126.018Z" fill="#EBEBEB"/>
<path d="M203.108 130.848L145.029 172.126L127.494 184.758L122.746 188.22L121.522 189.126C121.38 189.223 121.246 189.332 121.124 189.453C121.275 189.374 121.421 189.283 121.559 189.181L122.818 188.275L127.612 184.894L145.165 172.307L202.863 130.513C225.374 114.201 245.781 99.421 260.616 88.8274C268.038 83.5261 274.055 79.2669 278.242 76.358C280.335 74.899 281.966 73.7753 283.081 73.0322C283.628 72.6199 284.214 72.2618 284.83 71.9629C284.351 72.4595 283.823 72.9058 283.253 73.295C282.193 74.1197 280.607 75.3068 278.559 76.8202C274.454 79.856 268.491 84.1967 261.096 89.5071C246.307 100.155 225.79 114.763 203.108 130.848Z" fill="#EBEBEB"/>
<path d="M206.343 136.259L142.518 167.976L123.225 177.672L118.005 180.391L116.655 181.107C116.494 181.175 116.341 181.263 116.202 181.37C116.367 181.311 116.527 181.242 116.682 181.161L118.06 180.5L123.325 177.908L142.627 168.23L206.152 135.96C230.937 123.345 253.402 111.963 269.705 103.816C277.86 99.7475 284.476 96.4761 289.07 94.2559C291.363 93.1413 293.148 92.2894 294.372 91.7366C294.975 91.4115 295.609 91.1474 296.265 90.9482C295.708 91.3472 295.117 91.6959 294.498 91.9904C293.32 92.6338 291.571 93.5672 289.315 94.709C284.784 97.0561 278.214 100.409 270.076 104.523C253.81 112.697 231.254 123.907 206.343 136.259Z" fill="#EBEBEB"/>
<path d="M208.681 142.104L140.67 163.345L120.136 169.888L114.553 171.7L113.103 172.19C112.938 172.239 112.777 172.303 112.623 172.38C112.792 172.348 112.958 172.306 113.121 172.253L114.59 171.818L120.199 170.087L140.779 163.563L208.59 141.687C235.052 133.132 259.021 125.42 276.411 119.938C285.11 117.219 292.152 115.008 297.036 113.54C299.474 112.806 301.377 112.244 302.673 111.882C303.321 111.659 303.988 111.498 304.666 111.401C304.054 111.714 303.414 111.969 302.754 112.163C301.495 112.616 299.619 113.25 297.199 114.057C292.36 115.67 285.346 117.953 276.665 120.726C259.265 126.299 235.224 133.83 208.681 142.104Z" fill="#EBEBEB"/>
<path d="M210.077 148.238L139.574 158.524L118.223 161.741L112.424 162.647L110.919 162.901C110.745 162.926 110.572 162.962 110.403 163.01C110.579 163.011 110.755 162.996 110.928 162.964L112.442 162.765L118.251 161.94L139.601 158.732L210.013 147.803C237.489 143.517 262.374 139.648 280.416 137.011C289.424 135.669 296.728 134.618 301.785 133.929C304.313 133.594 306.27 133.34 307.612 133.186C308.284 133.065 308.967 133.011 309.651 133.023C309 133.243 308.329 133.395 307.648 133.476C306.334 133.721 304.376 134.056 301.866 134.473C296.837 135.298 289.542 136.449 280.534 137.826C262.51 140.599 237.598 144.251 210.077 148.238Z" fill="#EBEBEB"/>
<path d="M95.07 336.412C100.281 333.694 106.407 333.377 112.179 334.328C115.287 334.845 118.523 335.769 120.634 338.107C122.745 340.445 123.144 344.541 120.725 346.544C119.284 347.731 117.263 347.912 115.396 347.894C110.865 347.84 105.854 347.042 102.238 349.761C100.181 351.32 98.8035 353.902 96.3386 354.663C93.8738 355.425 91.2095 353.984 89.9318 351.809C88.7581 349.542 88.4986 346.912 89.2068 344.46C89.4975 342.757 90.178 341.145 91.1951 339.749C92.2122 338.353 93.5384 337.211 95.07 336.412Z" fill="#219653"/>
<path d="M83.1529 313.44C86.3337 317.971 92.514 316.476 95.3867 313.703C98.2594 310.93 99.4647 306.906 100.57 303.073C103.089 294.31 105.627 285.121 103.76 276.204C103.308 273.497 102.119 270.967 100.326 268.891C99.4157 267.87 98.2539 267.106 96.9563 266.675C95.6586 266.244 94.2706 266.161 92.9309 266.435C89.8135 267.26 87.8743 270.313 86.4787 273.222C82.3469 281.798 80.1798 291.188 80.1353 300.708C80.1353 305.139 80.6427 309.77 83.1439 313.44" fill="#219653"/>
<path d="M74.4083 319.911C77.87 315.814 78.5225 309.833 76.982 304.695C75.4414 299.557 71.9706 295.189 67.9743 291.619C63.2629 287.423 57.7773 284.187 51.8257 282.095C49.5269 281.163 47.0533 280.743 44.576 280.862C43.3372 280.934 42.1348 281.308 41.0734 281.95C40.012 282.593 39.1239 283.486 38.4863 284.55C36.7917 287.785 38.4138 291.718 40.1809 294.926C43.2853 300.577 46.8305 305.973 50.7835 311.066C53.9552 315.162 57.5982 319.222 62.4373 321.034C67.2765 322.847 72.315 322.674 74.8796 319.312" fill="#219653"/>
<path d="M82.9812 381.95C83.1464 381.275 83.2435 380.586 83.2712 379.892C83.4162 378.388 83.5974 376.494 83.8149 374.256C84.0943 371.478 84.5178 368.716 85.0836 365.982C85.8247 362.657 86.8308 359.396 88.0922 356.231C89.3288 353.066 91.0068 350.091 93.0764 347.396C94.772 345.197 96.9398 343.407 99.4198 342.158C101.089 341.331 102.878 340.774 104.721 340.509C105.416 340.484 106.105 340.384 106.778 340.21C106.082 340.139 105.381 340.139 104.685 340.21C102.771 340.354 100.898 340.842 99.157 341.65C96.5628 342.872 94.2863 344.677 92.5055 346.925C90.3528 349.659 88.6126 352.694 87.3401 355.932C86.0607 359.147 85.0631 362.468 84.3586 365.855C83.8261 368.622 83.4599 371.418 83.2621 374.229C83.0809 376.621 83.0175 378.56 82.9812 379.892C82.9054 380.576 82.9054 381.266 82.9812 381.95Z" fill="#E2EFDA"/>
<path d="M83.3253 377.618C83.3782 377.3 83.3965 376.978 83.3797 376.657C83.3797 375.941 83.3797 375.035 83.3797 373.938C83.3797 371.555 83.3797 368.112 83.5065 363.87C83.715 355.37 84.4127 346.218 85.8536 333.322C87.1948 321.197 88.9891 307.042 90.8921 297.908C91.2999 295.814 91.7077 293.939 92.0883 292.298C92.4689 290.658 92.768 289.226 93.0761 288.075C93.3842 286.924 93.5473 286.109 93.7195 285.411C93.8086 285.116 93.8633 284.812 93.8826 284.505C93.7338 284.792 93.6211 285.096 93.5473 285.411C93.3389 286.1 93.0761 286.97 92.7589 288.039C92.4417 289.108 92.043 290.586 91.6261 292.226C91.2093 293.866 90.7199 295.742 90.3031 297.826C87.9493 308.667 86.1797 319.627 85.0018 330.658C83.5881 343.581 82.9447 355.352 82.8903 363.87C82.8359 368.13 82.8903 371.582 83.0353 373.966C83.1078 375.071 83.1622 375.977 83.2075 376.684C83.2042 376.999 83.2438 377.313 83.3253 377.618Z" fill="#E2EFDA"/>
<path d="M83.3798 354.917C83.455 353.964 83.455 353.007 83.3798 352.054C83.271 350.241 83.0173 347.523 82.4736 344.306C81.8471 340.494 81.0061 336.722 79.9543 333.005C78.7238 328.432 77.1423 323.96 75.2239 319.63C71.9507 311.65 67.2525 304.332 61.3589 298.035C60.3382 296.953 59.2485 295.939 58.0966 294.999C57.5891 294.573 57.1904 294.156 56.701 293.821L55.4324 292.915C54.6707 292.338 53.8647 291.823 53.0218 291.374C52.8859 291.564 56.4382 293.649 60.924 298.424C66.6279 304.778 71.2037 312.06 74.4536 319.956C76.3294 324.258 77.9158 328.681 79.2022 333.196C80.4437 337.355 81.2683 341.17 81.9208 344.387C82.5732 347.604 82.827 350.241 83.0535 352.063C83.0898 353.021 83.1988 353.975 83.3798 354.917Z" fill="#E2EFDA"/>
<path d="M61.4404 394.953L63.715 426.118H103.742L106.017 394.953H61.4404Z" fill="#E2EFDA"/>
<path d="M110.793 382.674H57.5801V394.953H110.793V382.674Z" fill="#FDC717"/>
<path d="M57.5801 424.922V428.329H60.0812H109.914V424.922H57.5801Z" fill="#A8D29F"/>
<path d="M62.5278 434.319L60.0811 428.329H108.01L105.147 434.319H62.5278Z" fill="#E0E0E0"/>
<path d="M105.274 405.139C105.225 405.245 105.161 405.343 105.083 405.429L104.494 406.218L102.156 409.199L102.057 409.335L101.957 409.199L96.2297 401.27H96.574C94.8703 403.689 92.9492 406.372 90.9374 409.263L90.7562 409.507L90.5568 409.272L83.8871 401.342H84.2768L83.9052 401.804L77.9243 409.299L77.7249 409.553L77.5437 409.29L71.898 401.306H72.2242L65.2736 409.217L65.1558 409.362L65.0561 409.199C64.1499 407.668 63.4159 406.435 62.8812 405.574L62.3284 404.605C62.2555 404.495 62.1975 404.376 62.1562 404.251C62.2442 404.346 62.3231 404.449 62.3919 404.559L63.0081 405.465L65.2917 409.09H65.0742L71.907 401.07L72.0792 400.871L72.2423 401.088L77.9333 409.036H77.5437L83.5065 401.523L83.878 401.061L84.0683 400.826L84.2587 401.061L90.9283 409.036H90.5568L96.2568 401.098L96.42 400.862L96.5831 401.098L102.192 409.099H101.984L104.413 406.19L105.065 405.438C105.183 405.212 105.265 405.13 105.274 405.139Z" fill="#F5F5F5"/>
<path d="M106.542 394.754C106.542 394.89 96.5104 394.999 84.1407 394.999C71.771 394.999 61.7393 394.89 61.7393 394.754C61.7393 394.618 71.771 394.5 84.1407 394.5C96.5104 394.5 106.542 394.618 106.542 394.754Z" fill="#F5F5F5"/>
<path d="M108.599 428.664C108.599 428.8 97.7247 428.909 84.2585 428.909C70.7922 428.909 59.9087 428.8 59.9087 428.664C59.9087 428.528 70.7832 428.411 84.2585 428.411C97.7338 428.411 108.599 428.528 108.599 428.664Z" fill="#CBE2BD"/>
<path d="M401.775 181.134C401.775 181.134 401.775 180.944 401.775 180.59C401.775 180.237 401.775 179.684 401.775 179.022C401.775 177.636 401.775 175.597 401.775 172.951C401.775 167.65 401.775 159.929 401.712 150.169C401.712 130.667 401.639 103.046 401.594 70.5224L401.839 70.758H328.635L328.898 70.4952C328.898 112.181 328.898 150.694 328.853 181.107L328.635 180.889L381.92 181.007L396.646 181.061H400.507H401.848H400.552H396.728L382.056 181.116L328.635 181.225H328.427V181.134C328.427 150.722 328.427 112.262 328.373 70.5224V70.2505H328.644H401.848H402.093V70.4952C402.038 103.119 402.002 130.758 401.966 150.305C401.966 160.037 401.92 167.74 401.902 173.032C401.902 175.651 401.902 177.672 401.902 179.05C401.902 179.72 401.902 180.237 401.902 180.59C401.902 180.944 401.775 181.134 401.775 181.134Z" fill="#E2EFDA"/>
<path d="M414.154 55.2256C413.65 56.1151 413.067 56.9582 412.414 57.7448C411.281 59.2582 409.695 61.3697 407.883 63.5446C406.071 65.7194 404.331 67.7403 403.062 69.1449C402.42 69.9395 401.704 70.6708 400.923 71.3289C401.474 70.4689 402.095 69.6565 402.781 68.9002L407.403 63.2093L412.097 57.5183C412.716 56.6971 413.404 55.9301 414.154 55.2256Z" fill="#E0E0E0"/>
<path d="M402.147 180.771C405.788 186.561 410.071 191.921 414.915 196.748L402.147 180.771Z" fill="white"/>
<path d="M414.915 196.748C414.107 196.147 413.36 195.467 412.686 194.718C410.991 192.988 409.385 191.173 407.874 189.281C406.358 187.39 404.942 185.421 403.633 183.381C403.052 182.56 402.554 181.683 402.147 180.762C402.808 181.521 403.414 182.327 403.959 183.173C405.038 184.677 406.542 186.743 408.309 188.945C410.076 191.147 411.744 193.078 412.976 194.455C413.681 195.168 414.329 195.934 414.915 196.748Z" fill="#E0E0E0"/>
<path d="M316.447 196.313L329.207 180.572L316.447 196.313Z" fill="white"/>
<path d="M329.207 180.572C327.293 183.358 325.233 186.042 323.035 188.61C320.977 191.292 318.778 193.864 316.447 196.313C318.368 193.532 320.428 190.849 322.619 188.275C324.68 185.595 326.879 183.024 329.207 180.572Z" fill="#E0E0E0"/>
<path d="M316.465 55.2256C318.658 57.5821 320.724 60.0535 322.655 62.6293C324.72 65.1001 326.65 67.6805 328.436 70.3592C326.227 68.0099 324.151 65.5381 322.22 62.9555C320.162 60.4857 318.241 57.9052 316.465 55.2256Z" fill="#E0E0E0"/>
<path d="M287.893 245.112C281.694 239.131 267.485 241.025 264.377 245.429C261.77 244.396 258.865 244.409 256.268 245.466C253.671 246.523 251.583 248.542 250.439 251.102L235.478 255.443C232.922 256.177 230.258 256.984 228.382 258.859C226.506 260.735 225.79 264.061 227.566 266.037C222.31 267.776 220.734 275.878 224.957 279.457C224.484 280.084 224.143 280.8 223.957 281.562C223.771 282.324 223.742 283.117 223.873 283.891C224.003 284.664 224.291 285.403 224.717 286.062C225.143 286.721 225.7 287.286 226.352 287.722C222.483 293.039 219.553 298.979 217.689 305.284C216.909 307.912 216.329 310.83 217.453 313.331C218.577 315.833 222.066 317.382 224.177 315.633C223.505 316.738 223.163 318.012 223.192 319.305C223.221 320.597 223.619 321.855 224.34 322.928C221.776 323.155 221.277 327.178 223.162 328.927C225.047 330.676 227.929 330.685 230.493 330.459C233.058 330.232 235.831 329.915 238.033 331.247C238.032 331.561 237.967 331.872 237.843 332.16C237.718 332.448 237.536 332.708 237.308 332.924C233.13 336.802 232.288 343.064 235.894 347.423L236.801 348.547C238.432 350.558 242.238 352.253 244.612 353.295C250.611 355.941 254.037 355.108 260.58 355.651C259.084 359.956 270.222 368.519 281.676 358.624C306.144 363.508 323.633 364.822 348.527 363.254C352.079 363.028 356.32 362.267 357.689 358.977C360.616 359.557 363.633 358.017 365.627 355.787C367.621 353.558 368.772 350.74 369.895 347.967C372.907 346.878 375.507 344.883 377.338 342.255C379.168 339.628 380.139 336.497 380.117 333.295C382.092 331.517 383.676 329.348 384.768 326.925C385.86 324.502 386.436 321.879 386.461 319.222C392.315 317.002 395.106 309.027 391.898 303.644C390.124 296.384 387.163 289.468 383.135 283.173C387.149 282.022 388.318 276.431 386.397 272.724C384.476 269.018 380.607 266.816 376.946 264.804C380.036 265.42 382.437 261.415 381.477 258.397C380.516 255.38 377.652 253.449 374.852 252.054C370.731 249.933 366.367 248.32 361.857 247.251C360.045 241.986 352.795 236.331 347.639 234.292C326.796 226.037 312.415 224.55 287.829 245.167" fill="#263238"/>
<path d="M347.24 319.621C347.959 318.689 348.891 317.943 349.959 317.446H349.732C349.933 317.377 350.139 317.325 350.348 317.292C350.717 317.146 351.111 317.077 351.507 317.09C351.903 317.102 352.292 317.196 352.65 317.364C353.96 317.709 355.094 318.529 355.831 319.666C356.413 320.681 356.705 321.836 356.676 323.006C356.648 324.175 356.299 325.314 355.668 326.3C355.219 327.174 354.517 327.892 353.654 328.362C352.79 328.832 351.806 329.03 350.828 328.933C349.85 328.835 348.925 328.445 348.171 327.814C347.418 327.182 346.873 326.339 346.606 325.393C346.218 324.455 346.073 323.435 346.184 322.426C346.295 321.417 346.658 320.452 347.24 319.621Z" fill="#455A64"/>
<path d="M346.796 279.992C344.267 266.154 333.003 250.151 319.292 253.268L277.235 269.362C275.223 269.815 273.455 271.007 272.28 272.703C271.105 274.398 270.61 276.472 270.892 278.515L283.361 371.238C284.15 377.098 286.938 382.505 291.254 386.546C295.571 390.587 301.15 393.013 307.049 393.413C310.718 393.661 314.397 393.117 317.837 391.82C321.277 390.522 324.398 388.5 326.989 385.891C329.579 383.283 331.579 380.148 332.853 376.699C334.127 373.25 334.645 369.567 334.372 365.9C333.891 359.503 333.547 354.691 333.547 354.727C333.547 354.763 351 349.661 351.943 325.991C352.423 314.229 349.605 295.316 346.796 279.992Z" fill="#876760"/>
<path d="M339.845 299.557C339.944 300.333 339.736 301.116 339.265 301.741C338.795 302.366 338.099 302.782 337.326 302.901C336.95 302.977 336.563 302.976 336.188 302.9C335.813 302.824 335.457 302.673 335.141 302.457C334.825 302.241 334.555 301.963 334.349 301.641C334.142 301.319 334.001 300.958 333.936 300.581C333.837 299.806 334.044 299.024 334.513 298.4C334.982 297.775 335.675 297.358 336.447 297.237C336.822 297.161 337.21 297.161 337.586 297.237C337.961 297.313 338.318 297.464 338.635 297.68C338.952 297.897 339.222 298.174 339.43 298.496C339.637 298.819 339.779 299.179 339.845 299.557Z" fill="#263238"/>
<path d="M343.851 290.332C343.524 290.758 341.069 289.353 337.87 289.743C334.671 290.133 332.505 292.018 332.106 291.664C331.916 291.51 332.215 290.758 333.148 289.852C334.415 288.73 335.998 288.027 337.679 287.84C339.342 287.624 341.03 287.941 342.5 288.746C343.597 289.471 344.014 290.133 343.851 290.332Z" fill="#263238"/>
<path d="M310.973 302.439C311.072 303.215 310.864 303.998 310.394 304.623C309.923 305.248 309.227 305.664 308.454 305.783C308.079 305.859 307.692 305.858 307.317 305.782C306.941 305.706 306.585 305.555 306.269 305.339C305.953 305.123 305.684 304.845 305.477 304.523C305.27 304.201 305.13 303.84 305.065 303.463C304.966 302.688 305.173 301.906 305.641 301.281C306.11 300.657 306.804 300.24 307.575 300.119C307.951 300.043 308.338 300.043 308.714 300.119C309.09 300.195 309.447 300.346 309.763 300.562C310.08 300.778 310.35 301.056 310.558 301.378C310.766 301.7 310.907 302.061 310.973 302.439Z" fill="#263238"/>
<path d="M312.414 294.655C312.088 295.09 309.632 293.685 306.433 294.075C303.234 294.465 301.068 296.349 300.67 295.996C300.479 295.842 300.769 295.09 301.712 294.229C302.98 293.108 304.561 292.403 306.243 292.208C307.91 292.011 309.597 292.344 311.064 293.16C312.151 293.803 312.577 294.464 312.414 294.655Z" fill="#263238"/>
<path d="M326.859 317.065C326.859 316.884 328.78 316.304 331.961 315.507C332.768 315.325 333.52 315.072 333.592 314.492C333.561 313.64 333.27 312.818 332.759 312.136L329.596 306.191C325.192 297.709 321.893 290.704 322.229 290.532C322.564 290.359 326.433 297.083 330.847 305.556C331.907 307.65 332.931 309.643 333.9 311.556C334.536 312.481 334.822 313.602 334.707 314.718C334.623 315.021 334.471 315.3 334.262 315.534C334.053 315.768 333.793 315.951 333.502 316.068C333.067 316.249 332.609 316.37 332.142 316.431C328.907 316.984 326.895 317.238 326.859 317.065Z" fill="#263238"/>
<path d="M333.565 354.727C322.648 356.187 311.54 354.59 301.477 350.114C301.477 350.114 310.919 365.175 333.91 360.246L333.565 354.727Z" fill="#664D49"/>
<path d="M327.294 324.731C326.448 323.758 325.376 323.005 324.173 322.539C322.969 322.073 321.671 321.908 320.389 322.058C319.553 322.166 318.756 322.477 318.067 322.963C317.379 323.45 316.819 324.097 316.438 324.849C316.067 325.693 315.937 326.622 316.06 327.534C316.183 328.447 316.555 329.309 317.136 330.024C317.81 330.756 318.69 331.267 319.661 331.49C320.631 331.713 321.646 331.638 322.573 331.274C324.29 330.482 325.791 329.289 326.95 327.794C327.346 327.429 327.655 326.98 327.856 326.48C327.948 326.207 327.967 325.915 327.911 325.632C327.856 325.349 327.727 325.085 327.539 324.867" fill="#664D49"/>
<path d="M317.688 320.391C318.205 320.3 318.595 323.771 321.902 325.892C325.21 328.012 328.826 327.187 328.907 327.704C328.989 327.921 328.164 328.483 326.606 328.71C324.569 328.982 322.503 328.526 320.77 327.423C319.113 326.359 317.932 324.697 317.471 322.783C317.163 321.306 317.453 320.4 317.688 320.391Z" fill="#263238"/>
<path d="M312.251 281.297C312.034 282.203 308.789 282.203 305.083 283.11C301.377 284.016 298.45 285.393 297.833 284.677C297.562 284.324 297.997 283.445 299.12 282.457C300.635 281.229 302.41 280.361 304.309 279.92C306.209 279.479 308.184 279.476 310.085 279.911C311.581 280.264 312.351 280.862 312.251 281.297Z" fill="#263238"/>
<path d="M341.413 279.43C340.942 280.228 338.64 279.729 335.976 280.01C333.312 280.291 331.128 281.08 330.539 280.382C330.267 280.037 330.539 279.267 331.445 278.461C332.668 277.481 334.153 276.885 335.714 276.748C337.275 276.611 338.842 276.939 340.217 277.69C341.25 278.334 341.621 279.004 341.413 279.43Z" fill="#263238"/>
<path d="M358.087 290.422C357.725 286.735 356.099 283.287 353.484 280.663C352.007 279.303 350.194 278.316 348.862 276.811C345.98 273.558 346.007 268.746 344.585 264.641C343.64 261.996 342.078 259.615 340.029 257.694C337.981 255.773 335.504 254.367 332.804 253.594C328.273 252.362 323.37 252.933 319.111 251.057C315.958 249.67 313.448 247.042 310.221 245.846C303.932 243.508 297.109 247.151 291.617 250.993C290.81 255.642 293.982 259.376 297.054 262.964C298.602 264.752 300.52 266.183 302.674 267.159C304.828 268.136 307.168 268.634 309.533 268.619C313.158 268.565 317.38 267.432 320.135 269.842C322.89 272.253 322.337 277.273 324.775 280.237C328.273 284.487 335.341 282.258 340.28 284.677C344.095 286.544 345.953 290.803 348.074 294.482C350.194 298.161 353.665 301.904 357.879 301.397C358.369 297.759 358.439 294.076 358.087 290.422Z" fill="#263238"/>
<path d="M301.322 258.633C290.637 259.259 280.174 261.948 270.511 266.553C267.648 267.931 264.693 269.616 263.207 272.425C261.902 274.899 261.938 277.863 262.174 280.636C262.917 289.353 267.222 299.784 271.145 307.613L282.527 313.341C290.774 310.731 285.853 296.521 284.92 289.281C287.741 287.73 290.072 285.42 291.646 282.612C293.221 279.804 293.977 276.611 293.828 273.395C296.108 271.658 297.967 269.428 299.264 266.872C300.562 264.315 301.266 261.499 301.322 258.633Z" fill="#263238"/>
<path d="M282.147 310.214C281.449 305.248 275.241 304.722 271.145 307.613C268.889 309.199 267.321 312.144 268.019 317.4C269.831 331.483 283.615 326.716 283.588 326.308C283.57 326.064 282.962 316.032 282.147 310.214Z" fill="#876760"/>
<path d="M278.586 321.542C278.522 321.542 278.368 321.75 277.978 321.995C277.431 322.313 276.783 322.411 276.166 322.267C274.607 321.922 273.04 319.72 272.641 317.192C272.447 315.982 272.525 314.744 272.867 313.567C272.94 313.109 273.124 312.676 273.402 312.305C273.679 311.934 274.044 311.636 274.462 311.438C274.736 311.327 275.039 311.316 275.321 311.405C275.602 311.495 275.843 311.679 276.003 311.927C276.239 312.289 276.184 312.589 276.266 312.598C276.347 312.607 276.538 312.326 276.347 311.755C276.223 311.417 275.986 311.132 275.677 310.948C275.25 310.707 274.746 310.642 274.272 310.767C273.71 310.959 273.207 311.292 272.809 311.732C272.411 312.173 272.132 312.708 271.997 313.286C271.562 314.584 271.447 315.967 271.662 317.319C272.124 320.146 273.928 322.611 276.039 322.928C276.431 322.991 276.832 322.965 277.212 322.85C277.592 322.735 277.941 322.536 278.232 322.267C278.604 321.886 278.64 321.596 278.586 321.542Z" fill="#664D49"/>
<path d="M270.91 325.284C271.629 324.352 272.561 323.607 273.629 323.11H273.411C273.61 323.043 273.813 322.988 274.018 322.946C274.387 322.802 274.782 322.735 275.178 322.749C275.573 322.763 275.962 322.858 276.32 323.028C277.625 323.372 278.756 324.189 279.492 325.321C280.074 326.336 280.366 327.491 280.337 328.66C280.309 329.83 279.96 330.969 279.329 331.954C278.883 332.832 278.182 333.555 277.318 334.028C276.454 334.5 275.467 334.701 274.487 334.603C273.507 334.505 272.58 334.113 271.827 333.479C271.074 332.844 270.53 331.997 270.267 331.048C269.885 330.11 269.745 329.091 269.857 328.085C269.969 327.078 270.331 326.116 270.91 325.284Z" fill="#455A64"/>
<path d="M277.453 327.604C277.453 327.604 277.453 327.668 277.453 327.795C277.431 327.986 277.379 328.172 277.299 328.347C276.991 329.037 276.452 329.597 275.776 329.933C274.709 330.497 273.537 330.834 272.333 330.921C271.573 330.998 270.808 330.998 270.049 330.921C269.182 330.864 268.33 330.674 267.521 330.359L267.684 330.259C267.575 331.472 267.155 332.635 266.465 333.637C265.774 334.639 264.836 335.445 263.742 335.978C262.647 336.51 261.434 336.751 260.219 336.676C259.005 336.602 257.83 336.214 256.809 335.552L257.054 335.488C256.668 336.161 256.033 336.656 255.287 336.866C254.536 337.088 253.736 337.088 252.985 336.866C252.202 336.638 251.515 336.161 251.028 335.506C250.541 334.836 250.229 334.054 250.121 333.232C249.938 331.531 250.362 329.82 251.318 328.402C252.305 326.961 253.468 325.649 254.779 324.496L254.825 324.822C254.211 324.495 253.672 324.043 253.243 323.495C252.813 322.947 252.503 322.316 252.333 321.641C251.953 320.26 251.988 318.798 252.432 317.437C252.924 316.071 253.675 314.812 254.643 313.73C255.626 312.638 256.676 311.609 257.788 310.649V310.975C257.238 310.466 256.803 309.845 256.511 309.154C256.219 308.464 256.077 307.719 256.093 306.97C256.078 305.435 256.526 303.932 257.38 302.656C259.03 300.201 261.576 298.723 263.923 297.337L263.823 297.591C263.349 296.145 263.232 294.606 263.483 293.105C263.733 291.604 264.344 290.186 265.262 288.973C266.181 287.759 267.38 286.787 268.756 286.138C270.133 285.489 271.646 285.184 273.166 285.248L272.967 285.502C272.653 284.303 272.616 283.048 272.859 281.833C273.103 280.617 273.62 279.473 274.372 278.488C275.032 277.545 275.888 276.755 276.881 276.172C277.874 275.588 278.981 275.226 280.126 275.108L279.963 275.298C279.906 274.096 280.121 272.896 280.592 271.789C281.063 270.681 281.777 269.694 282.682 268.9C283.456 268.181 284.369 267.627 285.364 267.272C286.36 266.917 287.417 266.768 288.472 266.834L288.327 266.988C288.31 265.693 288.622 264.415 289.233 263.273C289.727 262.264 290.386 261.346 291.182 260.554C292.43 259.244 294.078 258.387 295.867 258.116L296.392 258.044H296.9C297.201 258.02 297.505 258.02 297.806 258.044C298.272 258.1 298.733 258.194 299.184 258.325L299.999 258.606C300.094 258.632 300.185 258.668 300.271 258.714L299.99 258.642L299.165 258.397C298.701 258.283 298.228 258.204 297.752 258.162C297.45 258.142 297.147 258.142 296.846 258.162H296.347L295.831 258.243C294.093 258.542 292.502 259.401 291.3 260.69C290.522 261.483 289.885 262.402 289.415 263.409C288.843 264.514 288.557 265.744 288.581 266.988V267.151H288.427C287.412 267.096 286.397 267.247 285.443 267.594C284.488 267.941 283.614 268.478 282.872 269.172C282.001 269.931 281.313 270.877 280.859 271.939C280.406 273.002 280.198 274.153 280.253 275.307V275.488H280.072C278.987 275.611 277.94 275.963 277.002 276.523C276.065 277.082 275.257 277.836 274.634 278.733C273.919 279.673 273.427 280.764 273.196 281.923C272.965 283.081 273.002 284.278 273.302 285.42L273.384 285.683H273.103C271.653 285.627 270.212 285.922 268.9 286.542C267.589 287.163 266.447 288.091 265.572 289.248C264.696 290.404 264.113 291.755 263.872 293.186C263.63 294.616 263.738 296.084 264.186 297.464L264.24 297.627L264.086 297.718C261.748 299.104 259.256 300.563 257.688 302.901C256.885 304.108 256.462 305.529 256.474 306.979C256.458 307.667 256.588 308.35 256.855 308.984C257.122 309.619 257.52 310.189 258.024 310.658L258.205 310.821L258.024 310.975C255.849 312.915 253.665 314.945 252.786 317.582C252.364 318.86 252.329 320.235 252.686 321.533C252.836 322.155 253.117 322.738 253.509 323.245C253.901 323.751 254.396 324.168 254.961 324.469L255.214 324.605L255.006 324.795C253.721 325.928 252.577 327.212 251.599 328.619C250.697 329.949 250.29 331.552 250.448 333.15C250.499 333.899 250.771 334.617 251.229 335.212C251.687 335.807 252.31 336.253 253.021 336.494C253.676 336.739 254.393 336.756 255.059 336.544C255.724 336.332 256.299 335.903 256.691 335.325L256.782 335.162L256.927 335.262C257.993 335.946 259.228 336.322 260.494 336.349C261.76 336.377 263.01 336.053 264.104 335.416C265.01 334.859 265.777 334.103 266.346 333.204C266.914 332.306 267.27 331.289 267.385 330.232V330.069L267.53 330.133C268.314 330.448 269.142 330.64 269.986 330.703C270.733 330.771 271.485 330.771 272.233 330.703C273.416 330.64 274.573 330.331 275.631 329.797C276.294 329.479 276.833 328.95 277.163 328.293C277.407 327.867 277.426 327.595 277.453 327.604Z" fill="#455A64"/>
<path d="M222.482 316.404C222.256 316.155 222.056 315.885 221.884 315.597C221.392 314.762 221.069 313.838 220.933 312.878C220.704 311.317 220.997 309.725 221.766 308.347C222.285 307.438 222.987 306.646 223.828 306.022C224.669 305.398 225.63 304.955 226.651 304.723L226.542 304.904C225.894 302.532 226.169 300.003 227.312 297.826C227.927 296.609 228.796 295.536 229.859 294.682C231.035 293.871 232.285 293.174 233.592 292.598C234.252 292.274 234.862 291.859 235.405 291.365C235.922 290.855 236.319 290.236 236.565 289.553C237.099 288.157 237.181 286.535 237.87 285.022C238.607 283.47 239.791 282.175 241.271 281.301C242.75 280.428 244.456 280.016 246.171 280.119L245.944 280.373C245.574 278.673 245.6 276.911 246.019 275.223C246.439 273.535 247.24 271.966 248.362 270.637C249.483 269.307 250.895 268.254 252.489 267.557C254.083 266.86 255.815 266.538 257.553 266.617L257.335 266.87C256.977 264.998 257.164 263.062 257.873 261.292C258.583 259.522 259.784 257.993 261.336 256.886C262.888 255.778 264.725 255.139 266.629 255.044C268.533 254.949 270.425 255.402 272.079 256.349H271.853C273.167 254.9 274.777 253.75 276.574 252.978C278.165 252.252 279.843 251.734 281.567 251.438C284.348 250.923 287.199 250.908 289.986 251.392C291.779 251.679 293.514 252.254 295.124 253.096C295.544 253.316 295.947 253.568 296.329 253.848C296.601 254.029 296.728 254.129 296.728 254.129C296.728 254.129 296.166 253.767 295.07 253.223C293.457 252.427 291.729 251.889 289.949 251.628C287.185 251.174 284.362 251.217 281.612 251.755C279.919 252.06 278.271 252.581 276.71 253.304C274.981 254.071 273.436 255.199 272.179 256.612L272.079 256.73L271.952 256.648C270.437 255.82 268.731 255.403 267.005 255.438C265.278 255.472 263.591 255.959 262.111 256.848C260.503 257.883 259.234 259.367 258.46 261.116C257.687 262.865 257.444 264.803 257.761 266.689L257.806 266.952H257.534C255.863 266.88 254.197 267.192 252.666 267.864C251.134 268.536 249.776 269.55 248.697 270.828C247.618 272.107 246.847 273.615 246.442 275.239C246.037 276.862 246.009 278.556 246.361 280.192L246.424 280.472H246.143C244.514 280.368 242.89 280.755 241.483 281.584C240.075 282.413 238.949 283.645 238.25 285.121C237.589 286.535 237.498 288.148 236.945 289.652C236.679 290.397 236.245 291.069 235.677 291.619C235.122 292.136 234.496 292.572 233.819 292.915C232.528 293.48 231.293 294.165 230.131 294.963C229.097 295.777 228.253 296.807 227.657 297.98C226.538 300.079 226.253 302.523 226.859 304.822L226.905 304.967H226.751C225.762 305.183 224.83 305.603 224.012 306.199C223.195 306.795 222.51 307.554 222.002 308.429C221.228 309.756 220.91 311.299 221.096 312.824C221.223 313.779 221.531 314.702 222.002 315.543C222.274 316.159 222.537 316.395 222.482 316.404Z" fill="#455A64"/>
<path d="M357.987 310.386C357.886 310.213 357.821 310.02 357.798 309.821C357.774 309.621 357.793 309.419 357.852 309.226C357.987 308.757 358.243 308.332 358.595 307.994C359.084 307.55 359.657 307.208 360.28 306.988C361.041 306.734 361.762 306.37 362.419 305.91C363.136 305.288 363.635 304.453 363.842 303.526C364.092 302.457 364.132 301.349 363.959 300.264C363.823 299.095 363.552 297.872 363.461 296.549C363.234 293.875 364.177 291.066 364.648 288.066C364.907 286.516 364.858 284.93 364.503 283.399C364.327 282.6 363.981 281.848 363.489 281.194C362.996 280.541 362.368 280.001 361.649 279.612C360.144 278.832 358.35 278.705 356.565 278.288C355.643 278.108 354.757 277.774 353.946 277.301C353.126 276.776 352.455 276.049 351.997 275.189C351.178 273.448 350.543 271.626 350.103 269.752C349.848 268.826 349.45 267.946 348.925 267.142C348.395 266.33 347.606 265.721 346.687 265.411C345.385 265.164 344.058 265.082 342.736 265.167C342.051 265.156 341.372 265.037 340.724 264.813C340.073 264.567 339.501 264.151 339.066 263.608C338.321 262.527 337.732 261.346 337.317 260.101C336.872 258.95 336.19 257.907 335.314 257.038C334.484 256.21 333.493 255.562 332.401 255.133C331.31 254.704 330.142 254.504 328.971 254.546C326.763 254.649 324.676 255.581 323.126 257.156L322.944 257.337L322.827 257.119C321.896 255.442 320.619 253.981 319.08 252.836C317.54 251.691 315.775 250.886 313.9 250.477C312.334 250.149 310.718 250.128 309.143 250.414C307.802 250.637 306.513 251.101 305.337 251.782C303.687 252.749 302.35 254.171 301.485 255.878C301.251 256.322 301.048 256.783 300.878 257.255L300.742 257.618C300.742 257.699 300.688 257.736 300.679 257.736C300.677 257.693 300.677 257.651 300.679 257.609L300.788 257.237C300.934 256.751 301.122 256.278 301.35 255.824C302.19 254.068 303.525 252.597 305.192 251.592C306.384 250.883 307.695 250.397 309.061 250.16C310.668 249.847 312.321 249.847 313.928 250.16C315.858 250.573 317.678 251.395 319.265 252.571C320.851 253.746 322.168 255.248 323.126 256.974H322.827C324.442 255.335 326.617 254.364 328.916 254.256C330.15 254.205 331.381 254.409 332.532 254.857C333.683 255.305 334.729 255.985 335.604 256.857C336.522 257.76 337.238 258.847 337.707 260.046C338.108 261.252 338.675 262.396 339.392 263.445C339.809 263.919 340.328 264.291 340.911 264.533C341.494 264.775 342.124 264.88 342.754 264.84C344.113 264.753 345.478 264.844 346.814 265.112C347.806 265.431 348.666 266.068 349.261 266.925C349.806 267.764 350.221 268.68 350.493 269.643C350.914 271.491 351.521 273.292 352.306 275.017C352.733 275.816 353.356 276.493 354.118 276.983C354.891 277.417 355.73 277.723 356.601 277.89C358.341 278.288 360.171 278.424 361.775 279.258C362.569 279.659 363.251 280.25 363.76 280.98C364.25 281.685 364.607 282.475 364.811 283.309C365.176 284.885 365.222 286.518 364.947 288.112C364.449 291.166 363.506 293.93 363.706 296.53C363.796 297.826 364.05 299.05 364.177 300.228C364.342 301.345 364.29 302.483 364.023 303.581C363.797 304.556 363.26 305.431 362.491 306.073C361.813 306.537 361.072 306.9 360.289 307.151C359.68 307.337 359.116 307.645 358.631 308.057C358.284 308.373 358.025 308.772 357.879 309.217C357.788 309.609 357.826 310.018 357.987 310.386Z" fill="#455A64"/>
<path d="M383.842 286.481C383.842 286.481 383.778 286.399 383.679 286.227L383.225 285.466C382.836 284.768 382.265 283.771 381.549 282.511C380.833 281.252 379.972 279.621 378.83 277.881C377.61 275.854 375.841 274.214 373.728 273.15C372.541 272.616 371.191 272.298 369.814 271.809C369.103 271.564 368.427 271.229 367.802 270.812C367.14 270.372 366.598 269.774 366.225 269.072C365.446 267.659 365.319 265.991 364.657 264.541C364.349 263.803 363.829 263.172 363.162 262.729C362.432 262.3 361.636 261.994 360.806 261.823C359.929 261.644 359.071 261.386 358.241 261.052C357.367 260.666 356.637 260.012 356.157 259.186C355.187 257.536 355.033 255.561 354.553 253.748C354.353 252.837 353.967 251.976 353.42 251.22C352.84 250.492 351.997 250.02 351.073 249.906C349.188 249.661 347.231 250.45 345.138 250.278C344.089 250.167 343.101 249.733 342.31 249.036C341.567 248.352 340.907 247.582 340.344 246.743C339.806 245.941 339.229 245.167 338.613 244.424C338.025 243.702 337.264 243.141 336.402 242.792C334.662 242.14 332.777 242.702 331.064 243.227C329.371 243.912 327.55 244.221 325.727 244.134C324.021 243.823 322.385 243.209 320.897 242.321C319.527 241.507 318.079 240.833 316.574 240.309C313.797 239.6 310.874 239.72 308.164 240.654C305.921 241.392 303.876 242.632 302.183 244.279C300.923 245.547 299.865 247.002 299.048 248.592C298.545 249.604 298.127 250.656 297.797 251.737L297.535 252.579C297.508 252.679 297.472 252.777 297.426 252.869C297.432 252.767 297.453 252.666 297.489 252.57C297.544 252.353 297.616 252.072 297.716 251.709C298.01 250.612 298.404 249.544 298.894 248.52C299.694 246.894 300.746 245.404 302.011 244.106C303.716 242.405 305.786 241.116 308.065 240.337C310.833 239.36 313.827 239.221 316.674 239.938C318.205 240.463 319.681 241.14 321.078 241.959C322.528 242.806 324.118 243.389 325.772 243.68C327.535 243.777 329.298 243.486 330.937 242.829C331.823 242.527 332.732 242.299 333.656 242.149C334.632 241.966 335.64 242.055 336.57 242.405C337.5 242.755 338.316 243.353 338.93 244.134C339.56 244.885 340.147 245.672 340.688 246.49C341.226 247.302 341.855 248.05 342.564 248.719C343.284 249.361 344.187 249.76 345.147 249.861C347.095 250.033 349.043 249.236 351.1 249.489C352.133 249.619 353.074 250.15 353.719 250.966C354.307 251.778 354.718 252.704 354.925 253.685C355.414 255.497 355.568 257.446 356.474 258.977C356.914 259.728 357.576 260.323 358.368 260.681C359.177 261.009 360.014 261.264 360.869 261.442C361.736 261.605 362.569 261.911 363.334 262.348C364.067 262.839 364.638 263.536 364.974 264.351C365.636 265.919 365.772 267.568 366.506 268.882C367.266 270.142 368.478 271.066 369.895 271.465C371.236 271.954 372.614 272.28 373.819 272.842C375.971 273.944 377.765 275.635 378.993 277.718C380.144 279.485 380.96 281.107 381.712 282.403L383.325 285.393L383.733 286.182C383.779 286.277 383.815 286.378 383.842 286.481Z" fill="#455A64"/>
<path d="M367.711 272.787L367.964 272.724C368.226 272.698 368.491 272.735 368.735 272.833C369.178 273.07 369.555 273.414 369.831 273.833C370.108 274.252 370.276 274.734 370.321 275.234C370.378 275.95 370.329 276.671 370.176 277.373C369.995 278.184 369.931 279.017 369.985 279.847C370.156 280.781 370.565 281.655 371.172 282.384C371.789 283.2 372.541 283.988 373.184 284.958C373.55 285.461 373.795 286.041 373.9 286.654C374.005 287.267 373.968 287.896 373.791 288.492C373.429 289.724 372.631 290.803 372.296 292.053C372.013 293.377 372.25 294.76 372.958 295.914C373.61 297.174 374.489 298.37 375.133 299.765C375.476 300.473 375.685 301.238 375.749 302.022C375.801 302.833 375.677 303.646 375.386 304.405C374.716 305.881 373.915 307.294 372.994 308.628C372.044 309.959 371.627 311.599 371.825 313.222C372.124 314.835 373.157 316.267 373.882 317.862C374.277 318.666 374.52 319.535 374.598 320.427C374.641 321.316 374.476 322.204 374.118 323.019C373.381 324.528 372.468 325.946 371.399 327.241C370.391 328.468 369.651 329.89 369.224 331.419C368.943 332.954 368.558 334.467 368.073 335.95C367.788 336.672 367.342 337.32 366.768 337.844C366.194 338.322 365.541 338.696 364.838 338.95C364.189 339.196 363.554 339.478 362.935 339.792C362.361 340.129 361.836 340.543 361.376 341.025C360.541 341.995 359.838 343.07 359.283 344.224C358.712 345.32 358.187 346.399 357.57 347.377C356.49 349.175 354.855 350.574 352.912 351.365C351.461 351.963 349.894 352.229 348.327 352.144C347.34 352.094 346.367 351.886 345.445 351.528C345.134 351.397 344.831 351.246 344.539 351.075C345.743 351.613 347.037 351.921 348.354 351.981C349.908 352.048 351.457 351.763 352.885 351.147C354.78 350.363 356.369 348.986 357.416 347.223C358.005 346.263 358.522 345.193 359.084 344.079C359.647 342.894 360.363 341.788 361.213 340.789C361.696 340.279 362.248 339.84 362.853 339.484C363.48 339.142 364.128 338.839 364.793 338.578C365.451 338.331 366.064 337.976 366.605 337.527C367.131 337.038 367.54 336.437 367.801 335.769C368.266 334.308 368.639 332.818 368.916 331.31C369.352 329.726 370.114 328.251 371.154 326.979C372.215 325.709 373.127 324.323 373.873 322.846C374.201 322.09 374.353 321.269 374.317 320.445C374.237 319.607 374.006 318.791 373.637 318.034C372.93 316.485 371.879 315.035 371.553 313.286C371.394 312.422 371.447 311.533 371.707 310.694C371.969 309.892 372.328 309.125 372.776 308.41C373.682 307.094 374.474 305.703 375.142 304.251C375.415 303.547 375.535 302.794 375.495 302.04C375.429 301.304 375.233 300.586 374.915 299.919C374.299 298.569 373.429 297.373 372.767 296.086C372.025 294.845 371.782 293.368 372.088 291.954C372.468 290.613 373.275 289.552 373.619 288.383C373.786 287.832 373.823 287.25 373.727 286.683C373.631 286.115 373.405 285.577 373.066 285.112C372.468 284.206 371.716 283.372 371.1 282.538C370.461 281.757 370.045 280.818 369.895 279.82C369.847 278.968 369.921 278.114 370.112 277.282C370.277 276.604 370.341 275.904 370.302 275.207C370.267 274.727 370.115 274.263 369.861 273.854C369.607 273.446 369.258 273.104 368.844 272.86C368.483 272.715 368.086 272.69 367.711 272.787Z" fill="#455A64"/>
<path d="M222.8 315.924C222.426 315.96 222.05 315.96 221.676 315.924C220.589 315.79 219.542 315.429 218.604 314.863C217.081 313.969 215.918 312.572 215.314 310.912C214.919 309.806 214.773 308.627 214.887 307.458C215.002 306.289 215.374 305.16 215.976 304.152C216.737 303.029 217.611 301.987 218.586 301.044C219.643 300.053 220.461 298.836 220.978 297.482C221.361 295.973 221.164 294.376 220.425 293.006C219.773 291.528 218.839 290.115 218.196 288.475C217.491 286.671 217.17 284.739 217.254 282.804C217.339 280.869 217.827 278.973 218.687 277.238C219.547 275.503 220.76 273.966 222.248 272.727C223.737 271.488 225.468 270.573 227.331 270.042L227.222 270.378C226.501 269.511 226.004 268.481 225.772 267.378C225.554 266.262 225.554 265.114 225.772 263.998C225.98 262.868 226.382 261.783 226.959 260.79C227.559 259.794 228.308 258.895 229.179 258.126C231.813 255.958 234.916 254.434 238.241 253.676C241.331 252.85 244.523 252.472 247.72 252.552L247.512 252.77C247.432 250.948 247.848 249.138 248.716 247.534C249.584 245.93 250.872 244.592 252.442 243.663C253.939 242.817 255.625 242.362 257.344 242.34C258.957 242.406 260.551 242.711 262.075 243.246C262.796 243.445 263.538 243.558 264.286 243.581C265.007 243.589 265.724 243.46 266.397 243.2C267.685 242.65 268.902 241.948 270.022 241.107C271.084 240.323 272.245 239.683 273.475 239.204C274.612 238.779 275.806 238.528 277.018 238.461C279.081 238.321 281.146 238.721 283.008 239.621C284.373 240.297 285.602 241.218 286.633 242.34C287.279 243.047 287.839 243.829 288.3 244.668C288.462 244.96 288.601 245.263 288.717 245.575C288.717 245.575 288.563 245.276 288.237 244.723C286.985 242.585 285.119 240.873 282.881 239.811C281.423 239.142 279.846 238.768 278.242 238.712C276.639 238.656 275.04 238.919 273.538 239.485C272.337 239.964 271.204 240.598 270.167 241.37C269.049 242.231 267.832 242.955 266.542 243.527C265.832 243.804 265.075 243.943 264.313 243.934C263.535 243.914 262.763 243.801 262.011 243.599C260.514 243.092 258.951 242.805 257.371 242.747C255.721 242.78 254.105 243.222 252.668 244.034C251.144 244.918 249.89 246.201 249.042 247.745C248.194 249.29 247.784 251.037 247.856 252.797V253.024H247.63C244.475 252.943 241.325 253.319 238.278 254.138C235.032 254.888 232.005 256.38 229.433 258.497C228.595 259.239 227.874 260.104 227.294 261.062C226.748 261.986 226.365 262.998 226.162 264.052C225.953 265.111 225.953 266.201 226.162 267.26C226.38 268.296 226.847 269.263 227.521 270.078L227.729 270.332L227.412 270.423C225.605 270.94 223.925 271.828 222.48 273.03C221.035 274.232 219.856 275.722 219.019 277.405C218.181 279.088 217.704 280.927 217.617 282.805C217.53 284.683 217.835 286.558 218.513 288.311C219.129 289.906 220.054 291.329 220.724 292.842C221.483 294.295 221.676 295.977 221.268 297.564C220.724 298.946 219.872 300.185 218.776 301.189C217.811 302.117 216.943 303.14 216.184 304.243C215.595 305.215 215.227 306.305 215.106 307.436C214.986 308.567 215.116 309.71 215.487 310.785C216.062 312.409 217.179 313.785 218.649 314.682C219.567 315.249 220.591 315.625 221.658 315.788C222.419 315.914 222.8 315.896 222.8 315.924Z" fill="#263238"/>
<path d="M371.979 262.693C371.949 262.605 371.927 262.513 371.916 262.421C371.879 262.222 371.834 261.959 371.78 261.632C371.662 260.917 371.49 259.902 371.272 258.606C371.055 257.31 370.729 255.688 370.239 253.857C369.7 251.786 368.922 249.785 367.919 247.894C366.698 245.61 365.006 243.611 362.953 242.031C361.8 241.178 360.519 240.514 359.156 240.065C357.679 239.678 356.182 239.376 354.671 239.159C353.044 238.911 351.481 238.351 350.067 237.509C348.641 236.573 347.341 235.458 346.197 234.193C345.001 232.951 343.85 231.628 342.573 230.459C341.266 229.253 339.748 228.298 338.096 227.641C334.754 226.44 331.199 225.946 327.657 226.191C324.376 226.331 321.11 226.719 317.888 227.351C312.391 228.348 307.099 230.253 302.228 232.987C298.957 234.854 295.999 237.224 293.465 240.01C293.03 240.509 292.623 240.917 292.305 241.343C291.988 241.768 291.744 242.086 291.526 242.376C291.309 242.666 291.155 242.847 291.037 243.01C290.919 243.173 290.855 243.218 290.855 243.218C290.855 243.218 290.855 243.137 291 242.983L291.454 242.33L292.206 241.261C292.514 240.853 292.913 240.409 293.338 239.893C295.845 237.048 298.795 234.627 302.074 232.724C306.956 229.931 312.275 227.983 317.806 226.961C321.055 226.319 324.348 225.922 327.657 225.774C331.237 225.516 334.833 226.007 338.214 227.215C339.912 227.889 341.47 228.872 342.808 230.115C344.149 231.311 345.3 232.643 346.478 233.875C347.599 235.114 348.868 236.21 350.257 237.138C351.632 237.949 353.148 238.493 354.725 238.742C356.253 238.977 357.766 239.301 359.256 239.711C360.653 240.181 361.966 240.872 363.144 241.759C365.23 243.374 366.943 245.42 368.164 247.758C369.161 249.676 369.927 251.705 370.448 253.803C370.928 255.615 371.209 257.265 371.417 258.579C371.626 259.893 371.762 260.935 371.852 261.632C371.852 261.959 371.916 262.222 371.943 262.43C371.97 262.638 371.979 262.693 371.979 262.693Z" fill="#263238"/>
<path d="M376.927 434.02L375.115 388.302C375.115 388.302 371.725 378.814 370.584 378.814L335.024 366.671C335.024 366.671 322.872 380.056 308.536 378.551C294.2 377.047 282.555 365.321 282.555 365.321L242.972 374.773C240.108 375.353 234.87 377.165 229.868 384.306C224.295 392.28 194.916 433.785 194.916 433.785" fill="#A8D29F"/>
<path d="M369.858 378.551C369.858 378.551 384.358 383.173 389.94 391.564C395.522 399.956 412.831 434.156 412.831 434.156H374.942L362.029 390.803L369.858 378.551Z" fill="#A8D29F"/>
<path d="M376.139 433.875C376.102 433.371 376.102 432.866 376.139 432.362C376.077 430.989 375.914 429.623 375.649 428.275C374.7 423.831 373.319 419.491 371.526 415.316C369.532 410.377 367.421 406.037 365.899 402.892C365.156 401.37 364.53 400.119 364.086 399.177L363.606 398.162C363.541 398.045 363.493 397.92 363.461 397.79C363.55 397.89 363.624 398.003 363.678 398.125L364.24 399.104C364.721 399.956 365.391 401.197 366.189 402.729C367.784 405.837 369.94 410.169 371.952 415.126C373.756 419.325 375.102 423.706 375.967 428.193C376.21 429.56 376.331 430.946 376.329 432.335C376.329 432.824 376.257 433.241 376.238 433.458C376.224 433.601 376.19 433.741 376.139 433.875Z" fill="#263238"/>
<path d="M194.018 387.967C193.203 387.314 196.737 374.374 196.737 374.374C196.737 374.374 187.358 359.875 187.113 355.153C186.868 350.432 190.819 340.844 190.819 340.844L217.734 334.283C217.734 334.283 226.388 349.517 228.11 354.909C229.832 360.3 225.146 378.588 225.146 378.588L220.615 387.967C220.615 387.967 206.841 398.28 194.018 387.967Z" fill="#876760"/>
<path d="M187.195 357.944C186.139 356.11 185.192 354.216 184.358 352.271C182.655 348.438 180.561 344.677 184.358 342.529C184.959 342.159 185.628 341.913 186.326 341.809C187.024 341.705 187.736 341.743 188.418 341.922C188.418 341.922 187.838 338.696 189.868 337.482C190.464 337.128 191.133 336.914 191.823 336.856C192.514 336.798 193.209 336.897 193.855 337.146C193.855 337.146 193.221 332.615 196.139 330.667C197.253 329.977 198.53 329.594 199.84 329.558C201.15 329.521 202.446 329.832 203.597 330.459C203.597 330.459 201.277 310.522 201.078 309.462C200.344 305.583 201.857 302.158 205.917 303.118C207.403 303.472 208.237 304.931 209.977 311.456C211.717 317.98 214.508 329.036 214.508 329.036C214.508 329.036 219.229 336.829 221.468 341.061C223.706 345.293 228.11 354.917 228.482 357.473C229.433 364.07 225.364 372.797 225.364 372.797L196.746 374.373C196.746 374.373 188.264 359.838 187.195 357.944Z" fill="#876760"/>
<path d="M188.953 342.783C189.775 343.697 190.517 344.679 191.173 345.719L193.429 348.982C193.903 349.624 194.316 350.31 194.662 351.03C195.061 351.828 195.179 352.738 194.997 353.612C194.906 354.081 194.689 354.515 194.37 354.87C194.05 355.224 193.641 355.485 193.185 355.624C192.322 355.836 191.411 355.73 190.62 355.325C189.946 355.016 189.306 354.64 188.708 354.201C188.146 353.821 187.629 353.458 187.167 353.105C186.261 352.416 185.518 351.827 185.029 351.41C184.762 351.208 184.524 350.97 184.322 350.703C184.385 350.64 185.518 351.501 187.421 352.788C188.509 353.56 189.654 354.248 190.847 354.845C191.515 355.175 192.277 355.264 193.003 355.099C193.366 354.986 193.691 354.778 193.945 354.495C194.199 354.213 194.371 353.867 194.444 353.495C194.601 352.733 194.496 351.941 194.145 351.247C193.819 350.554 193.434 349.89 192.994 349.263L190.819 345.928C190.115 344.93 189.491 343.879 188.953 342.783Z" fill="#664D49"/>
<path d="M212.423 345.157C212.269 345.157 212.124 343.209 212.722 340.889C213.32 338.569 214.372 336.893 214.535 336.965C214.698 337.038 213.891 338.778 213.329 341.025C212.768 343.272 212.568 345.157 212.423 345.157Z" fill="#664D49"/>
<path d="M223.76 350.975C221.08 348.527 217.763 346.884 214.19 346.236C210.604 345.58 206.941 345.446 203.316 345.837C200.407 346.091 197.081 346.807 195.758 349.281C194.435 351.755 196.039 355.099 198.622 356.531C201.205 357.962 204.394 358.053 207.385 357.79C210.375 357.527 213.402 357.002 216.374 357.446" fill="#876760"/>
<path d="M216.347 357.482C216.347 357.482 215.541 357.41 214.091 357.428C212.641 357.446 210.557 357.681 207.965 357.98C206.539 358.147 205.104 358.204 203.669 358.153C202.001 358.1 200.361 357.709 198.848 357.002C197.171 356.208 195.87 354.79 195.224 353.051C194.886 352.147 194.814 351.166 195.015 350.223C195.262 349.238 195.814 348.356 196.592 347.704C198.199 346.527 200.106 345.827 202.093 345.683C203.898 345.478 205.713 345.372 207.53 345.366C210.601 345.32 213.66 345.764 216.592 346.68C218.547 347.302 220.384 348.246 222.029 349.471C222.471 349.8 222.889 350.161 223.28 350.55C223.423 350.676 223.551 350.819 223.66 350.975C223.66 351.021 223.062 350.459 221.893 349.652C220.226 348.513 218.391 347.638 216.456 347.061C213.546 346.212 210.523 345.818 207.494 345.892C205.704 345.916 203.916 346.031 202.138 346.236C200.271 346.374 198.479 347.03 196.963 348.13C196.275 348.7 195.786 349.474 195.568 350.341C195.388 351.183 195.448 352.059 195.74 352.869C196.326 354.466 197.5 355.778 199.021 356.54C200.461 357.223 202.023 357.611 203.615 357.681C205.023 357.752 206.435 357.716 207.838 357.573C209.886 357.327 211.947 357.202 214.009 357.201C214.573 357.22 215.136 357.268 215.695 357.346C215.918 357.36 216.137 357.405 216.347 357.482Z" fill="#664D49"/>
<path d="M189.161 343.091C192.129 347.522 194.87 352.101 197.371 356.811C197.989 358.231 198.983 359.456 200.244 360.354C201.332 360.989 204.023 359.838 205.228 359.448L196.964 341.587" fill="#876760"/>
<path d="M196.964 341.587C197.246 342.009 197.491 342.455 197.698 342.919L199.51 346.662C201.042 349.842 203.135 354.292 205.482 359.349L205.609 359.629L205.301 359.729C204.357 360.081 203.395 360.383 202.419 360.635C202.006 360.737 201.584 360.798 201.159 360.817C200.931 360.823 200.702 360.799 200.48 360.744C200.254 360.69 200.041 360.591 199.854 360.454C199.197 360.003 198.631 359.431 198.187 358.769C197.344 357.5 196.746 356.231 196.066 355.044C194.771 352.67 193.583 350.513 192.55 348.782C191.517 347.051 190.647 345.592 190.049 344.623C189.707 344.134 189.404 343.619 189.143 343.082C189.556 343.52 189.926 343.997 190.249 344.505C190.91 345.411 191.835 346.834 192.967 348.583C194.1 350.332 195.278 352.443 196.592 354.799C197.281 355.968 197.906 357.264 198.722 358.424C199.121 359.032 199.635 359.555 200.235 359.965C200.556 360.121 200.906 360.21 201.263 360.225C201.62 360.241 201.977 360.183 202.31 360.055C203.289 359.82 204.222 359.457 205.147 359.149L204.975 359.53C202.646 354.482 200.616 350.006 199.175 346.789L197.516 342.973C197.286 342.531 197.101 342.066 196.964 341.587Z" fill="#664D49"/>
<path d="M194.734 336.286L202.7 355.262C203.195 356.643 203.921 357.93 204.848 359.068C205.335 359.645 205.954 360.097 206.653 360.386C207.351 360.675 208.109 360.791 208.862 360.726C210.937 360.436 212.297 358.343 212.396 356.349C212.496 354.355 211.671 352.452 210.91 350.595C208.527 344.838 206.615 338.898 205.192 332.833" fill="#876760"/>
<path d="M205.192 332.833C205.281 333.018 205.348 333.212 205.391 333.413L205.862 335.089C206.279 336.548 206.877 338.651 207.72 341.224C208.563 343.798 209.65 346.825 211.019 350.142C211.86 351.854 212.423 353.689 212.686 355.579C212.771 356.618 212.563 357.66 212.088 358.587C211.594 359.604 210.737 360.399 209.687 360.817C209.142 361.007 208.563 361.082 207.988 361.038C207.413 360.995 206.853 360.833 206.343 360.563C205.39 360.076 204.579 359.352 203.986 358.461C203.038 356.813 202.232 355.088 201.576 353.304L197.951 344.478C196.954 342.013 196.139 339.992 195.55 338.515L194.924 336.875C194.84 336.69 194.779 336.495 194.743 336.295C194.862 336.463 194.959 336.646 195.033 336.838L195.767 338.433L198.341 344.333L202.102 353.105C202.756 354.852 203.556 356.54 204.494 358.152C205.026 358.962 205.76 359.618 206.624 360.055C207.058 360.287 207.536 360.427 208.027 360.467C208.517 360.508 209.011 360.448 209.478 360.291C210.388 359.919 211.13 359.225 211.562 358.343C211.993 357.505 212.181 356.563 212.106 355.624C211.857 353.796 211.319 352.018 210.511 350.359C209.161 347.024 208.11 343.961 207.321 341.36C206.533 338.76 205.989 336.639 205.645 335.171C205.482 334.428 205.355 333.857 205.282 333.467C205.225 333.261 205.195 333.047 205.192 332.833Z" fill="#664D49"/>
<path d="M195.35 380.78C195.35 380.78 177.09 431.854 176.375 434.355H212.26L225.418 377.355L195.35 380.78Z" fill="#876760"/>
<path d="M213.148 372.842C212.565 372.91 211.975 372.835 211.427 372.625C210.089 372.233 208.852 371.556 207.802 370.64C206.765 369.748 205.944 368.632 205.4 367.378C205.137 366.885 205.009 366.332 205.029 365.774C205.201 365.71 205.835 368.202 208.201 370.223C210.566 372.244 213.203 372.67 213.148 372.842Z" fill="#664D49"/>
<path d="M253.855 411.311C253.973 411.374 251.372 416.476 248.046 422.702C244.72 428.927 241.947 433.929 241.83 433.866C241.712 433.803 244.313 428.71 247.638 422.475C250.964 416.24 253.737 411.311 253.855 411.311Z" fill="#263238"/>
<path d="M233.411 148.61C235.17 137.384 233.881 125.891 229.679 115.333C225.477 104.775 218.515 95.5396 209.523 88.5923C200.531 81.645 189.837 77.2409 178.56 75.8402C167.283 74.4395 155.837 76.0938 145.419 80.63C135 85.1662 125.991 92.4179 119.333 101.627C112.676 110.836 108.614 121.664 107.573 132.98C106.532 144.296 108.55 155.683 113.416 165.952C118.281 176.221 125.816 184.995 135.233 191.356C134.073 198.778 132.768 207.16 132.768 207.16L187.675 215.724C187.675 215.724 189.388 206.906 190.747 199.004C201.799 195.331 211.627 188.685 219.153 179.796C226.678 170.907 231.611 160.117 233.411 148.61Z" fill="#49A86A"/>
<path d="M179.419 214.428C179.419 214.428 179.419 214.156 179.419 213.639C179.419 213.123 179.474 212.325 179.519 211.319C179.61 209.281 179.782 206.272 180.054 202.402C180.606 194.672 181.585 183.481 183.597 169.779C184.086 166.341 184.651 162.756 185.292 159.022C185.618 157.162 185.953 155.261 186.297 153.322C186.549 151.312 187.109 149.353 187.956 147.513C188.441 146.571 189.143 145.757 190.004 145.139C190.444 144.81 190.946 144.571 191.48 144.439C192.014 144.307 192.569 144.283 193.112 144.369C193.658 144.502 194.167 144.753 194.604 145.106C195.041 145.458 195.395 145.903 195.64 146.408C196.164 147.402 196.397 148.523 196.311 149.643C196.165 150.767 195.762 151.842 195.134 152.785C194.505 153.728 193.667 154.513 192.686 155.08C190.71 156.306 188.4 156.88 186.08 156.72C183.708 156.578 181.431 155.736 179.537 154.301C177.639 152.803 176.208 150.794 175.414 148.51C174.563 146.194 174.29 143.706 174.616 141.261C174.759 140 175.118 138.774 175.677 137.636C176.207 136.419 177.178 135.447 178.395 134.917C179.031 134.693 179.718 134.661 180.371 134.827C181.01 134.992 181.602 135.302 182.102 135.733C183.086 136.617 183.757 137.797 184.014 139.095C184.267 140.365 184.331 141.666 184.204 142.955C184.099 144.244 183.927 145.527 183.688 146.798C183.246 149.381 182.418 151.883 181.232 154.219C180.047 156.631 178.211 158.662 175.93 160.083C174.777 160.783 173.511 161.277 172.188 161.542C170.862 161.797 169.495 161.748 168.191 161.397C166.904 161.008 165.729 160.315 164.766 159.376C163.829 158.442 163.071 157.346 162.528 156.141C161.507 153.762 160.88 151.234 160.67 148.655C160.525 147.387 160.443 146.127 160.398 144.867C160.315 143.602 160.336 142.332 160.462 141.07C160.588 139.781 161.11 138.562 161.957 137.581C162.396 137.093 162.946 136.716 163.561 136.485C164.188 136.244 164.882 136.244 165.509 136.485C166.117 136.742 166.634 137.174 166.995 137.726C167.342 138.253 167.611 138.826 167.793 139.43C168.146 140.606 168.323 141.827 168.318 143.055C168.427 147.867 167.258 152.742 164.413 156.458C163.002 158.285 161.15 159.722 159.03 160.635C156.961 161.562 154.642 161.769 152.442 161.224C150.315 160.616 148.494 159.232 147.34 157.346C146.167 155.566 145.595 153.457 145.709 151.329C145.764 150.292 146.013 149.274 146.443 148.329C146.857 147.37 147.585 146.58 148.509 146.091C148.99 145.867 149.533 145.812 150.05 145.935C150.566 146.059 151.026 146.353 151.354 146.77C151.937 147.568 152.296 148.506 152.396 149.489C152.553 151.352 152.48 153.226 152.179 155.071C151.992 156.884 151.807 158.648 151.626 160.363C150.176 174.147 148.79 185.284 147.702 192.987C147.158 196.829 146.678 199.802 146.343 201.813C146.171 202.81 146.035 203.571 145.944 204.106C145.853 204.641 145.79 204.876 145.79 204.876C145.79 204.876 145.79 204.614 145.89 204.097C145.989 203.58 146.098 202.801 146.252 201.804C146.56 199.783 147.004 196.811 147.521 192.969C148.563 185.284 149.895 174.147 151.309 160.345C151.478 158.624 151.656 156.859 151.844 155.053C152.133 153.237 152.2 151.393 152.043 149.561C151.956 148.638 151.621 147.755 151.073 147.006C150.795 146.649 150.405 146.398 149.965 146.292C149.525 146.187 149.063 146.234 148.654 146.426C147.815 146.885 147.154 147.613 146.778 148.492C146.371 149.392 146.137 150.36 146.089 151.347C145.986 153.393 146.538 155.418 147.666 157.128C148.764 158.936 150.506 160.26 152.541 160.835C154.661 161.354 156.894 161.15 158.885 160.255C160.941 159.37 162.735 157.972 164.095 156.195C166.814 152.57 168.01 147.803 167.892 143.073C167.901 141.886 167.733 140.704 167.394 139.566C167.269 139.001 167.022 138.471 166.672 138.011C166.321 137.551 165.875 137.173 165.364 136.902C164.824 136.712 164.239 136.698 163.691 136.861C163.142 137.023 162.659 137.355 162.31 137.808C161.522 138.721 161.04 139.859 160.933 141.061C160.802 142.295 160.781 143.539 160.869 144.777C160.869 146.027 160.996 147.287 161.132 148.537C161.334 151.063 161.946 153.54 162.945 155.869C163.455 157.03 164.181 158.085 165.083 158.977C165.993 159.862 167.102 160.515 168.318 160.88C169.569 161.182 170.868 161.226 172.136 161.01C173.405 160.793 174.615 160.32 175.695 159.62C177.9 158.237 179.677 156.266 180.824 153.929C181.987 151.647 182.802 149.203 183.244 146.68C183.66 144.17 184.086 141.587 183.57 139.158C183.338 137.956 182.721 136.861 181.812 136.041C181.389 135.628 180.862 135.339 180.287 135.205C179.712 135.071 179.111 135.097 178.549 135.28C177.456 135.764 176.583 136.64 176.103 137.735C175.572 138.821 175.228 139.988 175.088 141.188C174.767 143.566 175.031 145.986 175.858 148.238C176.632 150.454 178.029 152.398 179.882 153.839C181.716 155.234 183.924 156.052 186.225 156.186C188.45 156.326 190.665 155.779 192.568 154.618C193.497 154.078 194.29 153.333 194.885 152.439C195.48 151.545 195.863 150.527 196.003 149.462C196.08 148.421 195.867 147.38 195.387 146.453C195.163 146.006 194.846 145.613 194.456 145.301C194.067 144.988 193.615 144.763 193.13 144.641C192.639 144.564 192.136 144.587 191.654 144.708C191.171 144.83 190.718 145.047 190.321 145.348C189.504 145.927 188.839 146.695 188.382 147.586C187.55 149.388 187 151.308 186.751 153.277C186.397 155.216 186.062 157.11 185.727 158.977C185.083 162.701 184.512 166.29 184.005 169.715C181.957 183.417 180.933 194.6 180.317 202.339C180.017 206.208 179.827 209.208 179.7 211.247C179.637 212.262 179.592 213.059 179.555 213.567C179.519 214.074 179.419 214.428 179.419 214.428Z" fill="white"/>
<path d="M139.446 257.31C140.78 258.525 141.936 259.922 142.881 261.46C143.191 262.006 143.622 262.474 144.14 262.829C144.658 263.183 145.25 263.416 145.871 263.508L158.141 265.411C158.819 265.517 159.512 265.455 160.16 265.231C160.807 265.007 161.39 264.627 161.857 264.124C162.962 262.928 164.82 261.605 166.56 261.514L139.446 257.31Z" fill="#263238"/>
<path d="M131.472 221.098C131.472 221.342 131.3 240.944 131.255 248.438C131.226 249.957 131.576 251.459 132.274 252.809C132.972 254.158 133.995 255.313 135.251 256.168C136.266 256.843 137.417 257.289 138.622 257.473L165.446 261.632C165.446 261.632 172.451 262.72 174.907 257.409C177.489 251.809 184.222 229.317 184.222 229.317L131.472 221.098Z" fill="#E0E0E0"/>
<path d="M129.136 246.498L129.158 246.355C129.185 246.18 129.246 246.011 129.337 245.859C129.429 245.708 129.549 245.575 129.692 245.47C129.835 245.365 129.997 245.289 130.169 245.246C130.341 245.204 130.52 245.196 130.695 245.222L177.456 252.311C177.808 252.364 178.124 252.555 178.335 252.841C178.546 253.128 178.635 253.486 178.581 253.838L178.559 253.981C178.506 254.333 178.315 254.649 178.029 254.86C177.743 255.071 177.384 255.16 177.032 255.106L130.263 248.016C130.087 247.99 129.919 247.929 129.767 247.837C129.615 247.746 129.483 247.625 129.378 247.482C129.273 247.339 129.197 247.177 129.154 247.005C129.112 246.833 129.104 246.654 129.13 246.479L129.136 246.498Z" fill="#E0E0E0"/>
<path d="M177.018 255.108C177.363 255.123 177.704 255.024 177.988 254.827C178.15 254.7 178.282 254.537 178.373 254.352C178.464 254.167 178.512 253.964 178.513 253.757C178.536 253.485 178.47 253.212 178.327 252.979C178.183 252.746 177.969 252.565 177.716 252.461C175.179 252.035 171.372 251.555 166.778 250.848L130.648 245.411C130.464 245.385 130.278 245.404 130.104 245.467C129.93 245.531 129.774 245.636 129.651 245.774C129.53 245.912 129.443 246.076 129.397 246.254C129.352 246.441 129.336 246.633 129.352 246.825C129.38 247.005 129.452 247.176 129.561 247.323C129.67 247.47 129.813 247.588 129.977 247.668C130.374 247.782 130.78 247.861 131.191 247.903L136.266 248.673L145.854 250.142L162.084 252.724L173.022 254.455L175.994 254.944L176.764 255.089L177.018 255.153H176.755L175.976 255.053L172.995 254.645L162.039 253.059L145.79 250.649L136.194 249.208L131.119 248.447L130.475 248.347C130.236 248.325 130 248.266 129.778 248.175C129.54 248.065 129.334 247.898 129.176 247.689C129.018 247.481 128.913 247.237 128.871 246.979C128.843 246.73 128.861 246.478 128.926 246.236C129.017 245.843 129.256 245.5 129.594 245.279C129.932 245.058 130.341 244.975 130.738 245.049L166.851 250.586C171.472 251.329 175.197 251.863 177.798 252.398C178.089 252.511 178.336 252.717 178.499 252.984C178.663 253.251 178.735 253.564 178.704 253.875C178.694 254.096 178.634 254.312 178.529 254.506C178.424 254.701 178.276 254.869 178.097 254.999C177.937 255.099 177.757 255.16 177.57 255.179C177.383 255.198 177.194 255.173 177.018 255.108Z" fill="#263238"/>
<path d="M129.074 240.315L129.096 240.172C129.149 239.82 129.34 239.504 129.627 239.293C129.913 239.082 130.272 238.993 130.623 239.047L179.364 246.435C179.539 246.462 179.708 246.523 179.859 246.614C180.011 246.706 180.144 246.827 180.249 246.969C180.354 247.112 180.43 247.274 180.472 247.446C180.515 247.619 180.523 247.797 180.497 247.973L180.475 248.116C180.422 248.468 180.231 248.784 179.944 248.995C179.658 249.206 179.3 249.294 178.948 249.241L130.207 241.852C129.853 241.799 129.535 241.606 129.322 241.318C129.11 241.03 129.021 240.669 129.074 240.315Z" fill="#E0E0E0"/>
<path d="M178.948 249.226C179.306 249.244 179.659 249.135 179.945 248.918C180.108 248.781 180.238 248.609 180.324 248.414C180.411 248.219 180.451 248.007 180.443 247.794C180.453 247.514 180.369 247.238 180.205 247.01C180.041 246.782 179.806 246.615 179.537 246.535L168.164 244.876L130.629 239.258C130.439 239.228 130.245 239.249 130.065 239.317C129.886 239.385 129.727 239.499 129.605 239.648C129.484 239.793 129.402 239.968 129.369 240.155C129.325 240.352 129.325 240.556 129.369 240.753C129.412 240.938 129.501 241.109 129.628 241.25C129.755 241.391 129.915 241.497 130.094 241.56C130.457 241.65 131.001 241.705 131.39 241.777L136.664 242.575L146.633 244.097L163.497 246.707L174.852 248.519L177.942 249.027L178.74 249.172C178.833 249.183 178.925 249.207 179.011 249.244C178.918 249.251 178.824 249.251 178.731 249.244L177.924 249.154L174.825 248.728L163.443 247.069L146.506 244.568L136.538 243.064L131.272 242.276C130.81 242.194 130.412 242.167 129.895 242.04C129.641 241.953 129.413 241.803 129.234 241.603C129.055 241.403 128.93 241.16 128.871 240.898C128.816 240.641 128.816 240.376 128.871 240.119C128.917 239.854 129.032 239.607 129.206 239.403C129.379 239.192 129.603 239.03 129.858 238.933C130.112 238.836 130.387 238.808 130.656 238.85L168.164 244.568C172.967 245.32 176.837 245.919 179.537 246.381C179.845 246.468 180.115 246.657 180.303 246.917C180.49 247.177 180.584 247.492 180.57 247.813C180.571 248.043 180.519 248.27 180.419 248.478C180.318 248.685 180.171 248.867 179.99 249.009C179.845 249.122 179.675 249.201 179.494 249.239C179.314 249.276 179.127 249.272 178.948 249.226Z" fill="#263238"/>
<path d="M129.38 234.188L129.402 234.044C129.456 233.69 129.648 233.372 129.936 233.16C130.224 232.947 130.585 232.858 130.939 232.912L180.944 240.492C181.295 240.545 181.611 240.736 181.822 241.023C182.033 241.309 182.122 241.667 182.069 242.019L182.047 242.162C181.993 242.514 181.803 242.83 181.516 243.041C181.23 243.252 180.871 243.341 180.52 243.288L130.516 235.707C130.341 235.682 130.174 235.623 130.022 235.533C129.871 235.443 129.739 235.324 129.633 235.183C129.528 235.042 129.451 234.881 129.408 234.71C129.364 234.54 129.355 234.362 129.38 234.188Z" fill="#E0E0E0"/>
<path d="M180.516 243.282C180.882 243.305 181.243 243.192 181.531 242.965C181.694 242.821 181.821 242.641 181.905 242.44C181.988 242.239 182.024 242.022 182.011 241.805C182.008 241.512 181.903 241.229 181.715 241.004C181.526 240.779 181.266 240.627 180.978 240.572L169.324 238.887L130.901 233.123C130.706 233.095 130.507 233.119 130.324 233.192C130.141 233.265 129.981 233.385 129.859 233.54C129.735 233.695 129.654 233.879 129.623 234.075C129.577 234.272 129.577 234.476 129.623 234.673C129.674 234.861 129.774 235.032 129.913 235.168C130.051 235.305 130.223 235.403 130.411 235.452C130.819 235.534 131.318 235.597 131.762 235.67L137.154 236.485L147.358 238.044L164.575 240.708L176.202 242.521L179.365 243.046L180.18 243.191L180.461 243.255H180.18L179.347 243.155L176.175 242.72L164.539 241.034L147.321 238.461L137.117 236.929L131.725 236.123C131.254 236.041 130.819 235.996 130.321 235.896C130.057 235.826 129.816 235.687 129.622 235.495C129.428 235.303 129.288 235.063 129.215 234.8C129.156 234.537 129.156 234.265 129.215 234.002C129.259 233.731 129.371 233.475 129.542 233.259C129.714 233.04 129.942 232.87 130.201 232.766C130.46 232.663 130.742 232.63 131.019 232.67L169.424 238.56L181.059 240.373C181.381 240.438 181.669 240.613 181.876 240.867C182.083 241.122 182.194 241.441 182.192 241.768C182.201 242.004 182.156 242.238 182.06 242.453C181.964 242.669 181.82 242.859 181.639 243.01C181.489 243.145 181.308 243.241 181.112 243.288C180.916 243.336 180.711 243.333 180.516 243.282Z" fill="#263238"/>
<path d="M129.31 228.002L129.332 227.859C129.385 227.507 129.576 227.191 129.863 226.98C130.149 226.769 130.507 226.68 130.859 226.734L182.897 234.622C183.071 234.649 183.238 234.709 183.389 234.8C183.54 234.891 183.671 235.011 183.776 235.153C183.88 235.294 183.956 235.455 183.998 235.626C184.04 235.797 184.049 235.975 184.022 236.149L184 236.293C183.947 236.647 183.755 236.965 183.466 237.177C183.178 237.39 182.817 237.479 182.463 237.425L130.443 229.539C130.091 229.486 129.775 229.295 129.564 229.009C129.353 228.722 129.265 228.364 129.318 228.012L129.31 228.002Z" fill="#E0E0E0"/>
<path d="M182.464 237.4C182.672 237.42 182.881 237.393 183.077 237.32C183.272 237.247 183.449 237.131 183.593 236.98C183.737 236.829 183.845 236.647 183.908 236.449C183.972 236.25 183.989 236.039 183.959 235.833C183.934 235.529 183.8 235.245 183.582 235.032C183.364 234.819 183.076 234.691 182.772 234.673L170.683 232.915L130.81 226.943C130.609 226.912 130.402 226.937 130.214 227.015C130.025 227.093 129.862 227.222 129.741 227.387C129.627 227.56 129.553 227.756 129.523 227.961C129.493 228.166 129.509 228.376 129.569 228.574C129.644 228.763 129.767 228.93 129.926 229.057C130.085 229.184 130.274 229.267 130.475 229.299L131.898 229.507L137.498 230.359L148.074 231.981L165.98 234.745L178.051 236.648L181.331 237.183L182.174 237.337L182.464 237.4C182.368 237.416 182.27 237.416 182.174 237.4L181.268 237.292L177.978 236.839L165.89 235.081L147.965 232.416L137.389 230.821L131.789 229.979L130.357 229.761C130.077 229.719 129.814 229.603 129.594 229.424C129.374 229.246 129.206 229.012 129.107 228.746C129.011 228.479 128.986 228.192 129.034 227.912C129.068 227.632 129.171 227.364 129.333 227.133C129.506 226.903 129.738 226.723 130.004 226.613C130.27 226.503 130.561 226.466 130.847 226.508L170.72 232.607L182.79 234.51C183.13 234.541 183.446 234.693 183.684 234.937C183.921 235.181 184.064 235.502 184.086 235.842C184.107 236.084 184.072 236.329 183.982 236.555C183.893 236.782 183.751 236.984 183.57 237.147C183.342 237.34 183.053 237.449 182.754 237.455C182.655 237.457 182.556 237.439 182.464 237.4Z" fill="#263238"/>
<path d="M127.511 197.001C127.43 197.5 126.714 209.398 126.352 215.515C126.285 216.622 126.471 217.73 126.895 218.755C127.318 219.78 127.969 220.696 128.798 221.433L131.263 223.626L183.134 231.673L186.107 230.35C187.13 229.89 188.035 229.203 188.752 228.341C189.47 227.479 189.982 226.464 190.248 225.375L194.607 207.414L127.511 197.001Z" fill="#219653"/>
<g opacity="0.3">
<path opacity="0.3" d="M132.016 248.193C136.837 250.105 141.803 250.966 147.285 251.818C151.717 252.48 156.039 253.277 160.878 253.921C164.413 254.401 167.675 254.718 171.209 255.117C173.021 255.316 175.015 255.162 175.432 254.863L132.016 248.193Z" fill="black"/>
</g>
<g opacity="0.3">
<path opacity="0.3" d="M131.1 241.85C136.311 243.816 141.666 244.749 147.584 245.638C152.36 246.363 157.027 247.205 162.219 247.912C166.025 248.429 169.55 248.818 173.366 249.226C175.287 249.453 177.462 249.326 177.897 249.027L131.1 241.85Z" fill="black"/>
</g>
<g opacity="0.3">
<path opacity="0.3" d="M132.034 235.833C137.244 237.799 142.6 238.732 148.518 239.62C153.293 240.345 157.951 241.188 163.153 241.895C166.959 242.412 170.484 242.801 174.29 243.209C176.22 243.436 178.386 243.309 178.821 243.01L132.034 235.833Z" fill="black"/>
</g>
<g opacity="0.3">
<path opacity="0.3" d="M132.958 229.842C138.169 231.809 143.524 232.742 149.442 233.63C154.218 234.355 158.885 235.198 164.077 235.905C167.892 236.421 171.408 236.811 175.224 237.219C177.145 237.445 179.32 237.318 179.755 237.019L132.958 229.842Z" fill="black"/>
</g>
<path d="M141.821 190.305C141.58 190.201 141.347 190.079 141.123 189.942C140.688 189.688 140.009 189.344 139.193 188.818C136.853 187.376 134.624 185.762 132.523 183.988C129.39 181.371 126.541 178.431 124.023 175.216C117.77 167.336 113.667 157.969 112.116 148.03C111.469 143.995 111.241 139.905 111.436 135.823C111.557 133.085 111.881 130.359 112.406 127.668C112.569 126.761 112.777 125.982 112.895 125.484C112.947 125.229 113.013 124.978 113.094 124.731C113.083 124.992 113.043 125.25 112.976 125.502C112.904 126.009 112.723 126.743 112.578 127.704C112.127 130.402 111.855 133.126 111.762 135.86C111.426 144.906 113.126 153.911 116.737 162.212C120.398 170.489 125.863 177.842 132.732 183.735C134.806 185.519 136.994 187.166 139.284 188.664C140.09 189.208 140.743 189.571 141.169 189.861C141.399 189.989 141.617 190.138 141.821 190.305Z" fill="#263238"/>
<path d="M117.616 113.214C117.411 114.294 117.057 115.34 116.565 116.322C116.211 117.367 115.713 118.359 115.087 119.267C115.29 118.184 115.644 117.135 116.139 116.15C116.5 115.111 116.997 114.124 117.616 113.214Z" fill="#263238"/>
<path d="M224.177 162.103C224.22 161.882 224.286 161.667 224.376 161.46C224.539 160.998 224.766 160.4 225.038 159.648L225.536 158.343C225.699 157.862 225.835 157.328 226.007 156.757C226.333 155.615 226.787 154.337 227.067 152.869C227.222 152.135 227.394 151.374 227.575 150.577C227.756 149.779 227.829 148.936 227.974 148.066C228.282 146.335 228.381 144.442 228.545 142.493C228.991 133.907 227.623 125.323 224.53 117.301C223.76 115.488 223.089 113.73 222.246 112.181C221.848 111.401 221.503 110.622 221.096 109.924L219.899 107.903C219.174 106.589 218.35 105.52 217.688 104.532C217.344 104.043 217.045 103.626 216.737 103.173L215.83 102.085C215.332 101.46 214.924 100.953 214.634 100.572C214.491 100.401 214.361 100.219 214.245 100.028C214.416 100.171 214.571 100.332 214.707 100.509L215.975 101.977C216.247 102.294 216.546 102.656 216.882 103.037C217.217 103.418 217.507 103.943 217.86 104.378C218.675 105.456 219.435 106.575 220.135 107.731C220.534 108.374 220.941 109.045 221.367 109.752C221.793 110.459 222.138 111.229 222.555 112.008C223.406 113.558 224.104 115.325 224.883 117.156C228.053 125.221 229.432 133.879 228.925 142.529C228.814 144.408 228.608 146.281 228.309 148.139C228.155 149.045 228.064 149.861 227.883 150.667L227.339 152.96C227.035 154.278 226.66 155.579 226.216 156.857C226.034 157.418 225.88 157.953 225.699 158.433L225.173 159.729C224.865 160.472 224.612 161.061 224.421 161.542C224.35 161.733 224.268 161.921 224.177 162.103Z" fill="#263238"/>
<g opacity="0.2">
<path opacity="0.2" d="M175.305 93.4583C174.625 90.6581 172.015 88.2838 168.717 86.7161C163.978 84.5382 158.574 84.3039 153.665 86.0636C139.165 91.0659 130.194 98.4333 123.135 112.878C120.742 117.763 118.604 126.136 120.371 131.564C120.769 132.932 121.446 134.201 122.36 135.293C123.274 136.385 124.405 137.276 125.681 137.908C132.432 141.061 139.12 135.062 142.337 128.846C145.328 123.046 147.14 116.249 152.233 112.153C156.429 108.791 162.047 107.939 166.959 105.755C171.87 103.572 176.565 98.669 175.305 93.4583Z" fill="white"/>
</g>
<g opacity="0.2">
<path opacity="0.2" d="M200.788 94.9266C199.102 90.5587 193.538 87.9941 189.913 89C188.419 89.4562 187.047 90.2453 185.901 91.3079C184.755 92.3705 183.865 93.679 183.298 95.135C182.669 96.9113 182.585 98.8349 183.056 100.659C183.528 102.484 184.533 104.126 185.944 105.375C187.403 106.567 189.201 107.268 191.082 107.379C192.963 107.489 194.831 107.004 196.42 105.991C199.573 103.88 202.156 98.4336 200.788 94.9266Z" fill="white"/>
</g>
<path opacity="0.3" d="M127.511 197.001C127.43 197.5 126.714 209.398 126.352 215.515C126.285 216.622 126.471 217.73 126.895 218.755C127.318 219.78 127.969 220.696 128.798 221.433L131.263 223.626L183.134 231.673L186.107 230.35C187.13 229.89 188.035 229.203 188.752 228.341C189.47 227.479 189.982 226.464 190.248 225.375L194.607 207.414L127.511 197.001Z" fill="#219653"/>
<path d="M188.59 227.677C188.59 227.803 174.68 225.746 157.571 223.091C140.462 220.436 126.597 218.189 126.615 218.062C126.633 217.935 140.516 219.983 157.634 222.638C174.752 225.293 188.608 227.55 188.59 227.677Z" fill="#263238"/>
<path d="M328.553 82.2983C326.985 83.8666 326.985 86.4093 328.553 87.9775L333.167 92.5919C334.736 94.1602 337.278 94.1602 338.847 92.5919L343.816 87.6226C345.384 86.0543 345.384 83.5117 343.816 81.9434L339.202 77.329C337.633 75.7608 335.091 75.7608 333.522 77.329L328.553 82.2983Z" fill="#FFCC00"/>
<path d="M24.694 239.95C24.0434 240.6 24.0434 241.655 24.694 242.306L26.6084 244.22C27.259 244.871 28.3139 244.871 28.9646 244.22L31.0262 242.158C31.6768 241.508 31.6768 240.453 31.0262 239.802L29.1118 237.888C28.4612 237.237 27.4063 237.237 26.7557 237.888L24.694 239.95Z" fill="#FFCC00"/>
</svg>
