<svg width="50" height="50" viewBox="0 0 50 50" fill="none" xmlns="http://www.w3.org/2000/svg">
<path d="M17.4795 38.521V17.3543C17.4795 16.521 17.7295 15.7085 18.1878 15.021L23.8753 6.56267C24.7712 5.20851 27.0003 4.25017 28.8962 4.95851C30.9378 5.64601 32.292 7.93767 31.8545 9.97934L30.7712 16.7918C30.6878 17.4168 30.8545 17.9793 31.2087 18.4168C31.5628 18.8127 32.0837 19.0627 32.6462 19.0627H41.2087C42.8545 19.0627 44.2712 19.7293 45.1045 20.896C45.8962 22.021 46.042 23.4793 45.5212 24.9585L40.3962 40.5627C39.7503 43.146 36.9378 45.2502 34.1462 45.2502H26.0212C24.6253 45.2502 22.667 44.771 21.7712 43.8752L19.1045 41.8127C18.0837 41.0418 17.4795 39.8127 17.4795 38.521Z" fill="#FFCC00"/>
<path d="M10.8545 13.2915H8.70866C5.47949 13.2915 4.16699 14.5415 4.16699 17.6248V38.5832C4.16699 41.6665 5.47949 42.9165 8.70866 42.9165H10.8545C14.0837 42.9165 15.3962 41.6665 15.3962 38.5832V17.6248C15.3962 14.5415 14.0837 13.2915 10.8545 13.2915Z" fill="#FFCC00"/>
</svg>
