<svg width="60" height="60" viewBox="0 0 60 60" fill="none" xmlns="http://www.w3.org/2000/svg">
<path d="M43.2252 10.3501L43.0502 19.8251C43.0252 21.1251 43.8502 22.8501 44.9002 23.6251L51.1002 28.3251C55.0752 31.3251 54.4252 35.0001 49.6752 36.5001L41.6002 39.0251C40.2502 39.4501 38.8252 40.9251 38.4752 42.3001L36.5502 49.6501C35.0252 55.4501 31.2252 56.0251 28.0752 50.9251L23.6752 43.8001C22.8752 42.5001 20.9752 41.5251 19.4752 41.6001L11.1252 42.0251C5.15019 42.3251 3.45019 38.8751 7.35019 34.3251L12.3002 28.5751C13.2252 27.5001 13.6502 25.5001 13.2252 24.1501L10.6752 16.0501C9.20019 11.3001 11.8502 8.67511 16.5752 10.2251L23.9502 12.6501C25.2002 13.0501 27.0752 12.7751 28.1252 12.0001L35.8252 6.45011C40.0002 3.47511 43.3252 5.22511 43.2252 10.3501Z" fill="#FFCC00"/>
<path d="M53.5998 51.1754L46.0248 43.6004C45.2998 42.8754 44.0998 42.8754 43.3748 43.6004C42.6498 44.3254 42.6498 45.5254 43.3748 46.2504L50.9498 53.8254C51.3248 54.2004 51.7998 54.3754 52.2748 54.3754C52.7498 54.3754 53.2248 54.2004 53.5998 53.8254C54.3248 53.1004 54.3248 51.9004 53.5998 51.1754Z" fill="#FFCC00"/>
</svg>
