<svg width="610" height="624" viewBox="0 0 610 624" fill="none" xmlns="http://www.w3.org/2000/svg">
<path d="M610 477.235H0V477.547H610V477.235Z" fill="#EBEBEB"/>
<path d="M548.878 497.315H508.472V497.628H548.878V497.315Z" fill="#EBEBEB"/>
<path d="M404.088 500.71H393.486V501.022H404.088V500.71Z" fill="#EBEBEB"/>
<path d="M507.252 485.734H483.84V486.046H507.252V485.734Z" fill="#EBEBEB"/>
<path d="M116.693 487.831H64.001V488.143H116.693V487.831Z" fill="#EBEBEB"/>
<path d="M135.286 487.831H127.563V488.143H135.286V487.831Z" fill="#EBEBEB"/>
<path d="M274.683 493.098H160.394V493.41H274.683V493.098Z" fill="#EBEBEB"/>
<path d="M362.047 94.0245L361.01 96.1586C360.95 96.2812 360.863 96.3872 360.754 96.4676C360.646 96.548 360.52 96.6004 360.388 96.6203L358.082 96.9698C357.928 96.9919 357.784 97.0576 357.665 97.1595C357.546 97.2613 357.458 97.3952 357.409 97.5459C357.361 97.6967 357.355 97.8582 357.392 98.0123C357.429 98.1663 357.507 98.3067 357.618 98.4175L359.29 100.09C359.385 100.186 359.457 100.304 359.499 100.434C359.542 100.564 359.553 100.703 359.534 100.839L359.131 103.185C359.102 103.343 359.117 103.507 359.176 103.657C359.234 103.807 359.333 103.937 359.462 104.031C359.59 104.126 359.741 104.181 359.899 104.19C360.057 104.199 360.213 104.162 360.351 104.083L362.413 102.973C362.534 102.911 362.668 102.879 362.803 102.879C362.939 102.879 363.072 102.911 363.194 102.973L365.256 104.083C365.393 104.162 365.55 104.199 365.708 104.19C365.865 104.181 366.017 104.126 366.145 104.031C366.273 103.937 366.372 103.807 366.431 103.657C366.489 103.507 366.505 103.343 366.476 103.185L366.085 100.839C366.059 100.703 366.068 100.562 366.11 100.431C366.153 100.3 366.229 100.182 366.329 100.09L367.988 98.4175C368.099 98.3067 368.178 98.1663 368.215 98.0123C368.252 97.8582 368.246 97.6967 368.197 97.5459C368.149 97.3952 368.06 97.2613 367.942 97.1595C367.823 97.0576 367.678 96.9919 367.525 96.9698L365.219 96.6203C365.087 96.6004 364.961 96.548 364.852 96.4676C364.744 96.3872 364.656 96.2812 364.597 96.1586L363.56 94.0245C363.494 93.8755 363.388 93.749 363.254 93.6603C363.12 93.5716 362.963 93.5244 362.803 93.5244C362.644 93.5244 362.487 93.5716 362.353 93.6603C362.219 93.749 362.113 93.8755 362.047 94.0245Z" fill="#F5F5F5"/>
<path d="M335.866 447.021L334.841 449.168C334.78 449.291 334.69 449.398 334.58 449.478C334.469 449.559 334.341 449.611 334.207 449.63L331.901 449.979C331.748 450.001 331.603 450.067 331.484 450.169C331.366 450.271 331.277 450.404 331.229 450.555C331.18 450.706 331.174 450.867 331.211 451.021C331.248 451.176 331.327 451.316 331.438 451.427L333.109 453.087C333.206 453.184 333.279 453.304 333.321 453.437C333.364 453.569 333.375 453.71 333.353 453.848L332.95 456.194C332.926 456.352 332.945 456.513 333.005 456.66C333.065 456.807 333.164 456.934 333.29 457.028C333.417 457.121 333.566 457.176 333.721 457.188C333.877 457.199 334.032 457.166 334.17 457.093L336.232 455.982C336.351 455.92 336.483 455.888 336.617 455.888C336.75 455.888 336.882 455.92 337.001 455.982L339.063 457.093C339.2 457.171 339.357 457.208 339.515 457.199C339.672 457.19 339.824 457.135 339.952 457.041C340.08 456.946 340.179 456.816 340.238 456.667C340.297 456.517 340.312 456.353 340.283 456.194L339.892 453.848C339.871 453.71 339.881 453.569 339.924 453.437C339.966 453.304 340.039 453.184 340.136 453.087L341.808 451.427C341.919 451.316 341.997 451.176 342.034 451.021C342.071 450.867 342.065 450.706 342.017 450.555C341.968 450.404 341.88 450.271 341.761 450.169C341.642 450.067 341.498 450.001 341.344 449.979L339.038 449.63C338.903 449.613 338.775 449.562 338.664 449.481C338.553 449.4 338.464 449.293 338.404 449.168L337.379 447.021C337.31 446.876 337.202 446.754 337.069 446.669C336.935 446.583 336.78 446.538 336.623 446.538C336.465 446.538 336.31 446.583 336.177 446.669C336.043 446.754 335.935 446.876 335.866 447.021Z" fill="#F0F0F0"/>
<path d="M517.695 312.475L516.658 314.609C516.599 314.733 516.512 314.841 516.403 314.924C516.295 315.006 516.169 315.061 516.036 315.083L513.73 315.42C513.576 315.445 513.433 315.512 513.314 315.616C513.196 315.719 513.108 315.853 513.06 316.005C513.012 316.156 513.006 316.318 513.042 316.472C513.079 316.627 513.156 316.768 513.266 316.88L514.938 318.54C515.034 318.638 515.106 318.758 515.146 318.891C515.187 319.024 515.195 319.165 515.169 319.301L514.779 321.647C514.75 321.806 514.765 321.97 514.824 322.12C514.882 322.27 514.981 322.4 515.109 322.494C515.237 322.588 515.389 322.643 515.547 322.653C515.704 322.662 515.861 322.625 515.999 322.546L518.061 321.435C518.18 321.368 518.315 321.332 518.451 321.332C518.588 321.332 518.722 321.368 518.842 321.435L520.903 322.546C521.041 322.625 521.198 322.662 521.356 322.653C521.513 322.643 521.665 322.588 521.793 322.494C521.921 322.4 522.02 322.27 522.079 322.12C522.137 321.97 522.153 321.806 522.123 321.647L521.733 319.301C521.708 319.165 521.716 319.024 521.756 318.891C521.797 318.758 521.868 318.638 521.965 318.54L523.636 316.88C523.746 316.768 523.824 316.627 523.86 316.472C523.896 316.318 523.89 316.156 523.842 316.005C523.794 315.853 523.706 315.719 523.588 315.616C523.47 315.512 523.326 315.445 523.173 315.42L520.867 315.083C520.734 315.061 520.607 315.006 520.499 314.924C520.391 314.841 520.304 314.733 520.245 314.609L519.208 312.475C519.142 312.326 519.036 312.199 518.902 312.111C518.767 312.022 518.611 311.975 518.451 311.975C518.291 311.975 518.135 312.022 518.001 312.111C517.867 312.199 517.76 312.326 517.695 312.475Z" fill="#F0F0F0"/>
<path d="M262.593 382.724L261.971 383.972C261.936 384.045 261.884 384.108 261.821 384.156C261.757 384.204 261.683 384.235 261.605 384.247L260.226 384.447C260.133 384.46 260.046 384.499 259.974 384.561C259.902 384.622 259.848 384.703 259.819 384.794C259.79 384.885 259.786 384.983 259.808 385.076C259.831 385.169 259.878 385.253 259.945 385.32L260.946 386.319C261.002 386.377 261.044 386.448 261.068 386.526C261.091 386.605 261.095 386.688 261.08 386.768L260.848 388.166C260.829 388.26 260.836 388.358 260.87 388.448C260.904 388.538 260.962 388.616 261.038 388.673C261.114 388.729 261.205 388.762 261.299 388.768C261.393 388.773 261.486 388.75 261.568 388.702L262.788 388.041C262.86 388.004 262.939 387.984 263.02 387.984C263.1 387.984 263.18 388.004 263.252 388.041L264.472 388.702C264.554 388.748 264.648 388.77 264.741 388.764C264.835 388.758 264.926 388.725 265.002 388.669C265.078 388.613 265.138 388.536 265.174 388.447C265.209 388.358 265.22 388.261 265.204 388.166L264.96 386.768C264.949 386.687 264.956 386.604 264.982 386.526C265.007 386.448 265.05 386.377 265.106 386.319L266.106 385.32C266.173 385.253 266.221 385.169 266.243 385.076C266.266 384.983 266.262 384.885 266.233 384.794C266.203 384.703 266.15 384.622 266.078 384.561C266.006 384.499 265.919 384.46 265.826 384.447L264.447 384.247C264.369 384.235 264.295 384.204 264.231 384.156C264.167 384.108 264.116 384.045 264.081 383.972L263.459 382.724C263.415 382.647 263.352 382.582 263.276 382.537C263.2 382.492 263.114 382.469 263.026 382.469C262.938 382.469 262.852 382.492 262.776 382.537C262.7 382.582 262.637 382.647 262.593 382.724Z" fill="#F0F0F0"/>
<path d="M402.209 382.724L401.587 383.972C401.553 384.045 401.501 384.108 401.437 384.156C401.374 384.203 401.299 384.235 401.221 384.247L399.843 384.446C399.75 384.459 399.662 384.499 399.59 384.56C399.519 384.622 399.465 384.703 399.436 384.794C399.406 384.885 399.403 384.982 399.425 385.075C399.447 385.168 399.495 385.253 399.562 385.32L400.562 386.318C400.619 386.377 400.661 386.448 400.687 386.526C400.712 386.604 400.72 386.686 400.709 386.768L400.465 388.165C400.45 388.259 400.461 388.354 400.497 388.441C400.532 388.528 400.59 388.604 400.664 388.659C400.739 388.715 400.827 388.748 400.918 388.756C401.01 388.763 401.102 388.745 401.185 388.702L402.405 388.041C402.476 388.003 402.556 387.984 402.636 387.984C402.717 387.984 402.796 388.003 402.868 388.041L404.088 388.702C404.17 388.75 404.263 388.773 404.357 388.767C404.451 388.762 404.542 388.729 404.618 388.672C404.694 388.616 404.752 388.537 404.786 388.448C404.82 388.358 404.827 388.26 404.808 388.165L404.576 386.768C404.561 386.687 404.565 386.604 404.588 386.526C404.612 386.448 404.654 386.376 404.71 386.318L405.711 385.32C405.778 385.253 405.825 385.168 405.848 385.075C405.87 384.982 405.866 384.885 405.837 384.794C405.808 384.703 405.754 384.622 405.682 384.56C405.61 384.499 405.523 384.459 405.43 384.446L404.052 384.247C403.973 384.235 403.899 384.203 403.835 384.156C403.772 384.108 403.72 384.045 403.686 383.972L403.063 382.724C403.019 382.649 402.956 382.587 402.881 382.544C402.806 382.502 402.722 382.479 402.636 382.479C402.551 382.479 402.466 382.502 402.392 382.544C402.317 382.587 402.254 382.649 402.209 382.724Z" fill="#F5F5F5"/>
<path d="M94.8307 95.9713L94.2085 97.2193C94.1745 97.295 94.1217 97.3603 94.0553 97.4084C93.9889 97.4566 93.9113 97.4861 93.8303 97.4939L92.4517 97.706C92.3598 97.721 92.2739 97.7619 92.2036 97.824C92.1332 97.8862 92.0812 97.9672 92.0533 98.0579C92.0254 98.1486 92.0228 98.2455 92.0458 98.3377C92.0687 98.4298 92.1163 98.5136 92.1833 98.5796L93.1715 99.5656C93.2294 99.6228 93.273 99.6936 93.2985 99.7718C93.324 99.8501 93.3306 99.9334 93.3179 100.015L93.0861 101.425C93.0716 101.518 93.0826 101.613 93.1178 101.701C93.153 101.788 93.211 101.863 93.2855 101.919C93.3599 101.974 93.4479 102.008 93.5397 102.015C93.6316 102.023 93.7236 102.004 93.8059 101.962L95.0259 101.3C95.0977 101.263 95.1771 101.244 95.2577 101.244C95.3382 101.244 95.4176 101.263 95.4894 101.3L96.7094 101.962C96.7917 102.004 96.8837 102.023 96.9756 102.015C97.0674 102.008 97.1554 101.974 97.2298 101.919C97.3043 101.863 97.3623 101.788 97.3975 101.701C97.4327 101.613 97.4437 101.518 97.4293 101.425L97.1974 100.015C97.1847 99.9334 97.1913 99.8501 97.2168 99.7718C97.2423 99.6936 97.2859 99.6228 97.3439 99.5656L98.3443 98.5796C98.4114 98.5128 98.4588 98.428 98.4812 98.3349C98.5035 98.2419 98.4999 98.1443 98.4706 98.0532C98.4414 97.9622 98.3877 97.8813 98.3158 97.82C98.2438 97.7586 98.1565 97.7191 98.0636 97.706L96.6851 97.4939C96.6044 97.4849 96.5272 97.455 96.461 97.4069C96.3948 97.3589 96.3418 97.2943 96.3069 97.2193L95.6969 95.9713C95.6557 95.8902 95.5935 95.8222 95.5171 95.7747C95.4408 95.7272 95.3531 95.7021 95.2638 95.7021C95.1744 95.7021 95.0867 95.7272 95.0104 95.7747C94.934 95.8222 94.8718 95.8902 94.8307 95.9713Z" fill="#F5F5F5"/>
<path d="M105.432 331.506L104.359 333.715C104.299 333.844 104.208 333.954 104.095 334.037C103.982 334.12 103.85 334.172 103.712 334.19L101.272 334.552C101.113 334.574 100.963 334.641 100.839 334.746C100.716 334.852 100.624 334.991 100.574 335.147C100.524 335.304 100.519 335.471 100.558 335.631C100.598 335.791 100.68 335.935 100.796 336.049L102.517 337.771C102.617 337.872 102.693 337.996 102.735 338.133C102.778 338.27 102.786 338.416 102.761 338.558L102.358 341.054C102.337 341.211 102.358 341.371 102.419 341.517C102.479 341.663 102.577 341.79 102.701 341.884C102.826 341.979 102.973 342.037 103.127 342.053C103.281 342.07 103.437 342.043 103.578 341.977L105.701 340.829C105.825 340.761 105.963 340.726 106.103 340.726C106.244 340.726 106.382 340.761 106.506 340.829L108.641 341.977C108.782 342.043 108.938 342.07 109.092 342.053C109.246 342.037 109.393 341.979 109.518 341.884C109.643 341.79 109.74 341.663 109.8 341.517C109.861 341.371 109.882 341.211 109.861 341.054L109.446 338.558C109.423 338.415 109.434 338.269 109.479 338.132C109.524 337.995 109.6 337.871 109.702 337.771L111.423 336.049C111.539 335.935 111.622 335.791 111.661 335.631C111.7 335.471 111.695 335.304 111.645 335.147C111.595 334.991 111.503 334.852 111.38 334.746C111.256 334.641 111.106 334.574 110.947 334.552L108.507 334.19C108.369 334.172 108.237 334.12 108.124 334.037C108.011 333.954 107.921 333.844 107.86 333.715L106.799 331.506C106.718 331.4 106.614 331.314 106.496 331.255C106.377 331.196 106.247 331.165 106.116 331.165C105.984 331.165 105.854 331.196 105.735 331.255C105.617 331.314 105.513 331.4 105.432 331.506Z" fill="#F0F0F0"/>
<path d="M236.119 124.663C236.119 124.992 236.214 125.313 236.393 125.586C236.572 125.859 236.826 126.072 237.123 126.197C237.42 126.323 237.747 126.355 238.062 126.29C238.377 126.225 238.667 126.065 238.893 125.832C239.119 125.599 239.273 125.302 239.334 124.979C239.395 124.656 239.362 124.322 239.237 124.019C239.112 123.716 238.902 123.458 238.634 123.277C238.365 123.096 238.051 123.001 237.729 123.003C237.517 123.003 237.306 123.046 237.11 123.13C236.914 123.213 236.736 123.336 236.586 123.49C236.436 123.644 236.318 123.827 236.238 124.029C236.158 124.23 236.117 124.445 236.119 124.663Z" fill="#F0F0F0"/>
<path d="M191.162 448.032C192.058 448.032 192.784 447.289 192.784 446.372C192.784 445.456 192.058 444.712 191.162 444.712C190.266 444.712 189.539 445.456 189.539 446.372C189.539 447.289 190.266 448.032 191.162 448.032Z" fill="#F5F5F5"/>
<path d="M130.601 166.16C122.005 163.529 113.652 160.13 105.64 156.001C106.956 161.347 109.602 166.255 113.321 170.246C117.04 174.237 121.704 177.176 126.862 178.777C132.019 180.379 137.494 180.588 142.754 179.386C148.014 178.183 152.88 175.609 156.88 171.913C147.972 170.788 139.178 168.863 130.601 166.16Z" fill="#FFCC00"/>
<path d="M135.932 145.804C147.01 149.249 159.527 147.052 167.018 151.445C167.738 144.083 165.939 136.693 161.927 130.537C157.916 124.38 151.94 119.838 145.02 117.685C138.1 115.532 130.665 115.902 123.981 118.731C117.298 121.56 111.781 126.674 108.373 133.2C116.961 133.861 124.855 142.36 135.932 145.804Z" fill="#FFCC00"/>
<path d="M88.8891 133.624C87.4861 138.329 107.421 148.688 133.407 156.762C159.393 164.837 181.585 167.582 182.975 162.89C184.366 158.197 164.444 147.826 138.458 139.777C112.472 131.727 90.2799 128.932 88.8891 133.624Z" fill="#FFCC00"/>
<path d="M478.386 257.625C474.564 272.719 466.757 286.447 455.819 297.306C444.881 308.165 431.234 315.738 416.37 319.195C401.507 322.652 386.001 321.86 371.548 316.907C357.095 311.953 344.253 303.028 334.426 291.109C322.812 277.011 315.992 259.434 314.992 241.026C314.676 235.239 314.95 229.433 315.809 223.704C316.241 220.784 316.819 217.889 317.542 215.03C323.037 193.532 336.544 175.09 355.17 163.654C373.795 152.218 396.057 148.698 417.189 153.848C438.32 158.997 456.64 172.407 468.225 191.205C479.809 210.002 483.737 232.693 479.167 254.417C478.911 255.478 478.655 256.551 478.386 257.625Z" fill="#F5F6D3"/>
<path d="M523.746 183.793C523.121 186.262 521.844 188.508 520.056 190.284C518.267 192.061 516.035 193.299 513.604 193.865C511.172 194.431 508.636 194.301 506.272 193.491C503.908 192.681 501.807 191.221 500.2 189.272C498.305 186.966 497.192 184.093 497.028 181.085C496.976 180.139 497.021 179.189 497.162 178.252C497.232 177.773 497.326 177.298 497.443 176.829C498.334 173.304 500.541 170.278 503.59 168.399C506.639 166.521 510.287 165.942 513.749 166.785C517.212 167.628 520.212 169.827 522.107 172.91C524.001 175.992 524.638 179.712 523.88 183.269C523.832 183.456 523.795 183.618 523.746 183.793Z" fill="#FFCC00"/>
<path d="M479.131 254.393L475.336 249.488L469.7 264.576L461.624 253.157L457.293 235.922L438.749 224.428L441.03 229.545L451.315 234.337L456.195 244.321L440.774 243.735L424.56 228.384L434.564 245.332L442.421 251.672L435.662 255.84L423.767 272.551L424.755 279.752C424.755 279.752 414.995 286.953 413.934 287.24C412.873 287.527 392.218 301.355 392.218 301.355L400.16 273.225L399.953 251.847L380.433 252.945L364.536 239.105L375.223 216.054L383.214 211.748L391.352 213.908L418.533 224.129L418.411 219.074L403.039 204.098L393.157 202.264L385.215 205.92L380.64 204.672L388.57 194.489L395.89 191.169L412.47 186.726L424.853 191.306L443.726 194.688C443.726 194.688 459.22 190.557 466.687 188.536C473.036 198.068 477.414 208.826 479.554 220.15C481.694 231.475 481.55 243.127 479.131 254.393Z" fill="#FAFAFA"/>
<path d="M420.9 318.041C405.482 322.562 389.116 322.425 373.773 317.646C358.43 312.868 344.765 303.652 334.426 291.109L346.211 297.486L356.923 306.597L385.19 314.085L409.176 314.172L420.9 318.041Z" fill="#FAFAFA"/>
<path d="M377.346 159.095L368.733 160.98L373.381 168.305L369.367 184.155L404.247 178.14L405.76 172.162L394.451 168.617L377.346 159.095Z" fill="#FAFAFA"/>
<path d="M365.073 175.482L359.375 187.812L346.48 194.576L332.462 200.529L325.74 207.655L320.226 206.195C327.452 186.612 341.512 170.46 359.693 160.855L365.073 175.482Z" fill="#FAFAFA"/>
<path d="M349.628 257.625L339.55 265.113L339.136 272.838L338.013 277.243L337.415 284.669L334.378 282.56L328.583 271.091L323.703 252.957L317.102 242.711L314.931 240.964C314.615 235.176 314.889 229.371 315.748 223.642L318.31 226.824L329.644 225.451L339.697 228.109L341.893 237.619L345.87 246.143L355.02 251.347L349.628 257.625Z" fill="#FAFAFA"/>
<path opacity="0.5" d="M305 533.595C435.641 533.595 541.546 527.27 541.546 519.468C541.546 511.665 435.641 505.34 305 505.34C174.359 505.34 68.4541 511.665 68.4541 519.468C68.4541 527.27 174.359 533.595 305 533.595Z" fill="#EBEBEB"/>
<path d="M280.429 210.912C285.053 207.892 287.749 201.752 291.409 197.658C298.729 189.534 310.039 176.268 311.747 168.73L283.345 158.746L273.939 182.208C271.95 187.649 263.093 195.599 258.177 198.182C255.297 199.717 252.15 201.078 248.953 202.438C242.536 205.084 235.643 207.43 228.97 209.789L230.653 222.181C234.539 222.217 238.423 222.051 242.292 221.682C246.135 221.308 249.99 220.809 253.846 220.06C257.804 219.328 261.716 218.348 265.558 217.127C269.51 215.904 276.355 213.558 280.429 210.912Z" fill="#219653"/>
<path opacity="0.8" d="M280.429 210.912C285.053 207.892 287.749 201.752 291.409 197.658C298.729 189.534 310.039 176.268 311.747 168.73L283.345 158.746L273.939 182.208C271.95 187.649 263.093 195.599 258.177 198.182C255.297 199.717 252.15 201.078 248.953 202.438C242.536 205.084 235.643 207.43 228.97 209.789L230.653 222.181C234.539 222.217 238.423 222.051 242.292 221.682C246.135 221.308 249.99 220.809 253.846 220.06C257.804 219.328 261.716 218.348 265.558 217.127C269.51 215.904 276.355 213.558 280.429 210.912Z" fill="white"/>
<path d="M250.783 222.319L245.635 202.463C245.635 202.463 215.806 208.029 214.854 216.478C213.878 225.214 234.643 225.002 250.783 222.319Z" fill="#263238"/>
<path d="M229.36 211.973L233.679 205.733C233.679 205.733 218.526 203.773 218.124 206.257C217.624 209.664 222.125 211.985 229.36 211.973Z" fill="#263238"/>
<path d="M366.793 344.885C366.478 344.886 366.172 344.776 365.927 344.573C360.034 339.755 341.332 322.695 347.627 305.635C352.775 291.633 365.268 279.839 380.201 274.834C385.938 273.081 391.799 271.787 397.732 270.966C401.746 270.304 405.894 269.618 409.859 268.644C428.098 264.164 437.285 251.846 433.832 236.496C432.258 229.545 428.049 223.929 423.584 217.976C420.034 213.258 416.386 208.378 414.178 202.787C414.178 202.787 414.178 202.688 414.178 202.638C412.092 195.012 415.056 187.662 417.936 180.598C418.607 178.938 419.241 177.366 419.827 175.781C422.267 169.004 424.524 161.716 424.145 154.353C423.694 145.617 417.972 136.182 409.579 130.453C396.464 121.48 372.259 113.468 361.999 124.738C361.125 125.753 360.31 126.82 359.559 127.932C358.531 129.432 357.38 130.839 356.118 132.138C354.018 134.099 351.511 135.548 348.786 136.378C346.06 137.208 343.187 137.397 340.38 136.93C337.468 136.424 334.709 135.237 332.318 133.462C329.927 131.687 327.968 129.372 326.594 126.697C326.513 126.53 326.465 126.348 326.453 126.162C326.441 125.976 326.465 125.789 326.524 125.613C326.583 125.437 326.676 125.274 326.797 125.134C326.918 124.995 327.064 124.881 327.229 124.8C327.393 124.717 327.571 124.668 327.754 124.655C327.937 124.643 328.12 124.667 328.294 124.728C328.467 124.788 328.627 124.883 328.765 125.006C328.902 125.13 329.015 125.281 329.095 125.449C330.222 127.683 331.837 129.622 333.813 131.116C335.79 132.61 338.075 133.619 340.494 134.065C342.912 134.511 345.399 134.383 347.761 133.69C350.123 132.996 352.298 131.757 354.117 130.066C355.26 128.88 356.304 127.598 357.241 126.235C358.063 125.041 358.951 123.895 359.9 122.803C372.515 108.975 399.831 120.394 411.14 128.082C420.229 134.322 426.439 144.556 426.939 154.203C427.342 162.09 425.024 169.715 422.437 176.779C421.852 178.414 421.217 180.074 420.522 181.696C417.838 188.311 415.056 195.137 416.862 201.802C418.924 207.006 422.45 211.698 425.866 216.241C430.306 222.169 434.906 228.297 436.614 235.859C440.384 252.645 430.172 266.598 410.579 271.415C406.516 272.413 402.32 273.112 398.257 273.774C392.478 274.568 386.767 275.82 381.177 277.518C367.025 282.248 355.203 293.405 350.335 306.609C344.711 321.884 362.267 337.809 367.781 342.326C367.992 342.514 368.143 342.762 368.214 343.038C368.285 343.315 368.273 343.607 368.18 343.876C368.086 344.146 367.916 344.38 367.69 344.549C367.465 344.718 367.194 344.813 366.915 344.822L366.793 344.885Z" fill="#219653"/>
<path opacity="0.7" d="M366.793 344.885C366.478 344.886 366.172 344.776 365.927 344.573C360.034 339.755 341.332 322.695 347.627 305.635C352.775 291.633 365.268 279.839 380.201 274.834C385.938 273.081 391.799 271.787 397.732 270.966C401.746 270.304 405.894 269.618 409.859 268.644C428.098 264.164 437.285 251.846 433.832 236.496C432.258 229.545 428.049 223.929 423.584 217.976C420.034 213.258 416.386 208.378 414.178 202.787C414.178 202.787 414.178 202.688 414.178 202.638C412.092 195.012 415.056 187.662 417.936 180.598C418.607 178.938 419.241 177.366 419.827 175.781C422.267 169.004 424.524 161.716 424.145 154.353C423.694 145.617 417.972 136.182 409.579 130.453C396.464 121.48 372.259 113.468 361.999 124.738C361.125 125.753 360.31 126.82 359.559 127.932C358.531 129.432 357.38 130.839 356.118 132.138C354.018 134.099 351.511 135.548 348.786 136.378C346.06 137.208 343.187 137.397 340.38 136.93C337.468 136.424 334.709 135.237 332.318 133.462C329.927 131.687 327.968 129.372 326.594 126.697C326.513 126.53 326.465 126.348 326.453 126.162C326.441 125.976 326.465 125.789 326.524 125.613C326.583 125.437 326.676 125.274 326.797 125.134C326.918 124.995 327.064 124.881 327.229 124.8C327.393 124.717 327.571 124.668 327.754 124.655C327.937 124.643 328.12 124.667 328.294 124.728C328.467 124.788 328.627 124.883 328.765 125.006C328.902 125.13 329.015 125.281 329.095 125.449C330.222 127.683 331.837 129.622 333.813 131.116C335.79 132.61 338.075 133.619 340.494 134.065C342.912 134.511 345.399 134.383 347.761 133.69C350.123 132.996 352.298 131.757 354.117 130.066C355.26 128.88 356.304 127.598 357.241 126.235C358.063 125.041 358.951 123.895 359.9 122.803C372.515 108.975 399.831 120.394 411.14 128.082C420.229 134.322 426.439 144.556 426.939 154.203C427.342 162.09 425.024 169.715 422.437 176.779C421.852 178.414 421.217 180.074 420.522 181.696C417.838 188.311 415.056 195.137 416.862 201.802C418.924 207.006 422.45 211.698 425.866 216.241C430.306 222.169 434.906 228.297 436.614 235.859C440.384 252.645 430.172 266.598 410.579 271.415C406.516 272.413 402.32 273.112 398.257 273.774C392.478 274.568 386.767 275.82 381.177 277.518C367.025 282.248 355.203 293.405 350.335 306.609C344.711 321.884 362.267 337.809 367.781 342.326C367.992 342.514 368.143 342.762 368.214 343.038C368.285 343.315 368.273 343.607 368.18 343.876C368.086 344.146 367.916 344.38 367.69 344.549C367.465 344.718 367.194 344.813 366.915 344.822L366.793 344.885Z" fill="white"/>
<path opacity="0.2" d="M284.26 189.297C282.686 191.98 282.333 200.529 283.138 208.616C286.261 205.396 288.53 200.866 291.434 197.621L292.044 196.947C288.823 192.304 285.163 187.649 284.26 189.297Z" fill="black"/>
<path d="M283.32 158.646C283.32 158.646 276 189.209 296.814 239.766L352.58 229.632C351.628 221.857 339.648 186.576 341.6 148.787C335.3 148.054 328.94 148.054 322.641 148.787C314.661 149.818 306.737 151.264 298.9 153.117C293.589 154.591 288.383 156.438 283.32 158.646Z" fill="#219653"/>
<path opacity="0.8" d="M283.32 158.646C283.32 158.646 276 189.209 296.814 239.766L352.58 229.632C351.628 221.857 339.648 186.576 341.6 148.787C335.3 148.054 328.94 148.054 322.641 148.787C314.661 149.818 306.737 151.264 298.9 153.117C293.589 154.591 288.383 156.438 283.32 158.646Z" fill="white"/>
<path opacity="0.2" d="M335.146 177.328C337.58 180.447 340.364 183.262 343.442 185.715C343.076 183.106 342.734 180.436 342.454 177.715L335.146 177.328Z" fill="black"/>
<path d="M296.814 239.828C296.814 239.828 268.558 273.399 270.864 302.378C273.304 332.529 303.975 381.938 303.975 381.938L322.617 372.378C322.617 372.378 310.417 320.449 300.949 305.36C311.271 287.776 324.898 266.785 334.304 234.599C317.078 237.744 296.814 239.828 296.814 239.828Z" fill="#219653"/>
<path opacity="0.8" d="M296.814 239.828C296.814 239.828 268.558 273.399 270.864 302.378C273.304 332.529 303.975 381.938 303.975 381.938L322.617 372.378C322.617 372.378 310.417 320.449 300.949 305.36C311.271 287.776 324.898 266.785 334.304 234.599C317.078 237.744 296.814 239.828 296.814 239.828Z" fill="white"/>
<path opacity="0.2" d="M323.3 257.4C318.176 261.356 315.053 272.987 314.967 281.112C319.298 273.181 323.188 265.006 326.618 256.626C326.043 256.506 325.45 256.513 324.877 256.647C324.305 256.78 323.767 257.037 323.3 257.4Z" fill="black"/>
<path d="M304.475 380.141L320.335 370.244C320.588 370.119 320.875 370.086 321.149 370.152C321.422 370.218 321.665 370.378 321.836 370.606L328.607 382.562C328.825 382.8 328.989 383.084 329.087 383.394C329.185 383.704 329.214 384.033 329.174 384.356C329.133 384.679 329.023 384.989 328.851 385.264C328.679 385.538 328.45 385.771 328.18 385.944C323.507 388.44 323.154 388.215 317.334 391.485C313.76 393.507 306.61 398.087 301.669 400.87C296.728 403.653 293.337 398.674 294.801 396.727C300.23 389.551 301.73 386.743 303.011 382.05C303.119 381.648 303.304 381.273 303.555 380.945C303.807 380.617 304.12 380.344 304.475 380.141Z" fill="#219653"/>
<path opacity="0.8" d="M304.475 380.141L320.335 370.244C320.588 370.119 320.875 370.086 321.149 370.152C321.422 370.218 321.665 370.378 321.836 370.606L328.607 382.562C328.825 382.8 328.989 383.084 329.087 383.394C329.185 383.704 329.214 384.033 329.174 384.356C329.133 384.679 329.023 384.989 328.851 385.264C328.679 385.538 328.45 385.771 328.18 385.944C323.507 388.44 323.154 388.215 317.334 391.485C313.76 393.507 306.61 398.087 301.669 400.87C296.728 403.653 293.337 398.674 294.801 396.727C300.23 389.551 301.73 386.743 303.011 382.05C303.119 381.648 303.304 381.273 303.555 380.945C303.807 380.617 304.12 380.344 304.475 380.141Z" fill="white"/>
<path d="M428.623 398.911L335.683 496.267L319.689 463.095L395.829 383.335L428.623 398.911Z" fill="#219653"/>
<path opacity="0.4" d="M428.623 398.911L335.683 496.267L319.689 463.095L395.829 383.335L428.623 398.911Z" fill="black"/>
<path d="M417.74 421.274L357.289 484.61L330.217 446.384L379.749 394.505L417.74 421.274Z" fill="#219653"/>
<path opacity="0.3" d="M417.74 421.274L357.289 484.61L330.217 446.384L379.749 394.505L417.74 421.274Z" fill="black"/>
<path d="M246.94 401.07C246.94 401.07 270.73 426.991 291.165 449.542C294.012 452.764 295.984 456.692 296.885 460.935C297.786 465.178 297.585 469.589 296.302 473.728C291.58 489.952 298.498 518.569 298.498 518.569C275.891 498.851 215.184 481.603 246.94 401.07Z" fill="#219653"/>
<path opacity="0.3" d="M246.94 401.07C246.94 401.07 270.73 426.991 291.165 449.542C294.012 452.764 295.984 456.692 296.885 460.935C297.786 465.178 297.585 469.589 296.302 473.728C291.58 489.952 298.498 518.569 298.498 518.569C275.891 498.851 215.184 481.603 246.94 401.07Z" fill="black"/>
<path d="M333.487 310.415C333.487 310.415 359.388 334.127 381.909 354.494C385.125 357.327 389.009 359.249 393.177 360.07C397.344 360.891 401.648 360.582 405.663 359.174C421.352 353.958 449.583 360.36 449.583 360.36C429.733 337.709 411.445 276.032 333.487 310.415Z" fill="#219653"/>
<path opacity="0.3" d="M333.487 310.415C333.487 310.415 359.388 334.127 381.909 354.494C385.125 357.327 389.009 359.249 393.177 360.07C397.344 360.891 401.648 360.582 405.663 359.174C421.352 353.958 449.583 360.36 449.583 360.36C429.733 337.709 411.445 276.032 333.487 310.415Z" fill="black"/>
<path d="M274.134 247.928C223.199 202.563 168.214 188.46 146.034 211.736C123.855 235.011 138.946 290.884 184.476 341.889L297.448 468.437C299.668 470.92 302.36 472.914 305.359 474.296C308.358 475.679 311.601 476.421 314.89 476.477C318.179 476.533 321.445 475.902 324.487 474.622C327.53 473.343 330.285 471.442 332.584 469.036L401.917 396.415C404.215 394.006 406.008 391.143 407.187 388.001C408.365 384.859 408.904 381.504 408.77 378.141C408.637 374.778 407.833 371.479 406.41 368.445C404.986 365.411 402.971 362.707 400.49 360.497L274.134 247.928Z" fill="#219653"/>
<path opacity="0.1" d="M334.024 449.917C334.65 450.236 335.193 450.701 335.611 451.275C336.028 451.848 336.307 452.515 336.426 453.22C336.545 453.924 336.5 454.648 336.294 455.332C336.089 456.015 335.729 456.64 335.244 457.155C327.802 465.017 313.711 463.02 304.427 452.774L192.345 329.222C169.824 304.4 153.806 279.302 145.51 258.224C143.07 251.984 151.536 247.603 155.062 253.232C166.298 271.19 183.049 292.631 204.021 314.983L321.995 440.544C325.472 444.325 329.536 447.492 334.024 449.917Z" fill="white"/>
<path opacity="0.1" d="M192.882 202.538C181.487 202.113 167.177 208.778 155.416 221.083C143.655 233.388 137.506 248.189 138.177 259.846C133.578 239.441 135.981 222.231 146.022 211.698C156.062 201.165 172.837 198.307 192.882 202.538Z" fill="black"/>
<path opacity="0.3" d="M232.267 341.305C256.162 340.818 275.147 320.609 274.671 296.166C274.196 271.723 254.44 252.303 230.546 252.789C206.651 253.276 187.666 273.485 188.142 297.928C188.617 322.371 208.373 341.791 232.267 341.305Z" fill="black"/>
<path d="M264.05 322.876C278.79 303.632 275.489 275.808 256.677 260.729C237.864 245.651 210.665 249.028 195.925 268.272C181.185 287.516 184.486 315.34 203.298 330.418C222.11 345.497 249.31 342.12 264.05 322.876Z" fill="white"/>
<path opacity="0.7" d="M259.494 321.921C273.702 305.248 272.007 279.951 255.709 265.417C239.41 250.882 214.68 252.616 200.472 269.288C186.264 285.961 187.959 311.259 204.257 325.793C220.555 340.327 245.286 338.593 259.494 321.921Z" fill="#219653"/>
<g opacity="0.2">
<path opacity="0.2" d="M201.983 267.583C198.255 271.457 195.348 276.075 193.443 281.149L212.183 331.244C219.752 335.178 228.366 336.492 236.729 334.988L209.279 261.581C206.62 263.275 204.171 265.29 201.983 267.583Z" fill="white"/>
<path opacity="0.2" d="M212.158 259.921L239.962 334.289C244.241 333.144 248.3 331.266 251.967 328.736L224.761 255.84C220.36 256.442 216.096 257.823 212.158 259.921Z" fill="white"/>
</g>
<path d="M376.846 383.635L385.129 366.725C385.279 366.484 385.505 366.304 385.769 366.213C386.033 366.122 386.32 366.127 386.581 366.225L398.293 371.841C398.601 371.925 398.886 372.077 399.13 372.287C399.373 372.496 399.568 372.758 399.701 373.054C399.834 373.35 399.902 373.672 399.899 373.997C399.896 374.323 399.822 374.643 399.684 374.936C397.049 379.579 396.841 380.403 393.584 386.306C391.608 389.937 387.935 397.663 385.203 402.68C382.47 407.696 377.017 405.313 377.248 402.879C378.115 393.881 377.895 390.661 376.565 386.044C376.451 385.644 376.417 385.224 376.465 384.81C376.513 384.396 376.643 383.997 376.846 383.635Z" fill="#219653"/>
<path opacity="0.8" d="M376.846 383.635L385.129 366.725C385.279 366.484 385.505 366.304 385.769 366.213C386.033 366.122 386.32 366.127 386.581 366.225L398.293 371.841C398.601 371.925 398.886 372.077 399.13 372.287C399.373 372.496 399.568 372.758 399.701 373.054C399.834 373.35 399.902 373.672 399.899 373.997C399.896 374.323 399.822 374.643 399.684 374.936C397.049 379.579 396.841 380.403 393.584 386.306C391.608 389.937 387.935 397.663 385.203 402.68C382.47 407.696 377.017 405.313 377.248 402.879C378.115 393.881 377.895 390.661 376.565 386.044C376.451 385.644 376.417 385.224 376.465 384.81C376.513 384.396 376.643 383.997 376.846 383.635Z" fill="white"/>
<path d="M316.578 236.234C316.578 236.234 316.687 289.349 327.85 315.02C340.075 343.2 377.602 386.88 377.602 386.88L391.754 372.341C391.754 372.341 373.905 332.405 357.338 311.052C356.996 284.744 359.778 256.04 352.946 232.19C340.938 234.463 328.782 235.814 316.578 236.234Z" fill="#219653"/>
<path opacity="0.8" d="M316.578 236.234C316.578 236.234 316.687 289.349 327.85 315.02C340.075 343.2 377.602 386.88 377.602 386.88L391.754 372.341C391.754 372.341 373.905 332.405 357.338 311.052C356.996 284.744 359.778 256.04 352.946 232.19C340.938 234.463 328.782 235.814 316.578 236.234Z" fill="white"/>
<path d="M351.141 236.259C325.264 242.374 305.781 242.998 297.839 242.936C297.336 242.937 296.838 242.832 296.376 242.628C295.915 242.423 295.499 242.124 295.156 241.748C294.812 241.372 294.548 240.928 294.38 240.443C294.212 239.958 294.144 239.443 294.179 238.929C294.223 237.956 294.637 237.039 295.331 236.372C296.026 235.706 296.948 235.343 297.9 235.36C315.281 235.19 332.588 233.017 349.494 228.883C349.962 228.768 350.449 228.749 350.925 228.827C351.4 228.904 351.857 229.078 352.267 229.336C352.677 229.595 353.034 229.934 353.316 230.333C353.598 230.733 353.8 231.186 353.91 231.666C354.033 232.154 354.058 232.662 353.984 233.16C353.911 233.659 353.739 234.136 353.481 234.565C353.222 234.994 352.882 235.365 352.479 235.656C352.077 235.947 351.622 236.152 351.141 236.259Z" fill="#263238"/>
<path d="M379.835 180.885C377.639 175.731 374.589 172.311 370.477 168.692C362.34 161.491 348.92 150.334 341.6 148.836L332.706 178.202L356.081 187.025C360.705 190.395 361.742 192.616 363.108 198.095C363.926 201.315 364.524 204.747 365.109 208.241C366.195 215.218 366.951 222.643 367.671 229.807L379.871 230.88C380.77 227.013 381.475 223.102 381.982 219.161C382.482 215.255 382.86 211.299 383.007 207.28C383.196 203.17 383.131 199.052 382.811 194.95C382.568 190.128 381.563 185.378 379.835 180.885Z" fill="#219653"/>
<path opacity="0.8" d="M379.835 180.885C377.639 175.731 374.589 172.311 370.477 168.692C362.34 161.491 348.92 150.334 341.6 148.836L332.706 178.202L356.081 187.025C360.705 190.395 361.742 192.616 363.108 198.095C363.926 201.315 364.524 204.747 365.109 208.241C366.195 215.218 366.951 222.643 367.671 229.807L379.871 230.88C380.77 227.013 381.475 223.102 381.982 219.161C382.482 215.255 382.86 211.299 383.007 207.28C383.196 203.17 383.131 199.052 382.811 194.95C382.568 190.128 381.563 185.378 379.835 180.885Z" fill="white"/>
<path d="M383.544 211.499H364.292C364.292 211.499 362.962 242.499 370.795 245.319C378.895 248.277 382.507 228.197 383.544 211.499Z" fill="#263238"/>
<path d="M369.733 229.856L364.78 224.166C364.78 224.166 360.156 237.107 362.974 238.705C365.793 240.302 368.135 237.12 369.733 229.856Z" fill="#263238"/>
<path opacity="0.2" d="M322.58 148.811C314.621 149.837 306.717 151.274 298.9 153.117C295.911 153.915 293.032 154.876 290.555 155.763C295.879 157.75 301.608 158.326 307.208 157.435C309.209 157.096 311.162 156.514 313.028 155.7C318.395 154.323 323.423 151.815 327.79 148.337C326.069 148.424 324.313 148.574 322.58 148.811Z" fill="black"/>
<path d="M313.113 125.761C312.991 132.862 313.87 145.729 319.36 149.398C319.36 149.398 319.433 152.505 308.087 154.54C298.827 156.199 298.51 153.192 298.51 153.192C305.671 149.997 304.488 144.356 302.255 139.264L313.113 125.761Z" fill="#895D3F"/>
<path opacity="0.2" d="M308.66 131.265L302.243 139.264C302.774 140.444 303.207 141.667 303.536 142.921C306.33 141.985 309.697 138.066 309.465 134.946C309.413 133.68 309.14 132.433 308.66 131.265Z" fill="black"/>
<path d="M291.897 124.987C288.616 120.432 284.907 113.83 286.505 110.56C288.103 107.29 294.764 105.381 297.79 107.777C301.584 110.81 298.815 120.232 291.897 124.987Z" fill="#263238"/>
<path d="M313.54 116.064C313.82 125.511 314.455 131.04 310.246 136.294C303.914 144.206 292.19 140.961 289.152 131.788C286.431 123.552 286.444 109.424 295.093 104.832C297.001 103.814 299.131 103.312 301.281 103.374C303.431 103.436 305.53 104.059 307.379 105.185C309.227 106.31 310.764 107.901 311.842 109.805C312.92 111.709 313.505 113.863 313.54 116.064Z" fill="#895D3F"/>
<path d="M313.223 124.887C309.124 121.143 304.207 115.365 305.147 111.833C306.086 108.301 312.235 105.082 315.663 106.841C319.97 109.013 319.079 118.822 313.223 124.887Z" fill="#263238"/>
<path d="M308.66 111.247C302.353 113.031 284.516 116.626 287.017 108.938C289.518 101.25 299.327 99.7901 302.877 101.45C306.428 103.11 309.234 98.7168 309.234 98.7168C309.746 99.9648 307.025 103.397 303.134 103.958C299.242 104.52 319.945 100.838 314.516 108.376C309.087 115.914 308.66 111.247 308.66 111.247Z" fill="#263238"/>
<path d="M318.628 126.048C318.106 127.098 317.388 128.032 316.512 128.796C315.637 129.561 314.623 130.141 313.528 130.503C310.6 131.464 309.026 128.806 309.746 125.911C310.393 123.302 312.711 119.671 315.7 119.983C316.352 120.061 316.976 120.305 317.513 120.692C318.05 121.08 318.484 121.599 318.775 122.202C319.066 122.804 319.205 123.472 319.179 124.144C319.153 124.816 318.964 125.47 318.628 126.048Z" fill="#895D3F"/>
<path d="M299.852 119.958C299.925 120.719 299.583 121.38 299.095 121.43C298.607 121.48 298.156 120.894 298.083 120.182C298.009 119.471 298.351 118.76 298.839 118.722C299.327 118.685 299.778 119.196 299.852 119.958Z" fill="#263238"/>
<path d="M291.397 120.756C291.47 121.518 291.128 122.179 290.64 122.217C290.152 122.254 289.689 121.68 289.628 120.969C289.567 120.257 289.896 119.546 290.384 119.496C290.872 119.446 291.324 119.983 291.397 120.756Z" fill="#263238"/>
<path d="M294.117 120.881C293.436 123.303 292.43 125.617 291.128 127.757C291.675 128.089 292.287 128.293 292.92 128.353C293.553 128.413 294.191 128.329 294.788 128.107L294.117 120.881Z" fill="#714B30"/>
<path d="M300.852 128.469C299.818 129.359 298.539 129.9 297.192 130.016C297.134 130.016 297.078 129.993 297.037 129.951C296.996 129.909 296.973 129.851 296.973 129.792C296.973 129.732 296.996 129.675 297.037 129.633C297.078 129.591 297.134 129.567 297.192 129.567C298.126 129.503 299.031 129.214 299.834 128.723C300.638 128.233 301.317 127.556 301.816 126.747C301.829 126.72 301.847 126.697 301.869 126.678C301.891 126.66 301.916 126.646 301.944 126.637C301.971 126.629 302 126.627 302.029 126.631C302.057 126.634 302.084 126.644 302.109 126.659C302.16 126.686 302.2 126.733 302.218 126.789C302.236 126.845 302.232 126.906 302.206 126.959C301.845 127.54 301.387 128.051 300.852 128.469Z" fill="#263238"/>
<path d="M302.389 116.825C302.307 116.906 302.198 116.951 302.084 116.951C301.97 116.951 301.861 116.906 301.779 116.825C301.42 116.395 300.966 116.058 300.455 115.841C299.944 115.624 299.39 115.534 298.839 115.577C298.781 115.588 298.722 115.586 298.665 115.573C298.607 115.56 298.553 115.535 298.505 115.501C298.458 115.466 298.417 115.421 298.386 115.37C298.356 115.319 298.335 115.262 298.326 115.203C298.309 115.084 298.337 114.962 298.405 114.864C298.474 114.767 298.577 114.7 298.692 114.678C299.39 114.608 300.094 114.709 300.746 114.974C301.398 115.239 301.978 115.66 302.438 116.201C302.479 116.243 302.511 116.292 302.533 116.347C302.556 116.402 302.567 116.46 302.567 116.519C302.567 116.578 302.556 116.637 302.533 116.692C302.511 116.746 302.479 116.796 302.438 116.838L302.389 116.825Z" fill="#263238"/>
<path d="M287.676 118.023C287.616 118.074 287.543 118.109 287.466 118.122C287.389 118.135 287.31 118.127 287.237 118.098C287.182 118.079 287.132 118.048 287.09 118.008C287.047 117.969 287.013 117.921 286.989 117.867C286.965 117.813 286.952 117.755 286.95 117.696C286.949 117.637 286.959 117.579 286.98 117.524C287.213 116.847 287.6 116.237 288.109 115.745C288.618 115.252 289.235 114.891 289.908 114.691C289.965 114.679 290.024 114.678 290.081 114.689C290.138 114.7 290.193 114.722 290.242 114.755C290.29 114.787 290.332 114.829 290.365 114.878C290.398 114.927 290.421 114.982 290.433 115.04C290.445 115.099 290.446 115.159 290.435 115.217C290.424 115.275 290.403 115.331 290.371 115.381C290.339 115.431 290.298 115.474 290.25 115.507C290.202 115.541 290.148 115.565 290.091 115.577C289.561 115.74 289.077 116.03 288.678 116.423C288.279 116.816 287.978 117.3 287.798 117.836C287.772 117.907 287.73 117.971 287.676 118.023Z" fill="#263238"/>
<path d="M333.682 122.154C336.537 137.592 327.692 152.193 313.748 155.613C313.211 155.738 312.662 155.85 312.113 155.95C305.39 157.127 298.481 155.631 292.8 151.769C296.659 152.751 300.697 152.727 304.543 151.698C308.39 150.669 311.923 148.669 314.818 145.881C317.713 143.093 319.878 139.606 321.113 135.74C322.349 131.874 322.616 127.752 321.89 123.753C321.164 119.754 319.468 116.005 316.958 112.851C314.448 109.696 311.204 107.237 307.523 105.698C303.843 104.159 299.844 103.589 295.892 104.042C291.94 104.495 288.163 105.955 284.907 108.289C287.639 104.536 291.28 101.576 295.472 99.7026C297.353 98.8744 299.322 98.2754 301.34 97.9179C316.236 95.2722 330.706 106.08 333.682 122.154Z" fill="#219653"/>
<path opacity="0.8" d="M333.682 122.154C336.537 137.592 327.692 152.193 313.748 155.613C313.211 155.738 312.662 155.85 312.113 155.95C305.39 157.127 298.481 155.631 292.8 151.769C296.659 152.751 300.697 152.727 304.543 151.698C308.39 150.669 311.923 148.669 314.818 145.881C317.713 143.093 319.878 139.606 321.113 135.74C322.349 131.874 322.616 127.752 321.89 123.753C321.164 119.754 319.468 116.005 316.958 112.851C314.448 109.696 311.204 107.237 307.523 105.698C303.843 104.159 299.844 103.589 295.892 104.042C291.94 104.495 288.163 105.955 284.907 108.289C287.639 104.536 291.28 101.576 295.472 99.7026C297.353 98.8744 299.322 98.2754 301.34 97.9179C316.236 95.2722 330.706 106.08 333.682 122.154Z" fill="white"/>
<path d="M328.18 124.026C330.852 137.829 324.606 150.796 313.809 155.613C312.065 156.378 310.238 156.927 308.367 157.248C299.559 158.72 290.824 154.939 284.785 147.963C288.328 150.554 292.499 152.098 296.842 152.428C301.185 152.758 305.533 151.86 309.411 149.832C313.289 147.804 316.547 144.725 318.83 140.931C321.112 137.137 322.331 132.774 322.353 128.319C322.375 123.864 321.199 119.488 318.954 115.671C316.709 111.853 313.481 108.74 309.623 106.673C305.766 104.605 301.426 103.662 297.08 103.947C292.734 104.232 288.548 105.734 284.98 108.289C282.668 109.927 280.667 111.982 279.075 114.354C280.501 110.759 282.736 107.559 285.597 105.013C288.459 102.468 291.867 100.648 295.545 99.7024C296.07 99.5776 296.594 99.4778 297.119 99.3779C311.1 96.9943 325.033 108.052 328.18 124.026Z" fill="#219653"/>
<path opacity="0.6" d="M328.18 124.026C330.852 137.829 324.606 150.796 313.809 155.613C312.065 156.378 310.238 156.927 308.367 157.248C299.559 158.72 290.824 154.939 284.785 147.963C288.328 150.554 292.499 152.098 296.842 152.428C301.185 152.758 305.533 151.86 309.411 149.832C313.289 147.804 316.547 144.725 318.83 140.931C321.112 137.137 322.331 132.774 322.353 128.319C322.375 123.864 321.199 119.488 318.954 115.671C316.709 111.853 313.481 108.74 309.623 106.673C305.766 104.605 301.426 103.662 297.08 103.947C292.734 104.232 288.548 105.734 284.98 108.289C282.668 109.927 280.667 111.982 279.075 114.354C280.501 110.759 282.736 107.559 285.597 105.013C288.459 102.468 291.867 100.648 295.545 99.7024C296.07 99.5776 296.594 99.4778 297.119 99.3779C311.1 96.9943 325.033 108.052 328.18 124.026Z" fill="white"/>
<path opacity="0.2" d="M274.817 129.355C275.118 135.793 277.907 141.845 282.57 146.179C287.233 150.514 293.388 152.776 299.681 152.468C305.974 152.16 311.89 149.308 316.128 144.538C320.365 139.768 322.576 133.472 322.275 127.034C311.613 124.575 285.822 122.853 274.817 129.355Z" fill="#219653"/>
<path opacity="0.2" d="M325.862 186.039C314.978 186.707 304.156 188.188 293.483 190.47L292.885 189.908L324.703 167.631L325.288 168.193C325.288 168.193 325.545 180.124 325.862 186.039Z" fill="black"/>
<path d="M325.276 185.478C314.388 186.147 303.563 187.627 292.885 189.908C292.288 183.93 291.824 177.915 291.531 171.85C302.48 169.66 313.564 168.251 324.703 167.631C324.768 173.613 324.959 179.562 325.276 185.478Z" fill="white"/>
<path opacity="0.3" d="M318.335 173.397C318.333 173.836 318.207 174.266 317.973 174.634C317.74 175.003 317.408 175.295 317.017 175.476C316.625 175.658 316.192 175.72 315.767 175.657C315.342 175.594 314.944 175.407 314.619 175.119C314.295 174.832 314.058 174.455 313.937 174.033C313.815 173.612 313.815 173.164 313.935 172.742C314.055 172.32 314.291 171.943 314.614 171.654C314.938 171.365 315.336 171.178 315.761 171.113C316.396 171.075 317.021 171.293 317.502 171.719C317.983 172.146 318.282 172.748 318.335 173.397Z" fill="#219653"/>
<path opacity="0.3" d="M318.53 180.498C318.528 180.938 318.402 181.368 318.168 181.737C317.934 182.106 317.602 182.398 317.21 182.58C316.818 182.761 316.384 182.823 315.958 182.759C315.533 182.695 315.134 182.508 314.81 182.219C314.486 181.93 314.25 181.551 314.129 181.129C314.009 180.707 314.01 180.258 314.132 179.836C314.254 179.414 314.492 179.037 314.817 178.75C315.143 178.462 315.542 178.276 315.968 178.214C316.601 178.179 317.223 178.398 317.701 178.825C318.179 179.251 318.477 179.851 318.53 180.498Z" fill="#219653"/>
<path d="M296.887 184.804C300.832 184.082 304.81 183.57 308.807 183.269C306.159 179.525 302.194 173.123 302.194 173.123C300.215 176.913 298.443 180.812 296.887 184.804Z" fill="#219653"/>
<path opacity="0.2" d="M322.48 127.141C322.704 131.941 321.531 136.701 319.11 140.82C316.69 144.938 313.129 148.23 308.88 150.278C304.63 152.327 299.883 153.041 295.237 152.329C290.591 151.618 286.255 149.513 282.779 146.281C279.302 143.049 276.84 138.835 275.704 134.172C274.569 129.509 274.81 124.607 276.399 120.084C277.987 115.561 280.85 111.622 284.627 108.764C288.404 105.906 292.924 104.258 297.616 104.028C300.732 103.875 303.848 104.352 306.784 105.431C309.72 106.51 312.419 108.17 314.728 110.316C317.037 112.462 318.91 115.053 320.24 117.94C321.57 120.826 322.331 123.953 322.48 127.141Z" fill="#219653"/>
</svg>
