<svg width="160" height="159" viewBox="0 0 160 159" fill="none" xmlns="http://www.w3.org/2000/svg">
<path d="M13.3158 71.9169C13.6391 68.0103 27.3683 45.7921 37.1753 28.1785L41.4408 22.4752C43.0274 20.4451 47.1907 17.2468 56.2089 17.3634C65.227 17.4799 91.867 17.4161 104.059 17.3697C113.298 17.4393 118.562 23.2259 120.04 26.1104C127.857 38.9363 144.018 65.7182 146.13 70.2363C148.243 74.7542 148.211 82.2955 147.903 85.371C140.766 98.3628 125.28 125.968 120.652 133.499C116.025 141.028 106.465 142.249 102.263 141.919C92.5189 141.731 70.7434 141.446 61.5964 141.808C50.1626 142.261 47.8195 139.372 44.2122 137.316C40.6047 135.26 29.6269 116.144 18.7064 97.2988C7.78596 78.4531 12.9116 76.8001 13.3158 71.9169Z" fill="#FFF7D6"/>
</svg>
