<svg width="36" height="36" viewBox="0 0 36 36" fill="none" xmlns="http://www.w3.org/2000/svg">
<circle cx="18" cy="18" r="18" fill="#CBDFAB"/>
<path d="M17.9999 22.9999C16.6738 22.9999 15.4021 22.4731 14.4644 21.5355C13.5267 20.5978 12.9999 19.326 12.9999 17.9999C12.9999 16.6738 13.5267 15.4021 14.4644 14.4644C15.4021 13.5267 16.6738 12.9999 17.9999 12.9999C19.326 12.9999 20.5978 13.5267 21.5355 14.4644C22.4731 15.4021 22.9999 16.6738 22.9999 17.9999C22.9999 19.326 22.4731 20.5978 21.5355 21.5355C20.5978 22.4731 19.326 22.9999 17.9999 22.9999ZM17.1666 8.83325H18.8333V11.3333H17.1666V8.83325ZM17.1666 24.6666H18.8333V27.1666H17.1666V24.6666ZM10.9291 12.1074L12.1074 10.9291L13.8749 12.6966L12.6966 13.8749L10.9291 12.1083V12.1074ZM22.1249 23.3033L23.3033 22.1249L25.0708 23.8924L23.8924 25.0708L22.1249 23.3033ZM23.8924 10.9283L25.0708 12.1074L23.3033 13.8749L22.1249 12.6966L23.8924 10.9291V10.9283ZM12.6966 22.1249L13.8749 23.3033L12.1074 25.0708L10.9291 23.8924L12.6966 22.1249ZM27.1666 17.1666V18.8333H24.6666V17.1666H27.1666ZM11.3333 17.1666V18.8333H8.83325V17.1666H11.3333Z" fill="#255E13"/>
</svg>
