<svg width="437" height="351" viewBox="0 0 437 351" fill="none" xmlns="http://www.w3.org/2000/svg">
<g clip-path="url(#clip0)">
<path d="M92.0601 264.55C121.88 250.07 133.51 216.24 137.42 184.79C138.07 179.54 139.52 174.13 137.77 169.15C136.01 164.17 130.72 160.12 125.69 161.58C121.52 162.79 119.11 167.03 116.35 170.41C112.67 174.91 107.72 178.34 102.24 180.16C98.6401 181.36 94.3601 181.76 91.3601 179.42C87.2501 176.22 87.7101 169.91 88.5701 164.72C90.1701 155.05 91.7701 145.38 93.3701 135.71C94.2301 130.52 95.0901 125.22 94.2601 120.04C93.4301 114.85 90.5901 109.71 85.8701 107.54C81.1501 105.37 74.5901 107.25 72.7301 112.16C71.9601 114.21 72.0401 116.47 71.5501 118.6C71.0601 120.73 69.6801 122.96 67.5401 123.23C65.3701 123.51 63.5301 121.71 62.2201 119.94C57.6901 113.84 55.1301 106.51 52.8001 99.2501C50.4701 91.9901 48.2601 84.5901 44.3101 78.1001C40.3601 71.6101 34.3501 66.0001 26.9801 64.4001C19.6101 62.8001 10.9501 66.1201 7.91007 73.1301C4.86007 80.1501 7.95007 88.2601 11.6501 94.9301C17.1501 104.82 24.0701 113.89 32.1201 121.78C33.5701 123.2 35.1501 124.74 35.4701 126.76C36.0501 130.4 32.2201 133.32 28.6201 133.91C24.5401 134.58 20.4101 133.51 16.2801 133.34C12.1501 133.17 7.48007 134.26 5.34007 137.84C2.37007 142.81 5.92007 149.08 9.71007 153.42C17.2901 162.11 26.3701 169.46 36.4001 175.06C40.0001 177.07 43.8201 178.93 46.4801 182.11C49.1301 185.29 50.2501 190.25 47.8101 193.61C45.3601 196.98 40.4001 197.39 36.5201 196.01C32.6401 194.63 29.4001 191.89 25.8201 189.84C19.1101 186.01 9.82007 185.04 4.26007 190.48C0.610071 194.06 -0.549929 199.66 0.200071 204.73C0.950071 209.8 3.37007 214.46 6.03007 218.82C15.3301 234.06 28.2601 247.2 43.9001 255.57C59.5601 263.96 74.6501 267.95 92.0601 264.55Z" fill="#FDC717" fill-opacity="0.2"/>
<path d="M87.8303 266.22C88.6703 253.65 89.2303 260.17 87.1003 243.66C85.0103 227.14 81.2103 209.22 76.6003 190.62C75.4303 185.97 74.2703 181.38 73.1303 176.86C71.9803 172.35 70.8403 167.87 69.4603 163.56C66.7303 154.93 63.4503 146.83 60.0903 139.25C56.7403 131.66 53.2803 124.58 49.9903 117.99C46.6903 111.4 43.5003 105.31 40.3603 99.8901C34.1003 89.0201 28.0303 80.8601 23.6303 75.4301C21.4403 72.7101 19.6703 70.6501 18.4503 69.2701C17.8603 68.6101 17.4003 68.1001 17.0503 67.7101C16.7303 67.3601 16.5603 67.1901 16.5503 67.2001C16.5403 67.2101 16.6803 67.4101 16.9803 67.7701C17.3103 68.1701 17.7503 68.7101 18.3003 69.3901C19.4703 70.8101 21.1903 72.9001 23.3403 75.6601C27.6403 81.1501 33.6103 89.3401 39.7703 100.23C42.8703 105.66 46.0203 111.75 49.2803 118.34C52.5303 124.95 55.9603 132.03 59.2803 139.61C62.6103 147.19 65.8603 155.26 68.5603 163.84C69.9303 168.13 71.0503 172.57 72.2003 177.09C73.3403 181.61 74.4903 186.2 75.6603 190.85C80.2703 209.44 84.0803 227.31 86.2103 243.77C88.3703 260.22 87.8803 253.64 87.1403 266.17" fill="#A8D29F"/>
<path d="M69.2101 163.48C69.2701 163.5 69.5701 162.74 70.0701 161.35C70.5701 159.96 71.2301 157.92 72.0101 155.39C73.5701 150.34 75.4801 143.28 77.5601 135.5C79.6401 127.71 81.6501 120.71 83.2801 115.69C84.0901 113.18 84.7601 111.15 85.2501 109.76C85.7301 108.36 85.9601 107.58 85.9001 107.55C85.8401 107.53 85.4901 108.26 84.9001 109.62C84.3101 110.98 83.5301 112.97 82.6401 115.46C80.8401 120.44 78.7201 127.44 76.6401 135.24C74.6101 142.93 72.7701 149.88 71.3701 155.19C70.7201 157.59 70.1701 159.61 69.7301 161.23C69.3201 162.65 69.1401 163.45 69.2101 163.48Z" fill="#A8D29F"/>
<path d="M4.42 140.37C4.41 140.44 5.34 140.7 7.03 141.11C8.72 141.54 11.17 142.14 14.16 142.98C20.17 144.61 28.39 147.16 37.34 150.37C46.29 153.59 54.26 156.86 59.96 159.38C62.82 160.62 65.11 161.69 66.69 162.42C68.27 163.16 69.16 163.53 69.19 163.47C69.22 163.41 68.39 162.92 66.85 162.07C65.31 161.24 63.07 160.07 60.23 158.74C54.59 156.05 46.63 152.67 37.66 149.44C28.68 146.23 20.4 143.77 14.32 142.31C11.29 141.55 8.81 141.05 7.09 140.74C5.39 140.44 4.44 140.3 4.42 140.37Z" fill="#A8D29F"/>
<path d="M86.4798 242.3C86.5098 242.32 86.7098 242.06 87.0698 241.56C87.4798 240.96 87.9898 240.22 88.5998 239.33C89.9198 237.38 91.7498 234.52 93.9698 230.95C98.4098 223.81 104.23 213.76 110.5 202.59C116.78 191.41 122.5 181.32 126.78 174.1C128.87 170.59 130.6 167.71 131.88 165.56C132.43 164.63 132.88 163.86 133.25 163.23C133.55 162.69 133.7 162.4 133.67 162.38C133.64 162.36 133.44 162.62 133.08 163.12C132.67 163.72 132.16 164.46 131.55 165.35C130.23 167.3 128.4 170.16 126.18 173.73C121.74 180.87 115.92 190.92 109.64 202.1C103.36 213.28 97.6498 223.37 93.3598 230.59C91.2598 234.1 89.5398 236.98 88.2598 239.12C87.7098 240.05 87.2598 240.82 86.8898 241.45C86.5998 241.99 86.4498 242.28 86.4798 242.3Z" fill="#A8D29F"/>
<path d="M2.30983 199.58C2.29983 199.61 2.57983 199.78 3.12983 200.08C3.78983 200.42 4.58983 200.84 5.56983 201.35C7.82983 202.5 10.8698 204.05 14.5798 205.94C22.1898 209.82 32.6298 215.3 44.1698 221.36C55.7098 227.43 66.2198 232.82 73.9098 236.54C77.7498 238.4 80.8798 239.88 83.0598 240.85C84.0698 241.29 84.8998 241.66 85.5798 241.96C86.1598 242.2 86.4698 242.32 86.4898 242.28C86.4998 242.25 86.2198 242.08 85.6698 241.78C85.0098 241.44 84.2098 241.02 83.2298 240.51C80.9698 239.36 77.9298 237.81 74.2198 235.92C66.6098 232.04 56.1598 226.56 44.6298 220.49C33.0998 214.42 22.5898 209.04 14.8998 205.31C11.0598 203.45 7.92983 201.97 5.74983 201C4.73983 200.56 3.90983 200.19 3.22983 199.89C2.62983 199.67 2.31983 199.55 2.30983 199.58Z" fill="#A8D29F"/>
<path d="M427.89 349.9C427.89 350.04 333.22 350.16 216.47 350.16C99.6798 350.16 5.02979 350.04 5.02979 349.9C5.02979 349.76 99.6798 349.64 216.47 349.64C333.22 349.64 427.89 349.75 427.89 349.9Z" fill="#263238"/>
<path d="M28.2598 184.28C28.2598 184.28 35.1598 179.62 43.7798 196.15C52.3998 212.68 55.6998 222.23 55.6998 222.23C55.6998 222.23 57.9698 225.69 60.3398 223.39C62.7098 221.09 65.9198 214.61 69.9998 215.73C74.2298 216.9 75.6598 221.59 74.9198 228.5C74.1798 235.42 73.1198 250.64 73.0298 252.01C72.9398 253.36 73.7298 255.34 75.5998 254.04C77.4598 252.73 88.1498 240.61 93.5998 246.02C99.0498 251.43 93.8298 270.37 93.2898 272.45C92.7598 274.53 93.1698 275.41 94.1598 275.92C95.1498 276.42 98.3598 272.01 101.54 268.69C104.72 265.37 108.99 262.07 111.87 265.46C114.75 268.85 115.8 283.01 102.53 306.15L95.6798 316.47L83.2498 315.9C56.7298 313.05 45.8798 303.89 44.8298 299.57C43.7798 295.25 48.9598 293.73 53.5098 293.1C58.0698 292.48 63.5198 292.47 63.6998 291.37C63.8698 290.27 63.3998 289.42 61.4098 288.63C59.4098 287.84 41.0198 280.95 39.8398 273.36C38.6598 265.77 54.7498 264.24 56.8998 263.5C59.0498 262.76 57.9098 260.95 56.7698 260.23C55.5998 259.5 42.6598 251.42 36.6298 247.96C30.5998 244.5 27.6398 240.58 29.1798 236.48C30.6598 232.52 37.7998 233.73 41.0498 233.16C44.2998 232.59 42.8298 228.72 42.8298 228.72C42.8298 228.72 37.0398 220.44 28.7198 203.76C20.3998 187.08 28.4298 184.19 28.4298 184.19" fill="#A8D29F"/>
<path d="M36.0098 199.07C36.0198 199.07 36.0798 199.17 36.1798 199.36C36.2998 199.58 36.4498 199.87 36.6498 200.24C37.0598 201.05 37.6498 202.19 38.3998 203.65C39.9198 206.65 42.0998 210.94 44.7998 216.23C50.2498 226.85 57.7598 241.49 66.0598 257.65C74.3998 273.81 81.8798 288.48 87.1998 299.14C89.8298 304.46 91.9698 308.78 93.4598 311.79C94.1798 313.27 94.7398 314.43 95.1298 315.24C95.3098 315.62 95.4498 315.92 95.5498 316.14C95.6398 316.34 95.6898 316.45 95.6798 316.46C95.6698 316.46 95.6098 316.36 95.5098 316.17C95.3898 315.95 95.2398 315.66 95.0398 315.29C94.6298 314.48 94.0398 313.34 93.2898 311.88C91.7698 308.88 89.5898 304.59 86.8998 299.3C81.4998 288.68 73.9698 274.04 65.6398 257.87C57.3098 241.71 49.8298 227.05 44.4998 216.38C41.8698 211.06 39.7298 206.74 38.2398 203.73C37.5198 202.25 36.9598 201.09 36.5698 200.28C36.3898 199.9 36.2498 199.6 36.1498 199.38C36.0398 199.18 35.9998 199.07 36.0098 199.07Z" fill="#263238"/>
<path d="M65.8699 224.98C65.9399 225 65.6499 226.24 65.1899 228.24C64.6999 230.37 64.0799 233.08 63.3999 236.07C62.7099 239.13 62.0599 241.9 61.5299 243.89C61.2599 244.88 61.0299 245.69 60.8499 246.23C60.6699 246.78 60.5499 247.08 60.5199 247.07C60.4499 247.05 60.7499 245.82 61.1999 243.81C61.6699 241.68 62.2699 238.96 62.9399 235.97C63.6299 232.91 64.3199 230.15 64.8699 228.16C65.1499 227.17 65.3799 226.37 65.5599 225.82C65.7199 225.27 65.8399 224.98 65.8699 224.98Z" fill="#263238"/>
<path d="M59.3798 247.3C59.3398 247.43 53.6597 245.96 46.6897 244.03C39.7097 242.1 34.0897 240.42 34.1197 240.3C34.1597 240.17 39.8398 241.64 46.8098 243.57C53.7798 245.5 59.4098 247.18 59.3798 247.3Z" fill="#263238"/>
<path d="M75.4197 275.12C75.4197 275.15 75.0997 275.2 74.5097 275.25C73.9197 275.31 73.0797 275.36 72.0297 275.42C69.9297 275.52 67.0197 275.59 63.8097 275.5C60.5997 275.41 57.6997 275.18 55.6097 274.96C54.5597 274.85 53.7197 274.74 53.1397 274.65C52.5597 274.56 52.2397 274.5 52.2397 274.46C52.2497 274.39 53.5397 274.48 55.6397 274.62C57.7297 274.76 60.6297 274.93 63.8197 275.02C67.0197 275.11 69.9097 275.1 72.0097 275.08C74.1197 275.07 75.4197 275.05 75.4197 275.12Z" fill="#263238"/>
<path d="M85.7399 256.23C85.7999 256.26 85.2599 257.34 84.3499 259.05C83.4399 260.76 82.1499 263.11 80.6899 265.69C79.2399 268.27 77.8999 270.59 76.9099 272.26C75.9199 273.93 75.2799 274.95 75.2199 274.91C75.1599 274.87 75.6999 273.8 76.6099 272.09C77.5199 270.38 78.8099 268.03 80.2699 265.45C81.7199 262.87 83.0599 260.55 84.0499 258.88C85.0399 257.21 85.6799 256.2 85.7399 256.23Z" fill="#263238"/>
<path d="M103.02 278.99C103.05 279.01 102.88 279.36 102.56 279.97C102.18 280.67 101.71 281.54 101.16 282.56C99.9598 284.74 98.2698 287.73 96.3798 291.02C94.4898 294.31 92.7498 297.27 91.4698 299.41C90.8598 300.4 90.3498 301.24 89.9398 301.92C89.5698 302.51 89.3498 302.83 89.3198 302.81C89.2898 302.79 89.4598 302.44 89.7798 301.83C90.1598 301.13 90.6298 300.26 91.1798 299.24C92.3798 297.06 94.0698 294.07 95.9698 290.78C97.8598 287.49 99.5998 284.53 100.88 282.39C101.49 281.4 102 280.56 102.41 279.88C102.78 279.29 102.99 278.97 103.02 278.99Z" fill="#263238"/>
<path d="M89.4796 302.15C89.4796 302.18 89.0696 302.22 88.3196 302.25C87.5696 302.28 86.4996 302.3 85.1596 302.31C82.4896 302.32 78.8096 302.27 74.7496 302.04C70.6896 301.82 67.0196 301.47 64.3696 301.16C63.0496 301.01 61.9796 300.86 61.2396 300.75C60.4996 300.64 60.0996 300.56 60.0996 300.53C60.0996 300.5 60.5196 300.51 61.2596 300.57C62.0996 300.64 63.1496 300.73 64.3996 300.83C67.0496 301.06 70.7196 301.35 74.7696 301.57C78.8196 301.8 82.4996 301.91 85.1596 301.98C86.4096 302.02 87.4696 302.04 88.3096 302.07C89.0696 302.09 89.4796 302.12 89.4796 302.15Z" fill="#263238"/>
<path d="M414.65 178.78L381.18 211.36L350.34 270.22L315.65 336.77L273.04 316.8L226.98 293.22L256.44 236.94L274.75 173.92C261.81 182.5 237.8 194.19 209.05 188.1C177.91 181.5 192.86 64.0499 192.86 64.0499L227.08 63.1699L230.49 145.98L269.18 128.9L269.24 129.04C271.57 128 273.6 127.08 274.69 126.49C296.08 114.82 310.12 113.41 333.07 121.6L366.18 132.6C374.69 136.6 406.06 152.04 414.65 178.78Z" fill="#A8D29F"/>
<path d="M297.51 119.13C297.53 119.18 296.73 119.57 295.43 120.5C294.13 121.42 292.37 122.95 290.64 125.22C288.9 127.48 287.24 130.47 285.91 134.01C284.56 137.54 283.52 141.57 282.38 145.8C280.09 154.22 278.02 161.84 276.5 167.43C275.74 170.14 275.11 172.36 274.66 173.97C274.44 174.7 274.27 175.28 274.13 175.74C274 176.14 273.93 176.35 273.91 176.35C273.89 176.35 273.93 176.13 274.03 175.71C274.14 175.25 274.28 174.65 274.46 173.91C274.87 172.29 275.44 170.06 276.14 167.33C277.62 161.73 279.64 154.1 281.88 145.66C283.01 141.44 284.07 137.39 285.46 133.83C286.82 130.27 288.54 127.25 290.34 124.99C292.14 122.72 293.96 121.21 295.31 120.33C295.98 119.88 296.53 119.58 296.91 119.39C297.3 119.2 297.5 119.11 297.51 119.13Z" fill="#263238"/>
<g opacity="0.3">
<g opacity="0.3">
<path opacity="0.3" d="M285.04 135.72C275.47 161.62 258.26 176.11 233.89 189.09C233.89 189.09 254.78 187.64 274.07 174.36" fill="black"/>
</g>
</g>
<g opacity="0.3">
<g opacity="0.3">
<path opacity="0.3" d="M315.52 117.28C319.58 182.2 323.63 247.11 327.69 312.03L315.66 336.77L315.52 117.28Z" fill="black"/>
</g>
</g>
<path d="M353.21 184.63C353.07 184.68 351.84 181.62 350.14 177.93C348.44 174.24 346.91 171.32 347.04 171.24C347.1 171.21 347.56 171.89 348.23 173.05C348.9 174.21 349.76 175.85 350.61 177.7C351.47 179.55 352.15 181.27 352.6 182.53C353.06 183.81 353.28 184.61 353.21 184.63Z" fill="#FAFAFA"/>
<path d="M380.45 170.94C380.53 171.06 377.62 173.01 373.95 175.3C370.28 177.59 367.25 179.34 367.17 179.22C367.09 179.1 370 177.15 373.67 174.86C377.34 172.57 380.38 170.82 380.45 170.94Z" fill="#FAFAFA"/>
<path d="M368.63 161.08C368.49 161.09 368.25 158.71 368.09 155.76C367.94 152.81 367.93 150.42 368.07 150.41C368.21 150.4 368.45 152.78 368.61 155.73C368.77 158.68 368.77 161.07 368.63 161.08Z" fill="#FAFAFA"/>
<path d="M395.82 159.18C395.74 159.3 393.55 158.08 390.91 156.46C388.27 154.83 386.2 153.41 386.28 153.29C386.36 153.17 388.55 154.39 391.19 156.01C393.83 157.64 395.9 159.05 395.82 159.18Z" fill="#FAFAFA"/>
<path d="M354.25 213.11C354.12 213.05 355.33 209.96 356.95 206.19C358.57 202.43 360 199.42 360.13 199.48C360.26 199.54 359.05 202.63 357.43 206.4C355.81 210.17 354.38 213.17 354.25 213.11Z" fill="#FAFAFA"/>
<path d="M342.14 225.38C342.01 225.44 340.92 223.52 339.7 221.08C338.48 218.64 337.59 216.61 337.72 216.54C337.85 216.48 338.94 218.4 340.16 220.84C341.39 223.28 342.27 225.31 342.14 225.38Z" fill="#FAFAFA"/>
<path d="M352.27 241.88C352.31 242.01 350.05 242.79 347.13 243.19C344.22 243.61 341.83 243.48 341.83 243.35C341.83 243.2 344.19 243.09 347.06 242.68C349.93 242.27 352.23 241.73 352.27 241.88Z" fill="#FAFAFA"/>
<path d="M365.26 223.83C365.13 223.77 365.92 221.6 367.03 218.98C368.14 216.35 369.15 214.27 369.28 214.33C369.41 214.39 368.62 216.56 367.51 219.18C366.4 221.8 365.4 223.89 365.26 223.83Z" fill="#FAFAFA"/>
<path d="M333.67 261.96C333.54 262.04 332.07 260.01 330.05 257.69C328.04 255.35 326.23 253.61 326.34 253.5C326.43 253.4 328.41 254.99 330.45 257.35C332.49 259.71 333.78 261.89 333.67 261.96Z" fill="#FAFAFA"/>
<path d="M327.94 220.96C328.06 221.03 326.89 223.28 325.33 225.98C323.76 228.68 322.39 230.82 322.26 230.74C322.14 230.67 323.31 228.42 324.88 225.71C326.44 223.02 327.82 220.89 327.94 220.96Z" fill="#FAFAFA"/>
<path d="M332.02 206.83C331.98 206.97 329.48 206.44 326.43 205.66C323.38 204.87 320.94 204.12 320.97 203.98C321.01 203.84 323.51 204.37 326.56 205.15C329.61 205.94 332.05 206.69 332.02 206.83Z" fill="#FAFAFA"/>
<path d="M331.78 177.86C331.91 177.78 333.16 179.66 334.74 181.94C336.32 184.22 337.64 186.05 337.52 186.14C337.41 186.23 335.9 184.53 334.31 182.24C332.72 179.94 331.66 177.93 331.78 177.86Z" fill="#FAFAFA"/>
<path d="M322.57 176.44C322.66 176.55 321.12 178.05 319.11 179.79C317.1 181.53 315.4 182.86 315.31 182.75C315.22 182.64 316.76 181.14 318.77 179.4C320.77 177.66 322.47 176.33 322.57 176.44Z" fill="#FAFAFA"/>
<path d="M329.84 161.27C329.75 161.37 327.52 159.53 325.22 156.81C322.91 154.1 321.44 151.61 321.56 151.54C321.69 151.46 323.33 153.8 325.62 156.48C327.9 159.16 329.95 161.16 329.84 161.27Z" fill="#FAFAFA"/>
<path d="M355.42 156.6C355.46 156.74 352.95 157.63 349.81 158.58C346.67 159.54 344.09 160.2 344.05 160.07C344.01 159.93 346.52 159.04 349.66 158.09C352.8 157.13 355.37 156.46 355.42 156.6Z" fill="#FAFAFA"/>
<path d="M319.41 132.24C319.26 132.23 319.32 129.94 318.97 127.17C318.63 124.39 318 122.19 318.15 122.14C318.27 122.09 319.14 124.26 319.49 127.1C319.85 129.94 319.54 132.26 319.41 132.24Z" fill="#FAFAFA"/>
<path d="M296.65 204.75C296.69 204.82 295.77 205.45 294.29 206.49C292.81 207.53 290.79 208.98 288.63 210.68C286.47 212.38 284.57 213.99 283.21 215.18C281.85 216.36 281.01 217.11 280.96 217.05C280.91 217 281.66 216.17 282.96 214.91C284.26 213.65 286.13 211.98 288.31 210.27C290.49 208.57 292.55 207.15 294.09 206.19C295.63 205.22 296.62 204.69 296.65 204.75Z" fill="#FAFAFA"/>
<path d="M295.34 196.72C295.21 196.8 293.53 194.18 291.2 191.13C288.88 188.08 286.81 185.76 286.92 185.65C286.97 185.6 287.56 186.12 288.43 187.04C289.3 187.96 290.45 189.28 291.62 190.81C292.79 192.35 293.75 193.8 294.41 194.89C295.05 195.98 295.4 196.69 295.34 196.72Z" fill="#FAFAFA"/>
<path d="M301.43 165.12C301.5 165.25 299.36 166.56 296.65 168.05C293.94 169.55 291.69 170.65 291.62 170.53C291.55 170.4 293.69 169.09 296.4 167.6C299.11 166.1 301.36 164.99 301.43 165.12Z" fill="#FAFAFA"/>
<path d="M295.4 151.32C295.36 151.37 294.68 150.88 293.69 149.97C292.69 149.07 291.38 147.73 290.08 146.14C288.78 144.55 287.73 143 287.03 141.85C286.34 140.69 285.98 139.94 286.04 139.9C286.18 139.82 287.89 142.66 290.48 145.81C293.05 148.97 295.51 151.2 295.4 151.32Z" fill="#FAFAFA"/>
<path d="M305.78 151.03C305.65 150.97 306.47 149.01 307.62 146.66C308.77 144.31 309.8 142.45 309.93 142.51C310.06 142.57 309.24 144.53 308.09 146.89C306.95 149.23 305.91 151.09 305.78 151.03Z" fill="#FAFAFA"/>
<path d="M303.01 135.23C302.85 135.22 303.03 132.12 302.43 128.37C301.86 124.62 300.74 121.72 300.89 121.66C300.95 121.64 301.31 122.33 301.74 123.51C302.17 124.69 302.65 126.38 302.95 128.28C303.25 130.18 303.31 131.93 303.26 133.19C303.21 134.47 303.08 135.24 303.01 135.23Z" fill="#FAFAFA"/>
<path d="M305.57 214.93C305.49 214.92 305.55 213.81 305.61 212C305.67 210.2 305.72 207.71 305.66 204.96C305.59 202.21 305.41 199.73 305.26 197.93C305.11 196.13 305 195.02 305.08 195.01C305.15 195 305.38 196.1 305.63 197.89C305.88 199.68 306.11 202.18 306.18 204.95C306.25 207.72 306.14 210.22 305.98 212.02C305.82 213.83 305.64 214.93 305.57 214.93Z" fill="#FAFAFA"/>
<path d="M304.05 239.77C303.93 239.88 302.27 237.88 299.61 236.2C296.96 234.49 294.45 233.84 294.5 233.68C294.51 233.55 297.15 234 299.89 235.76C302.64 237.5 304.16 239.71 304.05 239.77Z" fill="#FAFAFA"/>
<path d="M316.57 255.18C316.64 255.31 313.56 257.03 309.7 259.03C305.84 261.03 302.66 262.54 302.59 262.41C302.52 262.28 305.6 260.56 309.46 258.56C313.32 256.57 316.5 255.05 316.57 255.18Z" fill="#FAFAFA"/>
<path d="M281.35 262.01C281.23 262.1 278.97 259.21 276.29 255.57C273.61 251.93 271.54 248.91 271.65 248.83C271.77 248.74 274.03 251.63 276.71 255.27C279.39 258.9 281.46 261.92 281.35 262.01Z" fill="#FAFAFA"/>
<path d="M270.48 233.57C270.41 233.57 270.32 232.79 270.26 231.52C270.2 230.25 270.19 228.49 270.28 226.55C270.37 224.61 270.55 222.86 270.72 221.6C270.89 220.34 271.06 219.57 271.13 219.58C271.28 219.6 270.97 222.72 270.8 226.58C270.61 230.43 270.63 233.57 270.48 233.57Z" fill="#FAFAFA"/>
<path d="M258.75 282.11C258.66 282.22 256.04 280.2 252.91 277.59C249.77 274.98 247.31 272.78 247.4 272.67C247.49 272.56 250.11 274.58 253.24 277.19C256.37 279.8 258.84 282 258.75 282.11Z" fill="#FAFAFA"/>
<path d="M265.79 280.62C265.65 280.62 265.45 277.11 265.35 272.78C265.25 268.45 265.28 264.93 265.43 264.93C265.57 264.93 265.77 268.43 265.87 272.77C265.97 277.11 265.93 280.62 265.79 280.62Z" fill="#FAFAFA"/>
<path d="M279.69 310.74C279.66 310.82 278.44 310.32 276.43 309.68C274.42 309.04 271.6 308.3 268.42 307.86C265.23 307.43 262.32 307.38 260.21 307.47C258.1 307.55 256.8 307.7 256.79 307.62C256.79 307.58 257.11 307.51 257.69 307.41C258.27 307.3 259.13 307.2 260.19 307.11C262.31 306.93 265.27 306.92 268.49 307.36C271.71 307.8 274.56 308.61 276.55 309.35C277.55 309.72 278.34 310.05 278.88 310.31C279.42 310.55 279.71 310.71 279.69 310.74Z" fill="#FAFAFA"/>
<path d="M291.14 316.23C291.18 316.18 292.06 316.75 293.39 317.79C294.72 318.83 296.5 320.35 298.33 322.18C300.16 324.01 301.68 325.79 302.72 327.12C303.76 328.45 304.33 329.33 304.28 329.37C304.22 329.42 303.54 328.62 302.44 327.35C301.33 326.08 299.78 324.36 297.96 322.54C296.15 320.73 294.42 319.17 293.15 318.07C291.89 316.97 291.1 316.29 291.14 316.23Z" fill="#FAFAFA"/>
<path d="M296.13 264.14C296 264.19 294.84 261.58 293.54 258.31C292.24 255.04 291.3 252.34 291.43 252.29C291.56 252.24 292.72 254.85 294.02 258.12C295.32 261.39 296.26 264.08 296.13 264.14Z" fill="#FAFAFA"/>
<path d="M255.96 162.79C256.01 162.84 255.45 163.5 254.43 164.46C253.41 165.42 251.92 166.66 250.15 167.85C248.37 169.03 246.65 169.94 245.38 170.5C244.1 171.07 243.28 171.33 243.25 171.27C243.19 171.12 246.35 169.77 249.86 167.41C253.38 165.07 255.85 162.67 255.96 162.79Z" fill="#FAFAFA"/>
<path d="M258.52 152.19C258.38 152.18 258.35 150.18 258.47 147.73C258.59 145.27 258.8 143.28 258.94 143.29C259.08 143.3 259.11 145.29 258.99 147.75C258.87 150.21 258.66 152.2 258.52 152.19Z" fill="#FAFAFA"/>
<path d="M238.58 161.09C238.52 161.22 236.19 160.28 233.39 159C230.58 157.71 228.35 156.56 228.41 156.43C228.47 156.3 230.8 157.24 233.61 158.52C236.41 159.81 238.64 160.96 238.58 161.09Z" fill="#FAFAFA"/>
<path d="M274.17 147.52C274.03 147.51 274.1 145.03 274.33 141.99C274.56 138.95 274.87 136.49 275.01 136.5C275.15 136.51 275.08 138.99 274.85 142.03C274.62 145.08 274.32 147.54 274.17 147.52Z" fill="#FAFAFA"/>
<path d="M227.98 182.28C227.94 182.41 225.24 181.58 222.27 179.78C219.29 178 217.29 176.01 217.38 175.92C217.48 175.8 219.61 177.59 222.54 179.34C225.46 181.1 228.04 182.14 227.98 182.28Z" fill="#FAFAFA"/>
<path d="M213.15 161.94C213.26 162.04 211.35 164.3 208.89 166.99C206.43 169.68 204.35 171.79 204.25 171.69C204.14 171.59 206.05 169.33 208.51 166.64C210.96 163.94 213.04 161.84 213.15 161.94Z" fill="#FAFAFA"/>
<path d="M211.88 143.71C211.83 143.83 209.59 142.89 207.22 141.1C204.84 139.32 203.3 137.44 203.4 137.36C203.51 137.25 205.19 138.94 207.53 140.69C209.86 142.44 211.95 143.57 211.88 143.71Z" fill="#FAFAFA"/>
<path d="M202.55 147.53C202.66 147.62 201.7 148.93 200.42 150.45C199.13 151.97 198 153.13 197.89 153.04C197.78 152.95 198.73 151.64 200.02 150.12C201.31 148.59 202.44 147.43 202.55 147.53Z" fill="#FAFAFA"/>
<path d="M222.56 113.69C222.67 113.78 220.92 116.1 218.65 118.87C216.38 121.64 214.45 123.82 214.34 123.72C214.23 123.63 215.98 121.31 218.25 118.54C220.52 115.77 222.45 113.6 222.56 113.69Z" fill="#FAFAFA"/>
<path d="M205.4 117.54C205.29 117.63 203.39 115.64 201.15 113.08C198.91 110.52 197.18 108.37 197.29 108.27C197.4 108.18 199.3 110.17 201.54 112.74C203.78 115.29 205.5 117.44 205.4 117.54Z" fill="#FAFAFA"/>
<path d="M213.98 95.82C213.85 95.89 212.52 93.76 211 91.07C209.48 88.38 208.35 86.14 208.47 86.07C208.6 86 209.93 88.12 211.45 90.82C212.97 93.51 214.1 95.75 213.98 95.82Z" fill="#FAFAFA"/>
<path d="M213.55 81.8101C213.42 81.7101 214.92 79.8101 216.11 77.1201C217.32 74.4401 217.74 72.0601 217.9 72.0901C218.03 72.0901 217.84 74.5701 216.59 77.3401C215.36 80.1001 213.64 81.9001 213.55 81.8101Z" fill="#FAFAFA"/>
<path d="M197.04 80.9798C196.92 81.0098 196.78 78.0698 198.27 74.8598C199 73.2698 199.94 71.9798 200.71 71.1398C201.48 70.2998 202.06 69.8798 202.1 69.9298C202.22 70.0398 200.14 71.9698 198.74 75.0798C197.3 78.1598 197.2 80.9998 197.04 80.9798Z" fill="#FAFAFA"/>
<path d="M341.22 57.18C340.9 53.0201 340.57 48.84 341.07 44.7C341.57 40.56 342.95 36.43 345.67 33.27C348.39 30.11 352.6 28.08 356.73 28.62C359.28 28.95 361.7 30.21 364.28 30.14C367.26 30.05 369.85 28.21 372.56 26.98C376.79 25.05 381.66 24.54 386.2 25.56C388.58 26.09 390.93 27.08 392.65 28.82C394.37 30.56 395.35 33.14 394.74 35.51C397.75 35.51 400.79 35.52 403.69 36.3C406.59 37.08 409.38 38.74 410.88 41.34C412.38 43.95 412.27 47.57 410.13 49.69C412.91 49.13 415.82 51.27 416.49 54.02C417.15 56.78 415.78 59.7901 413.49 61.46C411.2 63.13 406.93 63.87 404.14 63.34C401.35 62.8101 398.17 62.03 395.91 60.32" fill="#263238"/>
<path d="M339.05 151.38C350.54 154.33 362.26 147.46 365.28 136C366.97 129.6 368.35 124.23 368.35 124.23C368.35 124.23 385.06 127.09 390.59 111.28C396.12 95.4599 405.61 58.0699 405.61 58.0699C389.88 43.9999 367.76 39.5399 347.8 46.4199L344.84 47.4399L323.61 124.77C320.41 136.4 327.37 148.38 339.05 151.38Z" fill="#B78876"/>
<path d="M368.45 124.01C368.45 124.01 358.14 121.46 349.72 111.18C349.72 111.18 350.78 124.25 367.11 128.14L368.45 124.01Z" fill="#AA6550"/>
<path d="M341.27 64.5499C341.04 64.3399 331.44 57.6599 328.14 68.6299C324.84 79.5999 336.54 80.6499 336.65 80.3399C336.77 80.0399 341.27 64.5499 341.27 64.5499Z" fill="#B78876"/>
<path d="M334.56 75.18C334.52 75.13 334.33 75.26 333.96 75.31C333.6 75.36 333.03 75.3 332.52 74.91C331.49 74.14 331.07 72 331.61 70.01C331.88 69 332.38 68.11 332.97 67.43C333.55 66.73 334.23 66.32 334.85 66.39C335.47 66.43 335.78 66.9 335.82 67.25C335.87 67.6 335.74 67.8 335.79 67.84C335.81 67.88 336.08 67.73 336.13 67.25C336.15 67.02 336.1 66.72 335.9 66.43C335.7 66.14 335.35 65.91 334.93 65.83C334.07 65.63 333.07 66.18 332.42 66.93C331.72 67.67 331.14 68.66 330.84 69.79C330.25 72.02 330.76 74.43 332.2 75.37C332.91 75.8 333.63 75.76 334.04 75.6C334.46 75.44 334.59 75.21 334.56 75.18Z" fill="#AA6550"/>
<path d="M392.141 80.9302C391.781 82.1402 390.46 82.8402 389.18 82.4802C387.91 82.1302 387.17 80.8602 387.53 79.6502C387.89 78.4402 389.211 77.7402 390.481 78.0902C391.761 78.4502 392.501 79.7202 392.141 80.9302Z" fill="#263238"/>
<path d="M395.101 79.4C394.721 79.6 393.431 77.75 390.981 76.94C388.551 76.09 386.341 76.75 386.171 76.36C386.081 76.18 386.551 75.75 387.521 75.44C388.481 75.13 389.971 75.02 391.491 75.54C393.011 76.06 394.101 77.05 394.641 77.87C395.211 78.69 395.281 79.31 395.101 79.4Z" fill="#263238"/>
<path d="M368.141 72.8799C367.781 74.0899 366.46 74.7899 365.18 74.4299C363.91 74.0799 363.17 72.8099 363.53 71.5999C363.89 70.3899 365.211 69.6899 366.481 70.0399C367.761 70.3999 368.501 71.6699 368.141 72.8799Z" fill="#263238"/>
<path d="M370.96 71.7999C370.58 71.9999 369.29 70.1499 366.84 69.3399C364.41 68.4899 362.2 69.1499 362.03 68.7599C361.94 68.5799 362.41 68.1499 363.38 67.8399C364.34 67.5299 365.83 67.4199 367.35 67.9399C368.87 68.4599 369.96 69.4499 370.5 70.2699C371.06 71.0999 371.14 71.7199 370.96 71.7999Z" fill="#263238"/>
<path d="M373.741 92.8797C373.781 92.7397 375.381 92.9797 377.941 93.4997C378.581 93.6397 379.221 93.7197 379.461 93.3297C379.761 92.9297 379.721 92.1697 379.661 91.3397C379.581 89.6397 379.501 87.8497 379.411 85.9797C379.121 78.3597 379.131 72.1897 379.441 72.1797C379.751 72.1697 380.231 78.3397 380.521 85.9497C380.581 87.8197 380.631 89.6097 380.681 91.3197C380.681 92.1097 380.811 93.0497 380.181 93.8697C379.861 94.2797 379.281 94.4597 378.851 94.4397C378.411 94.4297 378.061 94.3197 377.741 94.2297C375.241 93.5197 373.701 93.0197 373.741 92.8797Z" fill="#263238"/>
<path d="M365.991 92.15C366.391 92.26 365.511 94.91 367.151 97.55C368.781 100.2 371.701 100.85 371.601 101.22C371.581 101.4 370.801 101.52 369.601 101.16C368.421 100.81 366.841 99.86 365.831 98.24C364.831 96.62 364.761 94.88 365.031 93.77C365.301 92.63 365.811 92.08 365.991 92.15Z" fill="#263238"/>
<path d="M395.641 74.8001C395.021 75.2101 393.541 74.0701 391.521 73.3601C389.531 72.5801 387.661 72.4801 387.461 71.7701C387.381 71.4301 387.841 70.9701 388.761 70.6901C389.671 70.4101 391.051 70.4001 392.421 70.9101C393.791 71.4201 394.831 72.3301 395.341 73.1301C395.881 73.9501 395.921 74.6001 395.641 74.8001Z" fill="#263238"/>
<path d="M370.74 61.9101C370.37 62.1201 369.78 61.7901 369.02 61.3501C368.26 60.9101 367.29 60.3701 366.14 59.9401C364.99 59.5201 363.9 59.2901 363.04 59.1301C362.18 58.9601 361.53 58.8301 361.38 58.4301C361.24 58.0601 361.71 57.4401 362.79 57.0301C363.86 56.6101 365.53 56.5301 367.19 57.1401C368.84 57.7601 370.05 58.9201 370.59 59.9301C371.14 60.9501 371.09 61.7301 370.74 61.9101Z" fill="#263238"/>
<path d="M404.76 63.2099C404.76 63.2099 392.93 63.2199 381.99 54.2599C374.81 48.3799 365.82 44.2599 363.37 45.4199C360.92 46.5799 358.59 54.8199 350.01 55.4399C350.01 55.4399 346.95 71.4899 340.73 69.4799C334.51 67.4699 344.08 43.7099 344.08 43.7099L361.33 39.6499L379 40.2899L394.88 43.8899L408.61 51.7799L404.76 63.2099Z" fill="#263238"/>
<path d="M315.66 0.259766H91.1299V349.9H315.66V0.259766Z" fill="#FAFAFA"/>
<path d="M315.66 349.9C315.66 347.75 315.56 205.75 315.42 0.26L315.66 0.5C246.74 0.51 170.84 0.51 91.1601 0.52H91.1301L91.3901 0.26C91.3701 132.53 91.3501 254.34 91.3401 349.9L91.1301 349.69C228.28 349.82 313.99 349.89 315.66 349.9C313.98 349.9 228.27 349.98 91.1301 350.11H90.9201V349.9C90.9101 254.35 90.8901 132.54 90.8701 0.26V0H91.1301H91.1601C170.84 0.01 246.74 0.01 315.66 0.02H315.9V0.26C315.76 205.75 315.66 347.74 315.66 349.9Z" fill="#263238"/>
<path d="M151.31 78.1199H122.58C120.59 78.1199 118.99 76.5099 118.99 74.5299V34.7599C118.99 32.7699 120.6 31.1699 122.58 31.1699H140.8L154.9 45.7099V74.5299C154.9 76.5099 153.29 78.1199 151.31 78.1199Z" fill="#A8D29F"/>
<path d="M140.8 31.1602V42.3502C140.8 44.2002 142.3 45.6902 144.14 45.6902H154.9L140.8 31.1602Z" fill="#A8D29F"/>
<g opacity="0.2">
<g opacity="0.2">
<g opacity="0.2">
<path opacity="0.2" d="M140.95 43.3403C140.95 43.3403 140.81 46.0503 143.9 46.9503C144.02 46.9803 144.14 47.0103 144.25 47.0303C145.65 47.2803 154.9 48.9303 154.9 48.7103C154.9 48.4803 154.9 45.7003 154.9 45.7003H144.14C144.14 45.7003 141.46 45.6103 140.95 43.3403Z" fill="black"/>
</g>
</g>
</g>
<g opacity="0.3">
<g opacity="0.3">
<g opacity="0.3">
<path opacity="0.3" d="M140.8 31.1602V42.3502C140.8 44.2002 142.3 45.6902 144.14 45.6902H154.9L140.8 31.1602Z" fill="white"/>
</g>
</g>
</g>
<path d="M138.39 41.9001C138.39 42.0401 135.41 42.1601 131.74 42.1601C128.07 42.1601 125.09 42.0401 125.09 41.9001C125.09 41.7601 128.06 41.6401 131.74 41.6401C135.41 41.6401 138.39 41.7501 138.39 41.9001Z" fill="#FAFAFA"/>
<path d="M146.97 48.2302C146.97 48.3702 142.07 48.4902 136.03 48.4902C129.99 48.4902 125.09 48.3702 125.09 48.2302C125.09 48.0902 129.99 47.9702 136.03 47.9702C142.08 47.9702 146.97 48.0802 146.97 48.2302Z" fill="#FAFAFA"/>
<path d="M148.94 53.51C148.94 53.65 143.6 53.77 137.02 53.77C130.43 53.77 125.1 53.65 125.1 53.51C125.1 53.37 130.44 53.25 137.02 53.25C143.61 53.25 148.94 53.37 148.94 53.51Z" fill="#FAFAFA"/>
<path d="M148.94 58.49C148.94 58.63 143.6 58.75 137.02 58.75C130.43 58.75 125.1 58.63 125.1 58.49C125.1 58.35 130.44 58.23 137.02 58.23C143.61 58.23 148.94 58.35 148.94 58.49Z" fill="#FAFAFA"/>
<path d="M148.94 63.4802C148.94 63.6202 143.6 63.7402 137.02 63.7402C130.43 63.7402 125.1 63.6202 125.1 63.4802C125.1 63.3402 130.44 63.2202 137.02 63.2202C143.61 63.2202 148.94 63.3402 148.94 63.4802Z" fill="#FAFAFA"/>
<path d="M148.94 68.4602C148.94 68.6002 143.6 68.7202 137.02 68.7202C130.43 68.7202 125.1 68.6002 125.1 68.4602C125.1 68.3202 130.44 68.2002 137.02 68.2002C143.61 68.2002 148.94 68.3202 148.94 68.4602Z" fill="#FAFAFA"/>
<path d="M164.95 51.6H161.92V50.5H169.23V51.6H166.2V59.34H164.95V51.6Z" fill="#263238"/>
<path d="M177.02 58.24V59.34H170.61V50.5H176.84V51.6H171.87V54.31H176.3V55.38H171.87V58.23H177.02V58.24Z" fill="#263238"/>
<path d="M184.97 59.33L183.06 56.62C182.88 56.63 182.69 56.64 182.5 56.64H180.32V59.33H179.06V50.5H182.5C184.8 50.5 186.18 51.66 186.18 53.58C186.18 54.94 185.47 55.93 184.24 56.37L186.33 59.34H184.97V59.33ZM184.93 53.58C184.93 52.32 184.08 51.6 182.47 51.6H180.32V55.58H182.47C184.09 55.57 184.93 54.84 184.93 53.58Z" fill="#263238"/>
<path d="M196.43 59.33L196.42 52.89L193.23 58.25H192.65L189.46 52.92V59.32H188.25V50.5H189.28L192.96 56.71L196.59 50.5H197.62L197.63 59.33H196.43Z" fill="#263238"/>
<path d="M199.49 58.3297L199.96 57.3497C200.62 57.9397 201.74 58.3697 202.88 58.3697C204.41 58.3697 205.06 57.7797 205.06 57.0097C205.06 54.8497 199.71 56.2197 199.71 52.9297C199.71 51.5697 200.77 50.4097 203.09 50.4097C204.12 50.4097 205.2 50.6897 205.93 51.1897L205.51 52.1997C204.74 51.7097 203.87 51.4797 203.09 51.4797C201.59 51.4797 200.94 52.1097 200.94 52.8797C200.94 55.0397 206.29 53.6897 206.29 56.9297C206.29 58.2797 205.21 59.4397 202.87 59.4397C201.52 59.4397 200.19 58.9797 199.49 58.3297Z" fill="#263238"/>
<path d="M210.81 54.9199C210.81 52.3299 212.8 50.3999 215.52 50.3999C218.21 50.3999 220.2 52.3199 220.2 54.9199C220.2 57.5199 218.21 59.4399 215.52 59.4399C212.8 59.4399 210.81 57.4999 210.81 54.9199ZM218.93 54.9199C218.93 52.9599 217.47 51.5299 215.51 51.5299C213.53 51.5299 212.06 52.9699 212.06 54.9199C212.06 56.8799 213.52 58.3099 215.51 58.3099C217.47 58.3099 218.93 56.8699 218.93 54.9199Z" fill="#263238"/>
<path d="M223.39 51.6V54.68H227.82V55.76H223.39V59.33H222.13V50.5H228.36V51.6H223.39Z" fill="#263238"/>
<path d="M232.73 58.3297L233.2 57.3497C233.86 57.9397 234.98 58.3697 236.11 58.3697C237.64 58.3697 238.29 57.7797 238.29 57.0097C238.29 54.8497 232.94 56.2197 232.94 52.9297C232.94 51.5697 234 50.4097 236.32 50.4097C237.35 50.4097 238.43 50.6897 239.16 51.1897L238.74 52.1997C237.97 51.7097 237.1 51.4797 236.32 51.4797C234.82 51.4797 234.17 52.1097 234.17 52.8797C234.17 55.0397 239.52 53.6897 239.52 56.9297C239.52 58.2797 238.43 59.4397 236.1 59.4397C234.76 59.4397 233.44 58.9797 232.73 58.3297Z" fill="#263238"/>
<path d="M247.79 58.24V59.34H241.38V50.5H247.61V51.6H242.64V54.31H247.07V55.38H242.64V58.23H247.79V58.24Z" fill="#263238"/>
<path d="M255.74 59.33L253.83 56.62C253.65 56.63 253.46 56.64 253.27 56.64H251.09V59.33H249.83V50.5H253.27C255.57 50.5 256.96 51.66 256.96 53.58C256.96 54.94 256.25 55.93 255.02 56.37L257.11 59.34H255.74V59.33ZM255.7 53.58C255.7 52.32 254.86 51.6 253.24 51.6H251.09V55.58H253.24C254.86 55.57 255.7 54.84 255.7 53.58Z" fill="#263238"/>
<path d="M266.68 50.5L262.81 59.33H261.56L257.67 50.5H259.03L262.21 57.76L265.42 50.5H266.68Z" fill="#263238"/>
<path d="M267.81 50.5H269.07V59.33H267.81V50.5Z" fill="#263238"/>
<path d="M271 54.9199C271 52.3099 272.99 50.3999 275.68 50.3999C277.04 50.3999 278.23 50.8699 279.04 51.7799L278.22 52.5699C277.54 51.8499 276.71 51.5199 275.73 51.5199C273.74 51.5199 272.26 52.9599 272.26 54.9099C272.26 56.8699 273.74 58.2999 275.73 58.2999C276.7 58.2999 277.53 57.9599 278.22 57.2399L279.04 58.0299C278.23 58.9399 277.05 59.4199 275.67 59.4199C273 59.4399 271 57.5299 271 54.9199Z" fill="#263238"/>
<path d="M287.26 58.24V59.34H280.85V50.5H287.08V51.6H282.11V54.31H286.54V55.38H282.11V58.23H287.26V58.24Z" fill="#263238"/>
<path d="M172.88 68.4102L170.53 75.4501H169.47L167.55 69.8302L165.63 75.4501H164.55L162.2 68.4102H163.24L165.14 74.1301L167.12 68.4102H168.05L169.99 74.1602L171.93 68.4102H172.88Z" fill="#E0E0E0"/>
<path d="M178.36 73.1103H174.04C174.16 74.0503 174.92 74.6703 175.97 74.6703C176.59 74.6703 177.12 74.4603 177.51 74.0303L178.04 74.6503C177.56 75.2103 176.82 75.5103 175.94 75.5103C174.22 75.5103 173.07 74.3703 173.07 72.7903C173.07 71.2103 174.21 70.0703 175.74 70.0703C177.28 70.0703 178.37 71.1803 178.37 72.8203C178.38 72.9003 178.37 73.0203 178.36 73.1103ZM174.03 72.4103H177.45C177.35 71.5103 176.68 70.8803 175.74 70.8803C174.82 70.8903 174.13 71.5103 174.03 72.4103Z" fill="#E0E0E0"/>
<path d="M179.72 67.9902H180.69V75.4502H179.72V67.9902Z" fill="#E0E0E0"/>
<path d="M182.03 72.7903C182.03 71.2003 183.21 70.0703 184.85 70.0703C185.81 70.0703 186.6 70.4603 187.02 71.2103L186.29 71.6803C185.95 71.1603 185.43 70.9203 184.84 70.9203C183.79 70.9203 183.01 71.6503 183.01 72.7903C183.01 73.9503 183.79 74.6703 184.84 74.6703C185.42 74.6703 185.95 74.4303 186.29 73.9103L187.02 74.3703C186.6 75.1103 185.8 75.5203 184.85 75.5203C183.21 75.5103 182.03 74.3703 182.03 72.7903Z" fill="#E0E0E0"/>
<path d="M187.69 72.7903C187.69 71.2003 188.87 70.0703 190.47 70.0703C192.07 70.0703 193.24 71.2003 193.24 72.7903C193.24 74.3803 192.07 75.5103 190.47 75.5103C188.87 75.5103 187.69 74.3703 187.69 72.7903ZM192.26 72.7903C192.26 71.6503 191.5 70.9203 190.47 70.9203C189.44 70.9203 188.67 71.6503 188.67 72.7903C188.67 73.9303 189.44 74.6703 190.47 74.6703C191.49 74.6703 192.26 73.9203 192.26 72.7903Z" fill="#E0E0E0"/>
<path d="M203.42 72.3803V75.4503H202.45V72.4903C202.45 71.4403 201.95 70.9303 201.07 70.9303C200.1 70.9303 199.47 71.5403 199.47 72.7003V75.4503H198.5V72.4903C198.5 71.4403 198 70.9303 197.12 70.9303C196.15 70.9303 195.52 71.5403 195.52 72.7003V75.4503H194.55V70.1203H195.48V70.9103C195.86 70.3703 196.52 70.0703 197.32 70.0703C198.13 70.0703 198.82 70.3903 199.17 71.0603C199.57 70.4603 200.32 70.0703 201.22 70.0703C202.54 70.0703 203.42 70.8103 203.42 72.3803Z" fill="#E0E0E0"/>
<path d="M210.03 73.1103H205.71C205.83 74.0503 206.59 74.6703 207.64 74.6703C208.26 74.6703 208.79 74.4603 209.18 74.0303L209.71 74.6503C209.23 75.2103 208.49 75.5103 207.61 75.5103C205.89 75.5103 204.74 74.3703 204.74 72.7903C204.74 71.2103 205.88 70.0703 207.41 70.0703C208.95 70.0703 210.04 71.1803 210.04 72.8203C210.05 72.9003 210.04 73.0203 210.03 73.1103ZM205.71 72.4103H209.13C209.03 71.5103 208.36 70.8803 207.42 70.8803C206.49 70.8903 205.81 71.5103 205.71 72.4103Z" fill="#E0E0E0"/>
<path d="M211.17 74.8702C211.17 74.5102 211.45 74.2302 211.83 74.2302C212.2 74.2302 212.47 74.5102 212.47 74.8702C212.47 75.2202 212.2 75.5102 211.83 75.5102C211.45 75.5102 211.17 75.2202 211.17 74.8702ZM211.26 68.4102H212.4L212.21 73.2302H211.45L211.26 68.4102Z" fill="#E0E0E0"/>
<path d="M301.25 315.35H300.07C299.34 315.35 298.74 314.75 298.74 314.02V23.1098C298.74 22.3798 299.34 21.7798 300.07 21.7798H301.25C301.98 21.7798 302.58 22.3798 302.58 23.1098V314.02C302.58 314.75 301.99 315.35 301.25 315.35Z" fill="#E0E0E0"/>
<path d="M301.25 173.13H300.07C299.34 173.13 298.74 172.53 298.74 171.8V23.1098C298.74 22.3798 299.34 21.7798 300.07 21.7798H301.25C301.98 21.7798 302.58 22.3798 302.58 23.1098V171.8C302.58 172.53 301.99 173.13 301.25 173.13Z" fill="#A8D29F"/>
<path d="M126.28 109.41V116.45H125.28V110.29H123.69V109.41H126.28Z" fill="#263238"/>
<path d="M127.8 115.81C127.8 115.41 128.11 115.13 128.48 115.13C128.84 115.13 129.14 115.41 129.14 115.81C129.14 116.21 128.84 116.5 128.48 116.5C128.11 116.51 127.8 116.22 127.8 115.81Z" fill="#263238"/>
<path d="M134.78 110.28H132.37V109.4H138.19V110.28H135.78V116.44H134.78V110.28Z" fill="#263238"/>
<path d="M143.39 114.1H139.07C139.19 115.04 139.95 115.66 141 115.66C141.62 115.66 142.15 115.45 142.54 115.02L143.07 115.64C142.59 116.2 141.85 116.5 140.97 116.5C139.25 116.5 138.1 115.36 138.1 113.77C138.1 112.19 139.24 111.05 140.77 111.05C142.31 111.05 143.4 112.16 143.4 113.8C143.41 113.89 143.4 114.01 143.39 114.1ZM139.06 113.41H142.48C142.38 112.51 141.71 111.88 140.77 111.88C139.85 111.88 139.16 112.51 139.06 113.41Z" fill="#263238"/>
<path d="M147.61 111.07V112C147.53 111.99 147.46 111.99 147.39 111.99C146.35 111.99 145.71 112.62 145.71 113.79V116.44H144.74V111.11H145.67V112C146.01 111.39 146.68 111.07 147.61 111.07Z" fill="#263238"/>
<path d="M157.65 113.38V116.45H156.68V113.49C156.68 112.44 156.18 111.93 155.3 111.93C154.33 111.93 153.7 112.54 153.7 113.7V116.45H152.73V113.49C152.73 112.44 152.23 111.93 151.35 111.93C150.38 111.93 149.75 112.54 149.75 113.7V116.45H148.78V111.12H149.71V111.91C150.09 111.37 150.75 111.07 151.55 111.07C152.36 111.07 153.05 111.39 153.4 112.06C153.8 111.46 154.55 111.07 155.45 111.07C156.76 111.07 157.65 111.81 157.65 113.38Z" fill="#263238"/>
<path d="M129.04 224.8V225.68H123.98V225L126.85 222.23C127.59 221.51 127.73 221.06 127.73 220.62C127.73 219.9 127.22 219.45 126.23 219.45C125.48 219.45 124.86 219.69 124.43 220.21L123.75 219.62C124.29 218.95 125.23 218.55 126.32 218.55C127.79 218.55 128.73 219.3 128.73 220.51C128.73 221.19 128.53 221.81 127.57 222.72L125.42 224.79H129.04V224.8Z" fill="#263238"/>
<path d="M129.95 225.04C129.95 224.64 130.26 224.36 130.63 224.36C130.99 224.36 131.29 224.64 131.29 225.04C131.29 225.44 130.99 225.73 130.63 225.73C130.26 225.74 129.95 225.45 129.95 225.04Z" fill="#263238"/>
<path d="M135.53 218.64H136.54V224.8H140.35V225.68H135.53V218.64Z" fill="#263238"/>
<path d="M141.2 218.7C141.2 218.35 141.48 218.07 141.85 218.07C142.22 218.07 142.5 218.34 142.5 218.68C142.5 219.04 142.23 219.32 141.85 219.32C141.48 219.32 141.2 219.05 141.2 218.7ZM141.37 220.35H142.34V225.68H141.37V220.35Z" fill="#263238"/>
<path d="M143.68 223.01C143.68 221.42 144.86 220.3 146.5 220.3C147.46 220.3 148.25 220.69 148.67 221.44L147.94 221.91C147.6 221.39 147.08 221.15 146.49 221.15C145.44 221.15 144.66 221.88 144.66 223.02C144.66 224.18 145.44 224.9 146.49 224.9C147.07 224.9 147.6 224.66 147.94 224.14L148.67 224.6C148.25 225.34 147.45 225.75 146.5 225.75C144.86 225.74 143.68 224.6 143.68 223.01Z" fill="#263238"/>
<path d="M154.63 223.33H150.31C150.43 224.26 151.19 224.89 152.24 224.89C152.86 224.89 153.39 224.68 153.78 224.25L154.31 224.87C153.83 225.43 153.09 225.74 152.21 225.74C150.49 225.74 149.34 224.6 149.34 223.01C149.34 221.43 150.48 220.3 152.01 220.3C153.55 220.3 154.64 221.41 154.64 223.05C154.65 223.12 154.64 223.24 154.63 223.33ZM150.31 222.64H153.73C153.63 221.75 152.96 221.11 152.02 221.11C151.09 221.11 150.41 221.74 150.31 222.64Z" fill="#263238"/>
<path d="M161.05 222.61V225.68H160.08V222.72C160.08 221.67 159.56 221.16 158.64 221.16C157.61 221.16 156.95 221.77 156.95 222.93V225.68H155.98V220.35H156.91V221.15C157.3 220.61 157.99 220.3 158.83 220.3C160.13 220.3 161.05 221.04 161.05 222.61Z" fill="#263238"/>
<path d="M162.38 223.01C162.38 221.42 163.56 220.3 165.2 220.3C166.16 220.3 166.95 220.69 167.37 221.44L166.64 221.91C166.3 221.39 165.78 221.15 165.19 221.15C164.14 221.15 163.36 221.88 163.36 223.02C163.36 224.18 164.14 224.9 165.19 224.9C165.77 224.9 166.3 224.66 166.64 224.14L167.37 224.6C166.95 225.34 166.15 225.75 165.2 225.75C163.55 225.74 162.38 224.6 162.38 223.01Z" fill="#263238"/>
<path d="M173.33 223.33H169.01C169.13 224.26 169.89 224.89 170.94 224.89C171.56 224.89 172.09 224.68 172.48 224.25L173.01 224.87C172.53 225.43 171.79 225.74 170.91 225.74C169.19 225.74 168.04 224.6 168.04 223.01C168.04 221.43 169.18 220.3 170.71 220.3C172.24 220.3 173.34 221.41 173.34 223.05C173.35 223.12 173.34 223.24 173.33 223.33ZM169.01 222.64H172.43C172.33 221.75 171.66 221.11 170.72 221.11C169.79 221.11 169.11 221.74 169.01 222.64Z" fill="#263238"/>
<path d="M277.76 132.28C277.76 132.42 243.25 132.54 200.69 132.54C158.11 132.54 123.61 132.42 123.61 132.28C123.61 132.14 158.11 132.02 200.69 132.02C243.25 132.02 277.76 132.14 277.76 132.28Z" fill="#263238"/>
<path d="M277.76 143.94C277.76 144.08 243.25 144.2 200.69 144.2C158.11 144.2 123.61 144.08 123.61 143.94C123.61 143.8 158.11 143.68 200.69 143.68C243.25 143.68 277.76 143.8 277.76 143.94Z" fill="#263238"/>
<path d="M277.76 155.61C277.76 155.75 243.25 155.87 200.69 155.87C158.11 155.87 123.61 155.75 123.61 155.61C123.61 155.47 158.11 155.35 200.69 155.35C243.25 155.35 277.76 155.47 277.76 155.61Z" fill="#263238"/>
<path d="M277.76 167.27C277.76 167.41 243.25 167.53 200.69 167.53C158.11 167.53 123.61 167.41 123.61 167.27C123.61 167.13 158.11 167.01 200.69 167.01C243.25 167.01 277.76 167.13 277.76 167.27Z" fill="#263238"/>
<path d="M277.76 178.94C277.76 179.08 243.25 179.2 200.69 179.2C158.11 179.2 123.61 179.08 123.61 178.94C123.61 178.8 158.11 178.68 200.69 178.68C243.25 178.68 277.76 178.8 277.76 178.94Z" fill="#263238"/>
<path d="M277.76 190.61C277.76 190.75 243.25 190.87 200.69 190.87C158.11 190.87 123.61 190.75 123.61 190.61C123.61 190.47 158.11 190.35 200.69 190.35C243.25 190.35 277.76 190.46 277.76 190.61Z" fill="#263238"/>
<path d="M277.76 234.92C277.76 235.06 243.25 235.18 200.69 235.18C158.11 235.18 123.61 235.06 123.61 234.92C123.61 234.78 158.11 234.66 200.69 234.66C243.25 234.65 277.76 234.77 277.76 234.92Z" fill="#263238"/>
<path d="M277.76 244.89C277.76 245.03 243.25 245.15 200.69 245.15C158.11 245.15 123.61 245.03 123.61 244.89C123.61 244.75 158.11 244.63 200.69 244.63C243.25 244.63 277.76 244.75 277.76 244.89Z" fill="#E0E0E0"/>
<path d="M277.76 254.87C277.76 255.01 243.25 255.13 200.69 255.13C158.11 255.13 123.61 255.01 123.61 254.87C123.61 254.73 158.11 254.61 200.69 254.61C243.25 254.61 277.76 254.72 277.76 254.87Z" fill="#EBEBEB"/>
<path d="M289.01 284.72H207.47V315.1H289.01V284.72Z" fill="#A8D29F"/>
<path d="M234.63 301.48H230.62L229.79 303.37H228.68L232.1 295.82H233.17L236.6 303.37H235.47L234.63 301.48ZM234.25 300.62L232.62 296.92L230.99 300.62H234.25Z" fill="white"/>
<path d="M236.98 300.51C236.98 298.81 238.24 297.6 240 297.6C241.03 297.6 241.88 298.02 242.33 298.82L241.54 299.33C241.17 298.77 240.61 298.51 239.99 298.51C238.87 298.51 238.03 299.3 238.03 300.52C238.03 301.76 238.87 302.54 239.99 302.54C240.62 302.54 241.18 302.28 241.54 301.72L242.33 302.22C241.88 303.02 241.03 303.45 240 303.45C238.24 303.43 236.98 302.21 236.98 300.51Z" fill="white"/>
<path d="M243.05 300.51C243.05 298.81 244.31 297.6 246.07 297.6C247.1 297.6 247.95 298.02 248.4 298.82L247.61 299.33C247.24 298.77 246.68 298.51 246.06 298.51C244.94 298.51 244.1 299.3 244.1 300.52C244.1 301.76 244.94 302.54 246.06 302.54C246.69 302.54 247.25 302.28 247.61 301.72L248.4 302.22C247.95 303.02 247.1 303.45 246.07 303.45C244.31 303.43 243.05 302.21 243.05 300.51Z" fill="white"/>
<path d="M254.8 300.85H250.16C250.29 301.85 251.1 302.52 252.23 302.52C252.9 302.52 253.46 302.29 253.88 301.83L254.45 302.5C253.93 303.1 253.14 303.43 252.2 303.43C250.36 303.43 249.13 302.21 249.13 300.51C249.13 298.82 250.35 297.6 252 297.6C253.65 297.6 254.83 298.79 254.83 300.55C254.82 300.63 254.81 300.76 254.8 300.85ZM250.16 300.11H253.83C253.72 299.15 253 298.47 252 298.47C251 298.47 250.26 299.14 250.16 300.11Z" fill="white"/>
<path d="M262.17 300.51C262.17 302.27 260.95 303.43 259.28 303.43C258.47 303.43 257.76 303.12 257.28 302.5V305.46H256.24V297.65H257.23V298.56C257.69 297.92 258.43 297.6 259.27 297.6C260.95 297.59 262.17 298.76 262.17 300.51ZM261.12 300.51C261.12 299.3 260.29 298.5 259.19 298.5C258.1 298.5 257.27 299.3 257.27 300.51C257.27 301.73 258.1 302.53 259.19 302.53C260.29 302.52 261.12 301.73 261.12 300.51Z" fill="white"/>
<path d="M266.82 303.03C266.51 303.3 266.03 303.43 265.57 303.43C264.42 303.43 263.76 302.79 263.76 301.64V298.5H262.79V297.65H263.76V296.4H264.8V297.65H266.44V298.5H264.8V301.6C264.8 302.22 265.12 302.56 265.7 302.56C266 302.56 266.29 302.46 266.51 302.29L266.82 303.03Z" fill="white"/>
<path d="M119.8 315.34C119.8 315.35 119.73 315.3 119.6 315.2C119.46 315.09 119.27 314.94 119.01 314.75C118.47 314.32 117.67 313.7 116.59 312.84L116.5 312.77L116.61 312.73C126.45 308.96 158.54 296.92 198.09 282.17L198.23 282.12L198.34 282.21C199.34 283.01 200.42 283.88 201.5 284.75L201.6 284.83V284.95C201.6 287.62 201.6 290.46 201.6 293.34C201.6 300.9 201.6 308.27 201.59 315.33V315.59H201.34C178.01 315.55 157.62 315.52 143.04 315.5C135.78 315.47 129.97 315.44 125.95 315.42C123.97 315.4 122.44 315.39 121.37 315.38C120.87 315.37 120.48 315.36 120.19 315.36C119.93 315.36 119.8 315.34 119.8 315.34C119.8 315.34 119.94 315.33 120.21 315.32C120.5 315.31 120.89 315.31 121.4 315.3C122.47 315.29 124.01 315.28 126 315.26C130.03 315.24 135.84 315.22 143.11 315.18C157.68 315.16 178.04 315.12 201.33 315.09L201.08 315.34C201.08 308.28 201.08 300.91 201.07 293.35C201.07 290.48 201.07 287.63 201.07 284.96L201.17 285.16C200.08 284.28 199 283.42 198.01 282.61L198.26 282.65C158.71 297.37 126.56 309.27 116.65 312.85L116.67 312.73C117.73 313.6 118.51 314.24 119.04 314.68C119.29 314.89 119.47 315.04 119.61 315.16C119.74 315.28 119.8 315.34 119.8 315.34Z" fill="#A8D29F"/>
<path d="M198.17 282.42H116.63V312.8H198.17V282.42Z" fill="white"/>
<path d="M198.18 312.8C198.18 312.8 198.17 312.61 198.16 312.25C198.16 311.88 198.15 311.36 198.14 310.68C198.13 309.29 198.12 307.26 198.1 304.65C198.08 299.41 198.04 291.84 198 282.42L198.18 282.6C177.96 282.62 148.89 282.65 116.64 282.68H116.63L116.89 282.42C116.89 293.02 116.88 303.28 116.88 312.8L116.63 312.55C140.16 312.6 160.51 312.64 175 312.67C182.24 312.7 188.02 312.72 192.01 312.74C193.99 312.75 195.52 312.76 196.58 312.77C197.09 312.78 197.48 312.78 197.77 312.79C198.03 312.79 198.18 312.8 198.18 312.8C198.18 312.8 198.06 312.81 197.8 312.82C197.52 312.82 197.14 312.83 196.64 312.84C195.59 312.85 194.08 312.86 192.13 312.87C188.16 312.89 182.4 312.91 175.18 312.94C160.65 312.97 140.24 313.01 116.64 313.06H116.39V312.81C116.39 303.29 116.38 293.03 116.38 282.43V282.17H116.64H116.65C148.9 282.2 177.97 282.23 198.19 282.25H198.37V282.43C198.33 291.9 198.3 299.51 198.27 304.77C198.25 307.36 198.24 309.37 198.23 310.76C198.22 311.42 198.22 311.93 198.21 312.3C198.19 312.63 198.18 312.8 198.18 312.8Z" fill="#A8D29F"/>
<path d="M138.98 295.46H142.16C144.59 295.46 146.24 296.99 146.24 299.24C146.24 301.48 144.59 303.02 142.16 303.02H138.98V295.46ZM142.1 302.07C143.97 302.07 145.16 300.93 145.16 299.23C145.16 297.54 143.96 296.39 142.1 296.39H140.06V302.06H142.1V302.07Z" fill="#A8D29F"/>
<path d="M152.88 300.5H148.24C148.37 301.5 149.18 302.17 150.31 302.17C150.98 302.17 151.54 301.94 151.96 301.48L152.53 302.15C152.01 302.75 151.22 303.08 150.28 303.08C148.44 303.08 147.21 301.86 147.21 300.16C147.21 298.47 148.43 297.25 150.08 297.25C151.73 297.25 152.91 298.44 152.91 300.2C152.9 300.27 152.89 300.4 152.88 300.5ZM148.24 299.75H151.91C151.8 298.79 151.08 298.11 150.08 298.11C149.09 298.12 148.35 298.78 148.24 299.75Z" fill="#A8D29F"/>
<path d="M153.81 300.15C153.81 298.44 155.07 297.24 156.83 297.24C157.85 297.24 158.71 297.66 159.16 298.46L158.37 298.97C158 298.41 157.44 298.15 156.82 298.15C155.7 298.15 154.86 298.94 154.86 300.16C154.86 301.4 155.7 302.18 156.82 302.18C157.45 302.18 158.01 301.92 158.37 301.36L159.16 301.86C158.71 302.66 157.85 303.09 156.83 303.09C155.07 303.08 153.81 301.86 153.81 300.15Z" fill="#A8D29F"/>
<path d="M160.42 295.01H161.46V303.01H160.42V295.01Z" fill="#A8D29F"/>
<path d="M163.24 295.53C163.24 295.15 163.54 294.85 163.94 294.85C164.34 294.85 164.64 295.14 164.64 295.51C164.64 295.9 164.35 296.2 163.94 296.2C163.55 296.19 163.24 295.9 163.24 295.53ZM163.43 297.29H164.47V303.01H163.43V297.29Z" fill="#A8D29F"/>
<path d="M171.86 299.72V303.01H170.82V299.84C170.82 298.72 170.26 298.17 169.28 298.17C168.18 298.17 167.47 298.83 167.47 300.07V303.02H166.43V297.3H167.42V298.16C167.84 297.58 168.57 297.24 169.48 297.24C170.88 297.24 171.86 298.04 171.86 299.72Z" fill="#A8D29F"/>
<path d="M178.96 300.5H174.32C174.45 301.5 175.26 302.17 176.39 302.17C177.06 302.17 177.62 301.94 178.04 301.48L178.61 302.15C178.09 302.75 177.3 303.08 176.36 303.08C174.52 303.08 173.29 301.86 173.29 300.16C173.29 298.47 174.51 297.25 176.16 297.25C177.81 297.25 178.99 298.44 178.99 300.2C178.98 300.27 178.97 300.4 178.96 300.5ZM174.32 299.75H177.99C177.88 298.79 177.16 298.11 176.16 298.11C175.16 298.12 174.42 298.78 174.32 299.75Z" fill="#A8D29F"/>
<path d="M201.34 315.34C201.24 315.44 200.45 314.85 199.58 314.01C198.71 313.17 198.08 312.41 198.18 312.3C198.28 312.2 199.07 312.79 199.94 313.63C200.81 314.47 201.44 315.24 201.34 315.34Z" fill="#A8D29F"/>
<path d="M317.83 307.75L329.47 302.14L323.07 283.23L309.01 279.97C307.7 279.68 306.24 279.33 304.61 278.87C302.71 278.34 300.91 277.49 299.29 276.36C297.32 275 294.78 273.09 293.71 271.63C292.38 269.82 289.56 270.49 289.57 272.5C289.58 274.51 293.11 279.58 299.42 283.17C305.73 286.75 294.58 288.49 290.53 289.2C286.48 289.9 274.07 292.67 273.33 294.08C272.25 296.15 274.31 297.73 278.34 296.93C282.41 296.12 294.62 294.58 294.95 296.73C294.95 296.73 294.94 296.75 294.91 296.79C292.88 299.94 293.11 304.05 295.44 306.98C297.69 309.81 301.08 313.36 303.58 312.82C308.29 311.82 317.83 307.75 317.83 307.75Z" fill="#B78876"/>
<path d="M317.12 274.46L328.03 311.35L412.74 285.61C430.97 280.07 441.07 260.62 435.12 242.52L414.35 177.9L369.24 189.1L394 248.87L317.12 274.46Z" fill="#A8D29F"/>
<path d="M414.65 284.96C414.65 284.96 414.51 285.02 414.24 285.11C413.95 285.2 413.55 285.33 413.02 285.5C411.93 285.84 410.34 286.33 408.28 286.97C404.12 288.24 398.09 290.09 390.5 292.41C375.27 297.03 353.81 303.54 328.84 311.11L328.61 311.18L328.53 310.95C324.75 299.68 321.1 287.27 316.87 274.54L316.79 274.29L317.04 274.21C317.71 273.99 318.44 273.74 319.17 273.5C347.41 264.12 373.43 255.48 393.94 248.67L393.81 248.95C387.84 234.45 382.96 222.56 379.55 214.29C377.87 210.17 376.56 206.95 375.65 204.74C375.21 203.65 374.88 202.82 374.65 202.24C374.43 201.67 374.33 201.38 374.33 201.38C374.33 201.38 374.47 201.66 374.71 202.22C374.96 202.8 375.31 203.62 375.77 204.7C376.69 206.9 378.04 210.11 379.77 214.21C383.21 222.47 388.16 234.33 394.19 248.8L394.28 249.01L394.07 249.08C373.57 255.92 347.57 264.59 319.34 274.01C318.61 274.25 317.88 274.5 317.21 274.72L317.37 274.39C321.6 287.14 325.25 299.54 329.01 310.81L328.7 310.65C353.7 303.15 375.17 296.7 390.41 292.12C398.02 289.86 404.07 288.06 408.24 286.82C410.31 286.21 411.9 285.75 413 285.43C413.53 285.28 413.94 285.16 414.23 285.08C414.5 284.99 414.65 284.96 414.65 284.96Z" fill="#263238"/>
<path d="M409.661 259.64C409.581 259.69 409.021 258.71 407.881 257.3C406.751 255.89 404.991 254.1 402.701 252.58C400.401 251.06 398.071 250.13 396.331 249.64C394.591 249.14 393.471 249 393.481 248.91C393.481 248.87 393.771 248.88 394.281 248.92C394.791 248.95 395.531 249.07 396.421 249.28C398.211 249.69 400.631 250.59 402.981 252.14C405.331 253.7 407.101 255.58 408.171 257.07C408.711 257.81 409.101 258.45 409.331 258.9C409.581 259.36 409.691 259.62 409.661 259.64Z" fill="#263238"/>
<path d="M389.13 192.23C388.99 192.23 388.87 189.78 388.87 186.76C388.87 183.74 388.99 181.29 389.13 181.29C389.27 181.29 389.39 183.74 389.39 186.76C389.39 189.78 389.27 192.23 389.13 192.23Z" fill="#FAFAFA"/>
<path d="M406.14 193.1C406 193.14 405.18 190.79 404.3 187.86C403.42 184.92 402.82 182.51 402.96 182.47C403.1 182.43 403.92 184.78 404.8 187.71C405.68 190.65 406.28 193.06 406.14 193.1Z" fill="#FAFAFA"/>
<path d="M395.59 208.45C395.58 208.58 393.22 208.51 390.44 207.69C387.66 206.88 385.63 205.67 385.7 205.55C385.77 205.41 387.87 206.4 390.59 207.19C393.31 207.99 395.6 208.29 395.59 208.45Z" fill="#FAFAFA"/>
<path d="M414.83 216.9C414.69 216.88 414.97 214.54 415.47 211.67C415.96 208.81 416.48 206.51 416.62 206.53C416.76 206.55 416.48 208.89 415.98 211.76C415.49 214.63 414.97 216.93 414.83 216.9Z" fill="#FAFAFA"/>
<path d="M407.94 230.66C407.81 230.72 406.7 228.57 405.46 225.86C404.22 223.15 403.32 220.9 403.45 220.84C403.58 220.78 404.69 222.93 405.93 225.64C407.18 228.36 408.08 230.6 407.94 230.66Z" fill="#FAFAFA"/>
<path d="M405.13 242.73C405.07 242.86 402.94 241.96 400.39 240.72C397.83 239.48 395.81 238.37 395.87 238.24C395.93 238.11 398.06 239.01 400.61 240.25C403.17 241.49 405.19 242.6 405.13 242.73Z" fill="#FAFAFA"/>
<path d="M426.77 239.52C426.9 239.59 425.94 241.59 424.87 244.11C423.79 246.62 423.01 248.7 422.87 248.65C422.74 248.61 423.3 246.44 424.39 243.9C425.47 241.36 426.64 239.45 426.77 239.52Z" fill="#FAFAFA"/>
<path d="M420.75 268.56C420.61 268.57 420.24 266.07 419.94 262.97C419.63 259.87 419.5 257.35 419.64 257.33C419.78 257.32 420.15 259.82 420.45 262.92C420.76 266.02 420.89 268.55 420.75 268.56Z" fill="#FAFAFA"/>
<path d="M405.47 277.74C405.37 277.85 403.59 276.37 401.49 274.44C399.39 272.51 397.77 270.86 397.86 270.76C397.96 270.65 399.74 272.13 401.84 274.06C403.95 275.98 405.57 277.63 405.47 277.74Z" fill="#FAFAFA"/>
<path d="M379.07 280.37C379.19 280.46 377.82 282.52 376.01 284.98C374.2 287.44 372.65 289.37 372.53 289.28C372.41 289.19 373.78 287.13 375.59 284.67C377.39 282.21 378.95 280.29 379.07 280.37Z" fill="#FAFAFA"/>
<path d="M387.44 267.99C387.35 268.1 385.42 266.63 383.39 264.44C381.35 262.25 380.04 260.21 380.15 260.13C380.27 260.04 381.76 261.92 383.77 264.08C385.78 266.25 387.54 267.88 387.44 267.99Z" fill="#FAFAFA"/>
<path d="M367.52 270.81C367.56 270.94 365.78 271.47 363.54 271.3C361.29 271.14 359.611 270.36 359.671 270.24C359.721 270.09 361.42 270.64 363.58 270.78C365.73 270.94 367.49 270.65 367.52 270.81Z" fill="#FAFAFA"/>
<path d="M354.92 292.68C354.78 292.7 354.33 290.78 353.92 288.38C353.51 285.98 353.29 284.02 353.43 283.99C353.57 283.96 354.02 285.89 354.43 288.29C354.84 290.69 355.06 292.66 354.92 292.68Z" fill="#FAFAFA"/>
<path d="M340.04 300.23C339.96 300.35 337.7 299.06 335 297.35C332.29 295.64 330.16 294.16 330.23 294.03C330.31 293.91 332.56 295.2 335.27 296.91C337.98 298.62 340.12 300.11 340.04 300.23Z" fill="#FAFAFA"/>
<path d="M345.35 273.61C345.46 273.71 344.01 275.43 342.39 277.67C340.76 279.91 339.59 281.82 339.45 281.75C339.33 281.69 340.32 279.63 341.96 277.37C343.61 275.09 345.25 273.51 345.35 273.61Z" fill="#FAFAFA"/>
<path d="M333.85 278.66C333.79 278.79 332.48 278.26 330.93 277.49C329.38 276.71 328.18 275.98 328.24 275.85C328.3 275.72 329.61 276.25 331.16 277.02C332.71 277.8 333.91 278.53 333.85 278.66Z" fill="#FAFAFA"/>
<g opacity="0.2">
<g opacity="0.2">
<path opacity="0.2" d="M393.29 247.36C397.82 247.83 402.34 248.29 406.86 248.86C408.42 249.06 410.01 249.27 411.45 249.9C412.9 250.53 414.21 251.63 414.74 253.11C415.27 254.6 414.82 256.47 413.48 257.3C412.26 258.06 410.64 257.81 409.38 257.12C408.12 256.44 407.11 255.38 406 254.47C403.98 252.79 401.59 251.54 399.06 250.84C397.93 250.53 396.74 250.31 395.74 249.67C394.75 249.04 393.99 247.84 394.3 246.7" fill="black"/>
</g>
</g>
</g>
<defs>
<clipPath id="clip0">
<rect width="436.83" height="350.16" fill="white"/>
</clipPath>
</defs>
</svg>
